<svg width="34" height="34" viewBox="0 0 34 34" fill="none" xmlns="http://www.w3.org/2000/svg">
<path d="M23.0001 11H11V23.0001H23.0001V11Z" stroke="#161616" stroke-width="3.5" stroke-miterlimit="10" stroke-linecap="round" stroke-linejoin="round"/>
<path d="M2.00049 6.50005C2.00049 3.95002 3.95051 2 6.50054 2C9.05056 2 11.0006 3.95002 11.0006 6.50005C11.0006 7.70006 11.0006 11.0001 11.0006 11.0001C11.0006 11.0001 7.85055 11.0001 6.50054 11.0001C3.95051 11.0001 2.00049 9.05008 2.00049 6.50005Z" stroke="#161616" stroke-width="3.5" stroke-miterlimit="10" stroke-linecap="round" stroke-linejoin="round"/>
<path d="M32.0001 6.50005C32.0001 3.95002 30.0501 2 27.5 2C24.95 2 23 3.95002 23 6.50005C23 7.70006 23 11.0001 23 11.0001C23 11.0001 26.15 11.0001 27.5 11.0001C30.0501 11.0001 32.0001 9.05008 32.0001 6.50005Z" stroke="#161616" stroke-width="3.5" stroke-miterlimit="10" stroke-linecap="round" stroke-linejoin="round"/>
<path d="M32.0001 27.5005C32.0001 30.0506 30.0501 32.0006 27.5 32.0006C24.95 32.0006 23 30.0506 23 27.5005C23 26.3005 23 23.0005 23 23.0005C23 23.0005 26.15 23.0005 27.5 23.0005C30.0501 23.0005 32.0001 24.9505 32.0001 27.5005Z" stroke="#161616" stroke-width="3.5" stroke-miterlimit="10" stroke-linecap="round" stroke-linejoin="round"/>
<path d="M2 27.5005C2 30.0506 3.95002 32.0006 6.50005 32.0006C9.05008 32.0006 11.0001 30.0506 11.0001 27.5005C11.0001 26.3005 11.0001 23.0005 11.0001 23.0005C11.0001 23.0005 7.85006 23.0005 6.50005 23.0005C3.95002 23.0005 2 24.9505 2 27.5005Z" stroke="#161616" stroke-width="3.5" stroke-miterlimit="10" stroke-linecap="round" stroke-linejoin="round"/>
</svg>
