<svg width="177" height="30" viewBox="0 0 177 30" fill="none" xmlns="http://www.w3.org/2000/svg">
<path d="M170.434 24.0433C169.869 23.4138 169.391 22.7114 169.01 21.9547C168.41 20.7686 167.579 19.7156 166.568 18.8578C165.557 18 164.386 17.3547 163.123 16.9599C162.019 16.6161 160.864 16.4701 159.71 16.5287C160.55 16.4804 161.377 16.7535 162.025 17.2936C162.674 17.8335 163.096 18.6004 163.207 19.4405C163.51 21.2557 164.309 22.9501 165.514 24.3344C166.718 25.7188 168.281 26.7386 170.028 27.2799C172.025 27.8982 174.165 27.8649 176.143 27.1847C173.94 26.8228 171.926 25.7147 170.434 24.0433Z" fill="#E4E4E7"/>
<path d="M156.272 16.3492C156.529 17.4699 156.981 18.5375 157.608 19.504C157.151 18.8022 156.974 17.9557 157.115 17.1313C157.255 16.3069 157.701 15.5646 158.365 15.0508C159.776 13.8923 160.836 12.3677 161.425 10.6469C162.015 8.92613 162.112 7.07666 161.705 5.30448C161.241 3.27715 160.14 1.44878 158.56 0.083252C159.346 2.16959 159.392 4.45991 158.688 6.57525C158.419 7.37385 158.045 8.13367 157.575 8.83502C156.854 9.93679 156.363 11.1709 156.13 12.4644C155.898 13.7579 155.929 15.0845 156.222 16.3657L156.272 16.3492Z" fill="#E4E4E7"/>
<path d="M161.193 20.251C160.82 21.005 160.18 21.5877 159.401 21.8823C158.623 22.177 157.764 22.1617 156.996 21.8396C155.304 21.1954 153.468 21.0419 151.695 21.3962C149.922 21.7506 148.28 22.5989 146.955 23.8464C145.443 25.2752 144.417 27.1549 144.024 29.2144C145.431 27.4796 147.378 26.284 149.544 25.8252C150.358 25.6561 151.189 25.5905 152.019 25.6301C153.32 25.6987 154.622 25.5016 155.847 25.0507C157.072 24.5997 158.196 23.9041 159.152 23.0047C159.989 22.2152 160.683 21.2833 161.204 20.251H161.193Z" fill="#E4E4E7"/>
<path d="M0.271484 29.0832H4.98748V17.5992C4.98748 16.3272 5.33548 15.3072 6.03148 14.5392C6.72748 13.7712 7.63948 13.3872 8.76748 13.3872C9.91949 13.3872 10.8315 13.7712 11.5035 14.5392C12.1995 15.2832 12.5475 16.3032 12.5475 17.5992V29.0832H17.2635V17.5992C17.2635 16.3272 17.6115 15.3072 18.3075 14.5392C19.0035 13.7712 19.9155 13.3872 21.0435 13.3872C22.1955 13.3872 23.1075 13.7712 23.7795 14.5392C24.4755 15.2832 24.8235 16.3032 24.8235 17.5992V29.0832H29.5395V16.4832C29.5395 15.0192 29.2155 13.7352 28.5675 12.6312C27.9435 11.5032 27.0915 10.6272 26.0115 10.0032C24.9315 9.37918 23.6955 9.06718 22.3035 9.06718C21.0075 9.06718 19.8315 9.33118 18.7755 9.85919C17.7435 10.3872 16.8915 11.1792 16.2195 12.2352C15.6435 11.2752 14.8155 10.5072 13.7355 9.93119C12.6795 9.35518 11.4915 9.06718 10.1715 9.06718C8.94748 9.06718 7.85548 9.30718 6.89548 9.78718C5.93548 10.2672 5.20348 10.9872 4.69948 11.9472V9.49918H0.271484V29.0832Z" fill="#E4E4E7"/>
<path d="M39.4693 29.5152C42.0133 29.5152 44.0533 28.6752 45.5893 26.9952V29.0832H50.0533V16.0512C50.0533 14.6832 49.7053 13.4712 49.0093 12.4152C48.3133 11.3592 47.3533 10.5432 46.1293 9.96719C44.9293 9.36718 43.5253 9.06718 41.9173 9.06718C39.9493 9.06718 38.1973 9.53518 36.6613 10.4712C35.1253 11.4072 34.0693 12.6432 33.4933 14.1792L37.3453 16.0512C37.7053 15.1632 38.2693 14.4552 39.0373 13.9272C39.8053 13.3752 40.7053 13.0992 41.7373 13.0992C42.8173 13.0992 43.6813 13.3872 44.3293 13.9632C45.0013 14.5152 45.3373 15.2112 45.3373 16.0512V16.6992L39.5053 17.6352C37.2013 18.0192 35.4973 18.7512 34.3933 19.8312C33.2893 20.9112 32.7373 22.2672 32.7373 23.8992C32.7373 25.6272 33.3493 26.9952 34.5733 28.0032C35.7973 29.0112 37.4293 29.5152 39.4693 29.5152ZM37.6333 23.7192C37.6333 22.3512 38.5573 21.4872 40.4053 21.1272L45.3373 20.2992V21.0912C45.3373 22.4352 44.8693 23.5752 43.9333 24.5112C43.0213 25.4472 41.8213 25.9152 40.3333 25.9152C39.5413 25.9152 38.8933 25.7232 38.3893 25.3392C37.8853 24.9312 37.6333 24.3912 37.6333 23.7192Z" fill="#E4E4E7"/>
<path d="M54.4121 29.0832H59.1281V18.1752C59.1281 16.6872 59.5361 15.5352 60.3521 14.7192C61.1921 13.8792 62.2721 13.4592 63.5921 13.4592H65.2841V9.28319H64.1321C62.9321 9.28319 61.8761 9.49919 60.9641 9.93119C60.0521 10.3632 59.3441 11.1432 58.8401 12.2712V9.49918H54.4121V29.0832Z" fill="#E4E4E7"/>
<path d="M77.3323 29.2992C78.1243 29.2992 78.9043 29.2392 79.6723 29.1192V25.0512C79.2163 25.1232 78.7963 25.1592 78.4123 25.1592C77.2603 25.1592 76.4203 24.8952 75.8923 24.3672C75.3643 23.8392 75.1003 23.0832 75.1003 22.0992V13.7112H79.6003V9.49918H75.1003V5.03518H70.3843V6.54718C70.3843 7.50719 70.1203 8.23919 69.5923 8.74319C69.0643 9.24719 68.3203 9.49918 67.3603 9.49918H67.0003V13.7112H70.3843V22.3512C70.3843 24.5352 70.9843 26.2392 72.1843 27.4632C73.4083 28.6872 75.1243 29.2992 77.3323 29.2992Z" fill="#E4E4E7"/>
<path d="M83.2754 7.30319H87.9914V2.26318H83.2754V7.30319ZM83.2754 29.0832H87.9914V9.49918H83.2754V29.0832Z" fill="#E4E4E7"/>
<path d="M92.3457 29.0832H97.0617V17.5992C97.0617 16.3272 97.4217 15.3072 98.1417 14.5392C98.8857 13.7712 99.8457 13.3872 101.022 13.3872C102.198 13.3872 103.146 13.7712 103.866 14.5392C104.61 15.2832 104.982 16.3032 104.982 17.5992V29.0832H109.698V16.4832C109.698 15.0192 109.386 13.7352 108.762 12.6312C108.138 11.5032 107.262 10.6272 106.134 10.0032C105.03 9.37918 103.758 9.06718 102.318 9.06718C101.094 9.06718 99.9897 9.30718 99.0057 9.78718C98.0457 10.2672 97.3017 10.9752 96.7737 11.9112V9.49918H92.3457V29.0832Z" fill="#E4E4E7"/>
<path d="M123.262 29.5152C125.158 29.5152 126.886 29.0832 128.446 28.2192C130.006 27.3312 131.254 26.1192 132.19 24.5832C133.126 23.0232 133.594 21.2592 133.594 19.2912C133.594 17.3232 133.126 15.5712 132.19 14.0352C131.278 12.4992 130.042 11.2872 128.482 10.3992C126.922 9.51118 125.182 9.06718 123.262 9.06718C121.318 9.06718 119.566 9.51118 118.006 10.3992C116.446 11.2872 115.198 12.4992 114.262 14.0352C113.35 15.5712 112.894 17.3232 112.894 19.2912C112.894 21.2592 113.35 23.0112 114.262 24.5472C115.198 26.0832 116.446 27.2952 118.006 28.1832C119.59 29.0712 121.342 29.5152 123.262 29.5152ZM123.262 25.1952C122.206 25.1952 121.258 24.9432 120.418 24.4392C119.602 23.9352 118.954 23.2392 118.474 22.3512C118.018 21.4392 117.79 20.4192 117.79 19.2912C117.79 18.1632 118.018 17.1552 118.474 16.2672C118.954 15.3792 119.602 14.6832 120.418 14.1792C121.258 13.6512 122.206 13.3872 123.262 13.3872C124.318 13.3872 125.242 13.6512 126.034 14.1792C126.85 14.6832 127.486 15.3792 127.942 16.2672C128.422 17.1552 128.662 18.1632 128.662 19.2912C128.662 20.4192 128.422 21.4392 127.942 22.3512C127.486 23.2392 126.85 23.9352 126.034 24.4392C125.242 24.9432 124.318 25.1952 123.262 25.1952Z" fill="#E4E4E7"/>
</svg>
