<svg width="165" height="38" viewBox="0 0 165 38" fill="none" xmlns="http://www.w3.org/2000/svg">
<path d="M31.6372 14.0755L31.6151 14.0534C31.6133 14.0522 31.6118 14.0505 31.6109 14.0486L17.7758 0.213135L3.94085 14.0482C3.93926 14.0498 3.93837 14.052 3.93676 14.053L3.91393 14.0752C1.79837 16.2026 0.454625 18.9762 0.0963089 21.955C-0.262007 24.9338 0.38567 27.947 1.93637 30.5155C3.48708 33.084 5.85183 35.0605 8.6547 36.1305C11.4576 37.2006 14.5377 37.3031 17.4055 36.4215C17.6468 36.3477 17.9047 36.3477 18.1461 36.4215C21.0136 37.3028 24.0936 37.2002 26.8963 36.13C29.699 35.0597 32.0634 33.0834 33.614 30.5151C35.1647 27.9468 35.8124 24.9338 35.4542 21.9552C35.0961 18.9765 33.7525 16.203 31.6372 14.0755ZM8.86039 23.1989C8.79304 23.2662 8.73963 23.3463 8.70321 23.4341C8.66676 23.522 8.64801 23.6164 8.64802 23.7116C8.67264 26.1534 9.36273 28.5422 10.644 30.621C10.6731 30.6682 10.6866 30.7234 10.6824 30.7786C10.6783 30.8338 10.6568 30.8863 10.621 30.9287C10.5852 30.971 10.537 31.0008 10.4832 31.0141C10.4294 31.0273 10.3728 31.0232 10.3215 31.0023C9.35823 30.5971 8.48317 30.0081 7.74524 29.2684C6.23298 27.7558 5.3828 25.7048 5.38143 23.566C5.38005 21.4271 6.2276 19.3751 7.73794 17.8607L17.7758 7.82371L27.8132 17.8607C29.3238 19.3749 30.1716 21.4269 30.1702 23.566C30.169 25.7048 29.3186 27.7558 27.8063 29.2684C27.0683 30.0081 26.1933 30.5971 25.2302 31.0023C25.1788 31.0232 25.1222 31.0273 25.0684 31.0141C25.0146 31.0008 24.9664 30.9708 24.9305 30.9287C24.8948 30.8863 24.8731 30.8338 24.869 30.7784C24.8649 30.7232 24.8783 30.668 24.9074 30.6209C26.189 28.5422 26.8795 26.1534 26.9045 23.7116C26.9045 23.6164 26.8855 23.522 26.8489 23.434C26.8123 23.3459 26.7587 23.266 26.6912 23.1987L21.9434 18.1628C21.8961 18.1233 21.8366 18.1017 21.775 18.1017C21.7135 18.1017 21.6539 18.1233 21.6067 18.1628C21.5594 18.2021 21.5276 18.2569 21.5165 18.3175C21.5054 18.3781 21.5159 18.4404 21.5463 18.494C23.3902 21.8308 21.8046 26.6238 19.1604 29.2684L19.1465 29.2823C18.7815 29.6433 18.2888 29.8457 17.7755 29.8456C17.2621 29.8454 16.7695 29.6426 16.4048 29.2814L16.392 29.2684C13.7468 26.6238 12.162 21.8314 14.0062 18.4947C14.0365 18.4411 14.0471 18.3788 14.036 18.3182C14.025 18.2577 13.9931 18.2028 13.9459 18.1635C13.8986 18.124 13.839 18.1024 13.7775 18.1024C13.7159 18.1024 13.6563 18.124 13.6091 18.1635L8.86039 23.1989Z" fill="#E4E4E7"/>
<path d="M65.6736 11.768H70.2526L65.503 27.6377H60.27L58.0516 18.2524L55.8048 27.6377H50.5718L45.8223 11.768H50.6856L53.1599 22.9166L55.6058 11.768H60.7535L63.1993 22.9166L65.6736 11.768Z" fill="#E4E4E7"/>
<path d="M82.1466 22.6037C82.8482 21.9212 83.1989 20.9542 83.1989 19.7028C83.1989 18.4515 82.8482 17.494 82.1466 16.8303C81.4451 16.1478 80.6393 15.8065 79.7292 15.8065C78.8191 15.8065 78.0133 16.1478 77.3118 16.8303C76.6102 17.5129 76.2595 18.4799 76.2595 19.7313C76.2595 20.9826 76.6102 21.9496 77.3118 22.6322C78.0133 23.2958 78.8191 23.6276 79.7292 23.6276C80.6393 23.6276 81.4451 23.2863 82.1466 22.6037ZM73.4154 25.5615C72.0124 24.0447 71.3108 22.1013 71.3108 19.7313C71.3108 17.3612 72.0124 15.4178 73.4154 13.901C74.8185 12.3652 76.5249 11.5973 78.5347 11.5973C80.5634 11.5973 82.1182 12.3463 83.1989 13.8441V11.768H88.0622V27.6377H83.1989V25.334C82.0234 27.0025 80.4497 27.8368 78.4778 27.8368C76.506 27.8368 74.8185 27.0784 73.4154 25.5615Z" fill="#E4E4E7"/>
<path d="M90.3159 11.768H95.4921L99.104 23.5707L102.716 11.768H107.892L102.261 27.6377H95.9471L90.3159 11.768Z" fill="#E4E4E7"/>
<path d="M116.879 27.8368C114.565 27.8368 112.669 27.0973 111.19 25.6184C109.712 24.1206 108.972 22.1392 108.972 19.6744C108.972 17.2096 109.702 15.2472 111.162 13.7872C112.641 12.3273 114.546 11.5973 116.879 11.5973C119.211 11.5973 121.145 12.3178 122.68 13.7588C124.216 15.1998 124.984 17.2001 124.984 19.7597C124.984 20.3096 124.946 20.8215 124.87 21.2955H113.949C114.044 21.997 114.357 22.5753 114.888 23.0304C115.419 23.4664 115.987 23.6845 116.594 23.6845C117.22 23.6845 117.684 23.6276 117.988 23.5138C118.291 23.3811 118.509 23.2579 118.642 23.1441C118.794 23.0114 118.983 22.8028 119.211 22.5184H124.472C124.017 24.1111 123.107 25.4004 121.742 26.3863C120.377 27.3533 118.756 27.8368 116.879 27.8368ZM119.922 18.2524C119.846 17.5129 119.524 16.9157 118.955 16.4606C118.386 15.9866 117.713 15.7496 116.935 15.7496C116.158 15.7496 115.504 15.9866 114.973 16.4606C114.442 16.9157 114.11 17.5129 113.978 18.2524H119.922Z" fill="#E4E4E7"/>
<path d="M132.971 11.768V14.7258C134.109 12.6401 135.626 11.5973 137.522 11.5973V16.5459H136.327C135.208 16.5459 134.365 16.8114 133.796 17.3423C133.246 17.8732 132.971 18.8022 132.971 20.1294V27.6377H128.108V11.768H132.971Z" fill="#E4E4E7"/>
<path d="M144.598 9.97622C144.049 10.5261 143.375 10.801 142.579 10.801C141.783 10.801 141.11 10.5261 140.56 9.97622C140.01 9.42637 139.735 8.75328 139.735 7.95695C139.735 7.14166 140.01 6.45909 140.56 5.90924C141.11 5.3594 141.783 5.08447 142.579 5.08447C143.375 5.08447 144.049 5.3594 144.598 5.90924C145.148 6.45909 145.423 7.14166 145.423 7.95695C145.423 8.75328 145.148 9.42637 144.598 9.97622ZM140.162 27.6377V11.768H145.025V27.6377H140.162Z" fill="#E4E4E7"/>
<path d="M158.827 22.6606C159.471 21.9781 159.794 20.9921 159.794 19.7028C159.794 18.4135 159.462 17.4371 158.798 16.7735C158.135 16.0909 157.348 15.7496 156.438 15.7496C155.528 15.7496 154.741 16.0909 154.077 16.7735C153.433 17.4371 153.11 18.4135 153.11 19.7028C153.11 20.9921 153.442 21.9781 154.106 22.6606C154.788 23.3432 155.585 23.6845 156.495 23.6845C157.405 23.6845 158.182 23.3432 158.827 22.6606ZM150.551 25.59C148.958 24.0921 148.162 22.1203 148.162 19.6744C148.162 17.2285 148.958 15.2756 150.551 13.8157C152.143 12.3368 154.115 11.5973 156.466 11.5973C158.817 11.5973 160.78 12.3368 162.353 13.8157C163.946 15.2756 164.742 17.2285 164.742 19.6744C164.742 22.1203 163.956 24.0921 162.382 25.59C160.808 27.0878 158.846 27.8368 156.495 27.8368C154.144 27.8368 152.162 27.0878 150.551 25.59Z" fill="#E4E4E7"/>
</svg>
