<svg width="188" height="40" viewBox="0 0 188 40" fill="none" xmlns="http://www.w3.org/2000/svg">
<path d="M21.8412 6.88515L23.3283 5.39808C26.2485 2.47785 31.0027 2.40557 33.9397 5.30897C35.0526 6.41157 35.7922 7.83508 36.0546 9.37956C36.3169 10.9241 36.0888 12.5119 35.4023 13.9201C35.0731 14.5928 34.9622 15.3515 35.0849 16.0903C35.2079 16.8291 35.5584 17.5111 36.0877 18.041C37.0609 17.0655 37.8323 15.9078 38.3579 14.634C38.8836 13.3603 39.1532 11.9955 39.1513 10.6175C39.1492 9.23957 38.8759 7.87551 38.3467 6.60326C37.8174 5.331 37.0426 4.17549 36.0666 3.20274C31.9597 -0.88102 25.2934 -0.799754 21.198 3.29548L7.02363 17.4694L5.85837 16.3042C2.88862 13.3344 2.86969 8.48007 5.89184 5.56309C7.0105 4.48669 8.4357 3.78401 9.97073 3.55207C11.5058 3.32013 13.0749 3.57035 14.4617 4.26819C15.0946 4.59255 15.8139 4.70857 16.5168 4.59972C17.2196 4.49086 17.8701 4.16268 18.3753 3.66204L18.4114 3.62609C18.4227 3.61492 18.4316 3.60163 18.4377 3.58699C18.4437 3.57236 18.4469 3.55666 18.4469 3.54081C18.4469 3.52496 18.4437 3.50926 18.4377 3.49463C18.4316 3.48 18.4227 3.46671 18.4114 3.45553C16.4605 1.55364 13.8462 0.485352 11.1216 0.476715C8.39711 0.46808 5.77606 1.51977 3.81314 3.40925C-0.415183 7.49111 -0.400074 14.2788 3.75578 18.4347L17.9259 32.6048L16.4207 34.1101C13.5004 37.0303 8.74609 37.1026 5.80923 34.1992C4.69634 33.0966 3.95678 31.673 3.69442 30.1286C3.43207 28.5842 3.66008 26.9963 4.34644 25.588C4.67573 24.9153 4.78671 24.1566 4.6639 23.4179C4.54106 22.6791 4.19054 21.997 3.66132 21.4672C2.6881 22.4427 1.91662 23.6003 1.39094 24.874C0.86527 26.1479 0.595714 27.5126 0.597667 28.8907C0.59962 30.2686 0.873045 31.6327 1.40233 32.9048C1.93161 34.1772 2.70638 35.3327 3.68235 36.3054C7.78907 40.3894 14.4556 40.3083 18.551 36.2129L32.7437 22.02L33.9134 23.1896C36.8336 26.1098 36.9059 30.864 34.0025 33.8009C32.8999 34.9139 31.4763 35.6534 29.9319 35.9159C28.3874 36.1782 26.7996 35.9501 25.3913 35.2637C24.7184 34.9342 23.9593 34.8231 23.2203 34.9462C22.4812 35.0692 21.799 35.4201 21.2691 35.9497C22.2447 36.923 23.4023 37.6946 24.676 38.2202C25.9498 38.7459 27.3145 39.0155 28.6926 39.0136C30.0705 39.0115 31.4346 38.738 32.7068 38.2087C33.9791 37.6795 35.1346 36.9047 36.1073 35.9287C40.1913 31.822 40.11 25.1555 36.0148 21.0603L21.8412 6.88515ZM20.0419 30.4879L9.14019 19.5862L19.7245 9.00208L30.6262 19.9038L20.0419 30.4879Z" fill="#E4E4E7"/>
<path d="M57.2486 32.3967C55.0793 32.3967 53.4209 31.7603 52.2734 30.4874C51.135 29.2144 50.4985 27.4754 50.364 25.2701L53.8063 24.4096C53.9766 27.8519 55.1241 29.573 57.2486 29.573C58.9698 29.573 59.8303 28.7124 59.8303 26.9913C59.8303 26.4803 59.7586 26.0097 59.6152 25.5794C59.4807 25.1402 59.2701 24.7412 58.9832 24.3827C58.6963 24.0151 58.4364 23.7238 58.2033 23.5086C57.9702 23.2845 57.652 23.0111 57.2486 22.6884L52.9457 19.2461C52.1569 18.6276 51.5249 17.8432 51.0498 16.893C50.5837 15.9338 50.3506 14.8447 50.3506 13.6255C50.3506 11.8506 50.9019 10.4387 52.0045 9.38988C53.1071 8.34106 54.5683 7.81665 56.388 7.81665C58.3423 7.81665 59.8931 8.29624 61.0405 9.25542C62.1969 10.2056 62.9096 11.5548 63.1785 13.3028C63.2054 13.491 63.2368 13.751 63.2726 14.0827L59.8303 14.9433C59.8214 14.7909 59.799 14.5623 59.7631 14.2575C59.6107 13.1639 59.2656 12.2898 58.7277 11.6354C58.1988 10.9721 57.4189 10.6404 56.388 10.6404C55.5633 10.6404 54.9269 10.8735 54.4786 11.3396C54.0304 11.7968 53.8063 12.4377 53.8063 13.2625C53.8063 14.6161 54.38 15.7501 55.5275 16.6644L59.8303 20.1067C62.1252 21.9623 63.2726 24.181 63.2726 26.7627C63.2726 28.5287 62.7258 29.9092 61.6322 30.9042C60.5475 31.8992 59.0863 32.3967 57.2486 32.3967Z" fill="#E4E4E7"/>
<path d="M70.4665 29.573C71.3719 29.573 72.2324 29.3399 73.0482 28.8738V18.2242C73.0123 18.2063 72.9227 18.1525 72.7793 18.0628C72.6358 17.9732 72.5327 17.9149 72.47 17.888C72.4162 17.8522 72.3221 17.7984 72.1876 17.7267C72.0531 17.655 71.9411 17.6057 71.8515 17.5788C71.7708 17.5429 71.6632 17.5071 71.5287 17.4712C71.4032 17.4264 71.2777 17.395 71.1522 17.3771C71.0357 17.3591 70.9102 17.3502 70.7757 17.3502C70.4889 17.3502 70.2334 17.4174 70.0093 17.5519C69.7941 17.6774 69.6149 17.8298 69.4714 18.0091C69.328 18.1883 69.2025 18.4438 69.0949 18.7755C68.9963 19.1072 68.9246 19.403 68.8798 19.663C68.835 19.914 68.7991 20.2546 68.7722 20.6849C68.7453 21.1062 68.7274 21.4334 68.7184 21.6665C68.7184 21.8996 68.7184 22.2268 68.7184 22.6481C68.7184 22.666 68.7184 22.6795 68.7184 22.6884C68.7184 22.8408 68.7184 23.0873 68.7184 23.428C68.7184 23.7686 68.7184 24.0958 68.7184 24.4096C68.7184 24.7233 68.7184 25.0191 68.7184 25.297C68.7274 25.8976 68.7543 26.4265 68.7991 26.8837C68.8529 27.3319 68.9381 27.7757 69.0546 28.2149C69.1801 28.6452 69.3594 28.9814 69.5924 29.2234C69.8345 29.4565 70.1258 29.573 70.4665 29.573ZM73.0482 37.3181V30.6084C72.5372 31.1373 72.0083 31.5676 71.4615 31.8992C70.9236 32.2309 70.3051 32.3967 69.6059 32.3967C68.9425 32.3967 68.3509 32.2309 67.831 31.8992C67.32 31.5586 66.9076 31.1238 66.5939 30.5949C66.2891 30.066 66.0336 29.443 65.8274 28.7259C65.6302 27.9998 65.4913 27.2871 65.4106 26.5879C65.3389 25.8887 65.303 25.1626 65.303 24.4096V21.7875C65.303 21.0076 65.3389 20.295 65.4106 19.6495C65.4823 19.0041 65.6123 18.3676 65.8006 17.7401C65.9888 17.1126 66.2353 16.5837 66.5401 16.1534C66.8539 15.7142 67.2662 15.3646 67.7772 15.1046C68.2881 14.8357 68.8798 14.7012 69.5521 14.7012C69.9376 14.7012 70.2961 14.755 70.6278 14.8626C70.9685 14.9612 71.2912 15.1226 71.596 15.3467C71.9097 15.5708 72.1518 15.768 72.3221 15.9383C72.5014 16.0997 72.7434 16.3417 73.0482 16.6644V14.9433H76.4905V37.3181H73.0482Z" fill="#E4E4E7"/>
<path d="M81.7077 32.3967C80.9547 32.3967 80.3496 32.1323 79.8924 31.6034C79.4352 31.0656 79.2067 30.4022 79.2067 29.6133V14.9433H82.6489V28.5645C82.6489 28.9231 82.7565 29.2144 82.9717 29.4385C83.1958 29.6626 83.4826 29.7747 83.8322 29.7747C84.0205 29.7747 84.2043 29.7523 84.3835 29.7075C84.5628 29.6626 84.7376 29.5864 84.9079 29.4789C85.0872 29.3623 85.2262 29.2727 85.3248 29.2099C85.4234 29.1382 85.5623 29.0217 85.7416 28.8603C85.9299 28.699 86.0464 28.6004 86.0912 28.5645V14.9433H89.5335V32.1547H86.0912V30.2991C85.7506 30.5949 85.4996 30.8101 85.3382 30.9445C85.1858 31.079 84.9483 31.2628 84.6256 31.4958C84.3029 31.7199 84.016 31.8858 83.765 31.9934C83.523 32.092 83.2182 32.1816 82.8506 32.2623C82.4831 32.3519 82.1021 32.3967 81.7077 32.3967Z" fill="#E4E4E7"/>
<path d="M97.2518 29.573C97.4938 29.573 97.7269 29.5013 97.951 29.3579C98.1841 29.2144 98.3589 29.0755 98.4754 28.941C98.5919 28.8065 98.7354 28.6273 98.9057 28.4032C98.9326 28.3583 98.955 28.327 98.9729 28.309V23.549C98.8295 23.6476 98.5919 23.8 98.2603 24.0062C97.9286 24.2123 97.6641 24.3827 97.4669 24.5171C97.2697 24.6426 97.0322 24.8219 96.7543 25.055C96.4764 25.2791 96.2612 25.4987 96.1088 25.7139C95.9564 25.92 95.822 26.1755 95.7054 26.4803C95.5889 26.7851 95.5306 27.1033 95.5306 27.435C95.5306 28.8603 96.1044 29.573 97.2518 29.573ZM95.5306 32.3967C94.5715 32.3967 93.7557 31.9844 93.0834 31.1597C92.42 30.326 92.0883 29.3892 92.0883 28.3494C92.0883 27.5157 92.2273 26.7582 92.5052 26.0769C92.792 25.3956 93.0924 24.8533 93.4061 24.4499C93.7199 24.0375 94.2443 23.6162 94.9793 23.1859C95.7144 22.7467 96.2702 22.4464 96.6467 22.285C97.0232 22.1237 97.6776 21.8592 98.6099 21.4917C98.7712 21.4289 98.8923 21.3796 98.9729 21.3438V20.1067C98.9729 19.2372 98.8519 18.5648 98.6099 18.0897C98.3678 17.6057 97.9151 17.3636 97.2518 17.3636C96.6601 17.3636 96.2343 17.5698 95.9744 17.9822C95.7234 18.3856 95.5799 18.9458 95.5441 19.663C95.5351 19.7616 95.5306 19.9095 95.5306 20.1067H92.0883C92.1063 18.4573 92.5679 17.144 93.4733 16.1669C94.3787 15.1898 95.6382 14.7012 97.2518 14.7012C98.8564 14.7012 100.116 15.1987 101.03 16.1938C101.954 17.1799 102.415 18.4842 102.415 20.1067V27.8519C102.415 29.6447 102.563 31.079 102.859 32.1547H99.4301L98.9729 29.573C98.7936 29.9316 98.6457 30.2095 98.5292 30.4067C98.4216 30.6039 98.2603 30.8504 98.0451 31.1462C97.83 31.4331 97.6148 31.6572 97.3997 31.8186C97.1846 31.9709 96.9156 32.1054 96.5929 32.2219C96.2702 32.3385 95.9161 32.3967 95.5306 32.3967Z" fill="#E4E4E7"/>
<path d="M105.387 32.1547V14.9433H108.829V17.2426C109.179 16.5613 109.685 15.9697 110.349 15.4677C111.021 14.9567 111.765 14.7012 112.581 14.7012C112.608 14.7012 112.791 14.7192 113.132 14.755V18.5604C112.496 18.3094 111.859 18.1839 111.223 18.1839C110.505 18.1839 109.927 18.399 109.488 18.8293C109.049 19.2596 108.829 19.8288 108.829 20.537V32.1547H105.387Z" fill="#E4E4E7"/>
<path d="M119.452 32.3967C118.618 32.3967 117.892 32.2533 117.274 31.9665C116.664 31.6796 116.175 31.3076 115.808 30.8504C115.449 30.3843 115.158 29.7926 114.934 29.0755C114.71 28.3494 114.553 27.6277 114.463 26.9106C114.383 26.1845 114.333 25.3418 114.315 24.3827C114.288 23.6297 114.288 22.8767 114.315 22.1237C114.342 21.2272 114.4 20.4339 114.49 19.7436C114.589 19.0444 114.755 18.3676 114.988 17.7132C115.221 17.0588 115.521 16.521 115.889 16.0997C116.265 15.6783 116.754 15.3422 117.354 15.0912C117.964 14.8312 118.672 14.7012 119.479 14.7012C120.214 14.7012 120.859 14.7998 121.415 14.9971C121.98 15.1853 122.446 15.4766 122.813 15.8711C123.19 16.2565 123.499 16.6868 123.741 17.1619C123.992 17.637 124.181 18.2152 124.306 18.8965C124.432 19.5688 124.517 20.2322 124.562 20.8866C124.615 21.541 124.642 22.294 124.642 23.1456V23.549H117.758V24.4096C117.758 24.5261 117.758 24.7099 117.758 24.9609C117.74 25.2925 117.735 25.6377 117.744 25.9962C117.762 26.3458 117.78 26.691 117.798 27.0316C117.816 27.3723 117.865 27.6995 117.946 28.0132C118.027 28.318 118.125 28.5869 118.242 28.82C118.358 29.0531 118.52 29.2368 118.726 29.3713C118.941 29.5058 119.192 29.573 119.479 29.573C119.837 29.573 120.133 29.5058 120.366 29.3713C120.599 29.2279 120.77 29.0172 120.877 28.7393C120.994 28.4614 121.074 28.1835 121.119 27.9056C121.164 27.6277 121.191 27.2781 121.2 26.8568V26.1307H124.615V26.8165C124.535 28.6542 124.082 30.0436 123.257 30.9849C122.432 31.9261 121.164 32.3967 119.452 32.3967ZM117.758 21.8278H121.173V20.7925C121.164 20.3353 121.137 19.9364 121.092 19.5957C121.048 19.2551 120.967 18.9144 120.85 18.5738C120.743 18.2332 120.572 17.9732 120.339 17.7939C120.106 17.6146 119.819 17.525 119.479 17.525C119.129 17.525 118.833 17.6191 118.591 17.8074C118.358 17.9956 118.183 18.269 118.067 18.6276C117.959 18.9772 117.883 19.3223 117.838 19.663C117.793 20.0036 117.767 20.4115 117.758 20.8866V21.8278Z" fill="#E4E4E7"/>
<path d="M133.571 32.3967C131.401 32.3967 129.743 31.7603 128.595 30.4874C127.457 29.2144 126.821 27.4754 126.686 25.2701L130.128 24.4096C130.299 27.8519 131.446 29.573 133.571 29.573C135.292 29.573 136.152 28.7124 136.152 26.9913C136.152 26.4803 136.081 26.0097 135.937 25.5794C135.803 25.1402 135.592 24.7412 135.305 24.3827C135.018 24.0151 134.758 23.7238 134.525 23.5086C134.292 23.2845 133.974 23.0111 133.571 22.6884L129.268 19.2461C128.479 18.6276 127.847 17.8432 127.372 16.893C126.906 15.9338 126.673 14.8447 126.673 13.6255C126.673 11.8506 127.224 10.4387 128.327 9.38988C129.429 8.34106 130.89 7.81665 132.71 7.81665C134.664 7.81665 136.215 8.29624 137.363 9.25542C138.519 10.2056 139.232 11.5548 139.501 13.3028C139.527 13.491 139.559 13.751 139.595 14.0827L136.152 14.9433C136.143 14.7909 136.121 14.5623 136.085 14.2575C135.933 13.1639 135.588 12.2898 135.05 11.6354C134.521 10.9721 133.741 10.6404 132.71 10.6404C131.885 10.6404 131.249 10.8735 130.801 11.3396C130.352 11.7968 130.128 12.4377 130.128 13.2625C130.128 14.6161 130.702 15.7501 131.849 16.6644L136.152 20.1067C138.447 21.9623 139.595 24.181 139.595 26.7627C139.595 28.5287 139.048 29.9092 137.954 30.9042C136.869 31.8992 135.408 32.3967 133.571 32.3967Z" fill="#E4E4E7"/>
<path d="M146.735 32.3967C145.381 32.3967 144.395 32.0516 143.776 31.3614C143.167 30.6711 142.853 29.6268 142.835 28.2284V17.525H141.114V14.9433H142.835V8.91926H146.278V14.9433H148.859V17.525H146.278V27.5695C146.278 28.2597 146.372 28.7662 146.56 29.0889C146.748 29.4116 147.129 29.573 147.703 29.573C147.954 29.573 148.339 29.5282 148.859 29.4385V32.2354C147.999 32.343 147.29 32.3967 146.735 32.3967Z" fill="#E4E4E7"/>
<path d="M160.074 30.7832C159.276 31.8589 157.954 32.3967 156.107 32.3967C154.26 32.3967 152.938 31.8589 152.14 30.7832C151.342 29.7075 150.943 28.1566 150.943 26.1307V20.9673C150.943 18.9413 151.342 17.3905 152.14 16.3148C152.938 15.2391 154.26 14.7012 156.107 14.7012C157.954 14.7012 159.276 15.2391 160.074 16.3148C160.871 17.3905 161.27 18.9413 161.27 20.9673V26.1307C161.27 28.1566 160.871 29.7075 160.074 30.7832ZM155.461 29.4654C155.65 29.5371 155.865 29.573 156.107 29.573C156.349 29.573 156.56 29.5371 156.739 29.4654C156.927 29.3937 157.079 29.3085 157.196 29.2099C157.322 29.1024 157.425 28.95 157.505 28.7528C157.586 28.5466 157.649 28.3673 157.694 28.2149C157.738 28.0625 157.77 27.8429 157.788 27.556C157.806 27.2692 157.815 27.0451 157.815 26.8837C157.824 26.7134 157.828 26.4624 157.828 26.1307V20.9673C157.828 20.6356 157.824 20.3891 157.815 20.2277C157.815 20.0574 157.806 19.8288 157.788 19.5419C157.77 19.2551 157.738 19.0355 157.694 18.8831C157.649 18.7307 157.586 18.5559 157.505 18.3587C157.425 18.1525 157.322 18.0001 157.196 17.9015C157.079 17.7939 156.927 17.7043 156.739 17.6326C156.56 17.5608 156.349 17.525 156.107 17.525C155.865 17.525 155.65 17.5608 155.461 17.6326C155.282 17.7043 155.13 17.7939 155.004 17.9015C154.888 18.0001 154.789 18.1525 154.708 18.3587C154.628 18.5559 154.565 18.7307 154.52 18.8831C154.475 19.0355 154.444 19.2551 154.426 19.5419C154.408 19.8288 154.395 20.0574 154.386 20.2277C154.386 20.3891 154.386 20.6356 154.386 20.9673V26.1307C154.386 26.4624 154.386 26.7134 154.386 26.8837C154.395 27.0451 154.408 27.2692 154.426 27.556C154.444 27.8429 154.475 28.0625 154.52 28.2149C154.565 28.3673 154.628 28.5466 154.708 28.7528C154.789 28.95 154.888 29.1024 155.004 29.2099C155.13 29.3085 155.282 29.3937 155.461 29.4654Z" fill="#E4E4E7"/>
<path d="M164.094 32.1547V14.9433H167.536V16.7989C168.047 16.3327 168.464 15.9786 168.787 15.7366C169.11 15.4856 169.553 15.2525 170.118 15.0374C170.692 14.8133 171.301 14.7012 171.947 14.7012C172.682 14.7012 173.278 14.9702 173.735 15.508C174.192 16.0459 174.421 16.7048 174.421 17.4846V32.1547H170.979V19.2461C170.979 18.6455 170.893 18.2108 170.723 17.9418C170.553 17.6639 170.208 17.525 169.688 17.525C169.392 17.525 169.096 17.5877 168.8 17.7132C168.513 17.8298 168.298 17.9418 168.155 18.0494C168.011 18.148 167.805 18.3094 167.536 18.5335V32.1547H164.094Z" fill="#E4E4E7"/>
<path d="M182.301 32.3967C181.467 32.3967 180.741 32.2533 180.122 31.9665C179.513 31.6796 179.024 31.3076 178.657 30.8504C178.298 30.3843 178.007 29.7926 177.783 29.0755C177.558 28.3494 177.402 27.6277 177.312 26.9106C177.231 26.1845 177.182 25.3418 177.164 24.3827C177.137 23.6297 177.137 22.8767 177.164 22.1237C177.191 21.2272 177.249 20.4339 177.339 19.7436C177.437 19.0444 177.603 18.3676 177.836 17.7132C178.069 17.0588 178.37 16.521 178.737 16.0997C179.114 15.6783 179.602 15.3422 180.203 15.0912C180.812 14.8312 181.521 14.7012 182.327 14.7012C183.063 14.7012 183.708 14.7998 184.264 14.9971C184.828 15.1853 185.295 15.4766 185.662 15.8711C186.039 16.2565 186.348 16.6868 186.59 17.1619C186.841 17.637 187.029 18.2152 187.155 18.8965C187.28 19.5688 187.365 20.2322 187.41 20.8866C187.464 21.541 187.491 22.294 187.491 23.1456V23.549H180.606V24.4096C180.606 24.5261 180.606 24.7099 180.606 24.9609C180.588 25.2925 180.584 25.6377 180.593 25.9962C180.611 26.3458 180.629 26.691 180.647 27.0316C180.665 27.3723 180.714 27.6995 180.795 28.0132C180.875 28.318 180.974 28.5869 181.09 28.82C181.207 29.0531 181.368 29.2368 181.574 29.3713C181.79 29.5058 182.041 29.573 182.327 29.573C182.686 29.573 182.982 29.5058 183.215 29.3713C183.448 29.2279 183.618 29.0172 183.726 28.7393C183.842 28.4614 183.923 28.1835 183.968 27.9056C184.013 27.6277 184.04 27.2781 184.049 26.8568V26.1307H187.464V26.8165C187.383 28.6542 186.931 30.0436 186.106 30.9849C185.281 31.9261 184.013 32.3967 182.301 32.3967ZM180.606 21.8278H184.022V20.7925C184.013 20.3353 183.986 19.9364 183.941 19.5957C183.896 19.2551 183.816 18.9144 183.699 18.5738C183.591 18.2332 183.421 17.9732 183.188 17.7939C182.955 17.6146 182.668 17.525 182.327 17.525C181.978 17.525 181.682 17.6191 181.44 17.8074C181.207 17.9956 181.032 18.269 180.916 18.6276C180.808 18.9772 180.732 19.3223 180.687 19.663C180.642 20.0036 180.615 20.4115 180.606 20.8866V21.8278Z" fill="#E4E4E7"/>
</svg>
