<svg width="188" height="38" viewBox="0 0 188 38" fill="none" xmlns="http://www.w3.org/2000/svg">
<path d="M5.6063 8.51983L7.77718 9.60527C8.17679 9.7798 8.61161 9.85845 9.04698 9.83489C9.48235 9.81134 9.90616 9.68624 10.2845 9.46959L12.3361 8.1345C12.6891 7.87828 12.9764 7.54206 13.1745 7.15342C13.3726 6.76478 13.4758 6.33473 13.4757 5.89849L13.3455 3.45083C13.298 3.01812 13.1495 2.60256 12.912 2.23774C12.6744 1.87292 12.3544 1.569 11.9778 1.3505L9.80695 0.237927C9.40816 0.061326 8.97334 -0.0188877 8.53775 0.00374373C8.10216 0.0263751 7.67797 0.1512 7.29959 0.36818L5.24816 1.70327C4.89577 1.96014 4.60889 2.29646 4.41091 2.68499C4.21287 3.07347 4.10921 3.50325 4.1084 3.93927L4.23865 6.38694C4.28082 6.82557 4.42687 7.2478 4.66468 7.6187C4.9025 7.98965 5.22531 8.29856 5.6063 8.51983Z" fill="#E4E4E7"/>
<path d="M18.7011 11.6894L16.5303 10.5769C16.1316 10.4024 15.6977 10.3238 15.2632 10.3473C14.8287 10.3709 14.4058 10.496 14.0283 10.7125L11.9551 12.0476C11.6041 12.3057 11.3181 12.6423 11.1202 13.0306C10.9223 13.4188 10.8179 13.8479 10.8154 14.2836L10.9457 16.7313C10.9932 17.1641 11.1417 17.5796 11.3793 17.9444C11.6169 18.3093 11.9368 18.6132 12.3133 18.8316L14.4842 19.9171C14.8821 20.0936 15.316 20.1739 15.7508 20.1512C16.1855 20.1286 16.6087 20.0037 16.9862 19.7868L19.0431 18.4517C19.3943 18.1925 19.6802 17.8549 19.878 17.4658C20.0759 17.0767 20.1803 16.6468 20.1828 16.2103L20.0525 13.7681C20.0028 13.3409 19.8549 12.931 19.6205 12.5704C19.386 12.2098 19.0714 11.9083 18.7011 11.6894Z" fill="#E4E4E7"/>
<path d="M25.3997 22.0119L23.2288 20.9265C22.83 20.7498 22.3952 20.6696 21.9596 20.6922C21.524 20.7149 21.0999 20.8397 20.7215 21.0567L18.67 22.3918C18.3183 22.6492 18.0319 22.9857 17.8339 23.3741C17.6359 23.7624 17.532 24.1919 17.5303 24.6278L17.6606 27.0755C17.7125 27.5012 17.862 27.9093 18.0973 28.2679C18.3326 28.6265 18.6475 28.926 19.0174 29.1432L21.1883 30.2287C21.5878 30.4032 22.0226 30.4818 22.458 30.4582C22.8934 30.4347 23.3172 30.3096 23.6956 30.093L25.7525 28.7579C26.1039 28.5004 26.3897 28.1638 26.5867 27.7754C26.7838 27.3869 26.8866 26.9575 26.8868 26.5219L26.7728 24.1176C26.726 23.6833 26.5772 23.2662 26.3386 22.9002C26.1 22.5343 25.7783 22.2299 25.3997 22.0119Z" fill="#E4E4E7"/>
<path d="M9.40533 15.9334L9.30221 14.0284C9.30471 13.5927 9.40907 13.1635 9.607 12.7753C9.80488 12.3871 10.0908 12.0505 10.4419 11.7924L14.4418 9.19278C14.8192 8.97624 15.2421 8.85114 15.6766 8.82759C16.1111 8.80403 16.5451 8.88267 16.9437 9.0571L18.6478 9.92545C19.0467 10.1021 19.4815 10.1823 19.917 10.1597C20.3527 10.1371 20.7768 10.0122 21.1552 9.7952L23.2067 8.45469C23.5588 8.19754 23.8454 7.86117 24.0433 7.47269C24.2413 7.08426 24.3451 6.6547 24.3464 6.21868L24.2161 3.77644C24.1695 3.34276 24.0213 2.92611 23.7837 2.56032C23.5461 2.19447 23.2257 1.88973 22.8485 1.67069L20.6776 0.558115C20.2781 0.38363 19.8432 0.30499 19.4078 0.328544C18.9724 0.352098 18.5486 0.477195 18.1702 0.693795L16.0753 2.00718C15.7239 2.26464 15.4381 2.60124 15.2411 2.98972C15.044 3.37819 14.9412 3.80759 14.9411 4.24318L15.0388 6.14813C15.0386 6.58377 14.9357 7.01317 14.7387 7.40165C14.5416 7.79012 14.2558 8.12672 13.9045 8.38413L9.90463 10.9838C9.52625 11.2007 9.10211 11.3256 8.66653 11.3482C8.23088 11.3709 7.79611 11.2906 7.39727 11.114L5.69855 10.2511C5.29971 10.0745 4.86494 9.99427 4.4293 10.0169C3.99371 10.0395 3.56957 10.1644 3.19119 10.3813L1.13971 11.7164C0.787322 11.9733 0.500496 12.3096 0.302458 12.6982C0.10442 13.0867 0.000814079 13.5164 0 13.9524L0.130252 16.4001C0.176491 16.834 0.324491 17.2508 0.562093 17.6167C0.79975 17.9826 1.12034 18.2872 1.49791 18.5059L3.66878 19.5913C4.06833 19.7658 4.50316 19.8445 4.93853 19.8209C5.3739 19.7974 5.79776 19.6723 6.17615 19.4556L8.22763 18.1205C8.58018 17.8723 8.87004 17.5455 9.07449 17.1659C9.27888 16.7863 9.39214 16.3643 9.40533 15.9334Z" fill="#E4E4E7"/>
<path d="M30.8917 14.0991C30.8433 13.6658 30.6945 13.2499 30.4571 12.8843C30.2197 12.5187 29.9002 12.2136 29.524 11.9933L27.3532 10.9079C26.9535 10.7338 26.5187 10.6553 26.0834 10.6789C25.6481 10.7024 25.2243 10.8273 24.8458 11.0435L22.7943 12.3786C22.4425 12.6361 22.1562 12.9725 21.9582 13.3609C21.7603 13.7493 21.6562 14.1787 21.6546 14.6146L21.7577 16.525C21.756 16.9609 21.6521 17.3903 21.4541 17.7787C21.2562 18.1671 20.9698 18.5036 20.618 18.761L16.6236 21.3552C16.2452 21.5718 15.8214 21.6969 15.386 21.7205C14.9506 21.744 14.5158 21.6654 14.1162 21.4909L12.412 20.6225C12.0134 20.4481 11.5795 20.3694 11.145 20.393C10.7105 20.4166 10.2876 20.5416 9.91011 20.7582L7.83692 22.0879C7.48584 22.346 7.19993 22.6825 7.002 23.0708C6.80413 23.459 6.69976 23.8881 6.69727 24.3239L6.82746 26.7715C6.87501 27.2043 7.02349 27.6198 7.26104 27.9846C7.49864 28.3495 7.81858 28.6534 8.19517 28.8719L10.366 29.9845C10.7639 30.161 11.1978 30.2412 11.6325 30.2186C12.0673 30.196 12.4905 30.0711 12.868 29.8542L14.9248 28.5191C15.2757 28.2607 15.5614 27.9241 15.7592 27.5359C15.9571 27.1477 16.0616 26.7188 16.0646 26.2831L15.9615 24.3727C15.9627 23.9367 16.0665 23.5072 16.2645 23.1187C16.4625 22.7303 16.7491 22.3939 17.1011 22.1367L21.0956 19.5371C21.4739 19.3201 21.8981 19.1952 22.3337 19.1726C22.7693 19.15 23.2041 19.2302 23.6029 19.4068L25.3016 20.2698C25.7005 20.4464 26.1353 20.5266 26.5709 20.504C27.0065 20.4813 27.4306 20.3565 27.809 20.1395L29.866 18.8044C30.217 18.5466 30.5026 18.21 30.6996 17.8216C30.8966 17.4332 30.9996 17.0039 31.0002 16.5684L30.8917 14.0991Z" fill="#E4E4E7"/>
<path d="M38.1797 4.31531H46.3157L50.1317 19.7593L53.9477 4.31531H62.4437L54.7037 29.0833H45.5237L38.1797 4.31531Z" fill="#E4E4E7"/>
<path d="M70.4312 29.3713C68.4152 29.3713 66.8432 28.7233 65.7152 27.4273C64.5872 26.1313 64.0232 24.3673 64.0232 22.1353V11.0473H71.6552V21.8113C71.6552 22.3633 71.7992 22.7953 72.0872 23.1073C72.3992 23.3953 72.7952 23.5393 73.2752 23.5393C73.7552 23.5393 74.2472 23.3953 74.7512 23.1073L75.1472 28.1113C74.6192 28.5193 73.9232 28.8313 73.0592 29.0473C72.2192 29.2633 71.3432 29.3713 70.4312 29.3713ZM67.8392 8.34731C66.7112 8.34731 65.7512 7.99931 64.9592 7.30331C64.1912 6.58331 63.8072 5.70731 63.8072 4.67531C63.8072 3.64331 64.2152 2.77931 65.0312 2.08331C65.8472 1.38731 66.7832 1.03931 67.8392 1.03931C68.9432 1.03931 69.8912 1.39931 70.6832 2.11931C71.4992 2.83931 71.9072 3.69131 71.9072 4.67531C71.9072 5.73131 71.4992 6.60731 70.6832 7.30331C69.8672 7.99931 68.9192 8.34731 67.8392 8.34731Z" fill="#E4E4E7"/>
<path d="M77.2436 11.2993H84.8396V14.9713C85.3916 13.5553 86.1356 12.5113 87.0716 11.8393C88.0316 11.1433 89.1476 10.7953 90.4196 10.7953L91.4636 16.6633C89.1836 16.6633 87.5036 16.9153 86.4236 17.4193C85.3676 17.8993 84.8396 18.6673 84.8396 19.7233V29.0833H77.2436V11.2993Z" fill="#E4E4E7"/>
<path d="M102.778 29.3713C100.762 29.3713 98.962 28.9753 97.378 28.1833C95.818 27.3913 94.594 26.2993 93.706 24.9073C92.842 23.4913 92.41 21.8713 92.41 20.0473C92.41 18.2233 92.854 16.6153 93.742 15.2233C94.63 13.8073 95.854 12.7153 97.414 11.9473C98.998 11.1793 100.798 10.7953 102.814 10.7953C104.854 10.7953 106.654 11.1913 108.214 11.9833C109.798 12.7513 111.022 13.8313 111.886 15.2233C112.75 16.6153 113.182 18.2233 113.182 20.0473C113.182 21.8953 112.738 23.5273 111.85 24.9433C110.986 26.3353 109.762 27.4273 108.178 28.2193C106.618 28.9873 104.818 29.3713 102.778 29.3713ZM102.85 23.9713C103.834 23.9713 104.638 23.6113 105.262 22.8913C105.91 22.1473 106.234 21.1993 106.234 20.0473C106.234 18.8953 105.91 17.9593 105.262 17.2393C104.638 16.4953 103.834 16.1233 102.85 16.1233C101.866 16.1233 101.05 16.4953 100.402 17.2393C99.778 17.9593 99.466 18.8953 99.466 20.0473C99.466 21.1993 99.778 22.1473 100.402 22.8913C101.05 23.6113 101.866 23.9713 102.85 23.9713Z" fill="#E4E4E7"/>
<path d="M126.068 37.3273C124.748 37.3273 123.488 37.1953 122.288 36.9313L122.864 31.6033C123.8 31.7473 124.664 31.8193 125.456 31.8193C126.944 31.8193 128.072 31.3753 128.84 30.4873C129.608 29.6233 130.064 28.1593 130.208 26.0953C128.792 28.0873 126.632 29.0833 123.728 29.0833C122.144 29.0833 120.68 28.6753 119.336 27.8593C118.016 27.0433 116.96 25.9393 116.168 24.5473C115.4 23.1553 115.016 21.6313 115.016 19.9753C115.016 18.2953 115.4 16.7593 116.168 15.3673C116.936 13.9513 117.98 12.8353 119.3 12.0193C120.644 11.2033 122.108 10.7953 123.692 10.7953C125.156 10.7953 126.428 11.1793 127.508 11.9473C128.612 12.6913 129.332 13.6993 129.668 14.9713V10.7953H137.264V24.5113C137.264 28.7113 136.304 31.8913 134.384 34.0513C132.488 36.2353 129.716 37.3273 126.068 37.3273ZM126.068 23.6833C127.028 23.6833 127.856 23.3473 128.552 22.6753C129.248 21.9793 129.62 21.1633 129.668 20.2273V19.9393C129.62 19.0273 129.236 18.2233 128.516 17.5273C127.82 16.8313 127.004 16.4833 126.068 16.4833C125.084 16.4833 124.244 16.8433 123.548 17.5633C122.852 18.2593 122.504 19.0993 122.504 20.0833C122.504 21.0673 122.852 21.9193 123.548 22.6393C124.244 23.3353 125.084 23.6833 126.068 23.6833Z" fill="#E4E4E7"/>
<path d="M148.868 29.3713C147.308 29.3713 145.844 28.9633 144.476 28.1473C143.132 27.3073 142.052 26.1793 141.236 24.7633C140.42 23.3233 140.012 21.7273 140.012 19.9753C140.012 18.2473 140.42 16.6873 141.236 15.2953C142.052 13.8793 143.144 12.7753 144.512 11.9833C145.88 11.1913 147.332 10.7953 148.868 10.7953C150.116 10.7953 151.268 11.1433 152.324 11.8393C153.404 12.5353 154.22 13.5793 154.772 14.9713V10.7953H162.332V29.0833H154.772V25.7353C153.572 28.1593 151.604 29.3713 148.868 29.3713ZM151.208 23.6833C152.168 23.6833 152.984 23.3473 153.656 22.6753C154.352 21.9793 154.724 21.1633 154.772 20.2273V19.9393C154.724 18.9793 154.34 18.1633 153.62 17.4913C152.924 16.8193 152.12 16.4833 151.208 16.4833C150.2 16.4833 149.336 16.8433 148.616 17.5633C147.92 18.2593 147.572 19.0993 147.572 20.0833C147.572 21.0913 147.932 21.9433 148.652 22.6393C149.372 23.3353 150.224 23.6833 151.208 23.6833Z" fill="#E4E4E7"/>
<path d="M165.978 11.2993H173.214V14.9713C174.606 12.1873 176.814 10.7953 179.838 10.7953C182.142 10.7953 183.942 11.6233 185.238 13.2793C186.558 14.9113 187.218 17.1793 187.218 20.0833V29.0833H179.658V19.3273C179.658 18.2953 179.43 17.5033 178.974 16.9513C178.542 16.3993 177.93 16.1233 177.138 16.1233C176.562 16.1233 175.998 16.3153 175.446 16.6993C174.894 17.0593 174.438 17.5873 174.078 18.2833C173.742 18.9793 173.574 19.7713 173.574 20.6593V29.0833H165.978V11.2993Z" fill="#E4E4E7"/>
</svg>
