<svg width="207" height="44" viewBox="0 0 207 44" fill="none" xmlns="http://www.w3.org/2000/svg">
<path d="M23.58 7.41416L25.2246 5.76955C28.4542 2.53995 33.712 2.46002 36.9602 5.671C38.191 6.89041 39.009 8.46473 39.2991 10.1728C39.5893 11.8809 39.337 13.637 38.5778 15.1944C38.2136 15.9384 38.091 16.7775 38.2267 17.5945C38.3627 18.4116 38.7504 19.1658 39.3357 19.7518C40.4121 18.673 41.2652 17.3926 41.8465 15.984C42.4278 14.5753 42.726 13.0658 42.7239 11.5419C42.7216 10.018 42.4194 8.50943 41.834 7.10241C41.2487 5.69536 40.3918 4.41744 39.3124 3.34164C34.7705 -1.17475 27.3979 -1.08487 22.8686 3.44421L7.19268 19.1197L5.90397 17.831C2.61961 14.5467 2.59867 9.17804 5.94098 5.95205C7.17815 4.76161 8.75433 3.98449 10.452 3.72798C12.1496 3.47146 13.885 3.7482 15.4187 4.51996C16.1187 4.87868 16.9142 5.007 17.6915 4.88661C18.4688 4.76622 19.1882 4.40327 19.7469 3.8496L19.7869 3.80984C19.7993 3.79749 19.8091 3.78279 19.8159 3.76659C19.8226 3.75042 19.8261 3.73305 19.8261 3.71552C19.8261 3.69799 19.8226 3.68063 19.8159 3.66445C19.8091 3.64828 19.7993 3.63358 19.7869 3.62121C17.6293 1.51783 14.738 0.336375 11.7248 0.326823C8.71166 0.317273 5.81293 1.48038 3.64207 3.57003C-1.0342 8.08431 -1.01749 15.5911 3.57863 20.1872L19.2499 35.8585L17.5852 37.5233C14.3556 40.7528 9.09761 40.8328 5.84962 37.6218C4.61884 36.4025 3.80093 34.828 3.51077 33.12C3.22063 31.4119 3.47279 29.6559 4.23187 28.0984C4.59604 27.3544 4.71878 26.5153 4.58295 25.6984C4.4471 24.8813 4.05945 24.127 3.47416 23.541C2.39784 24.6199 1.54463 25.9001 0.963265 27.3088C0.381903 28.7176 0.0837889 30.2269 0.0859492 31.7509C0.0881094 33.2748 0.390501 34.7834 0.975856 36.1903C1.56121 37.5975 2.41805 38.8754 3.49743 39.9512C8.0392 44.4678 15.4119 44.3781 19.9412 39.8488L35.6375 24.1523L36.9311 25.4459C40.1607 28.6755 40.2406 33.9333 37.0296 37.1813C35.8103 38.4123 34.2359 39.23 32.5278 39.5204C30.8197 39.8105 29.0637 39.5582 27.5062 38.7991C26.762 38.4347 25.9225 38.3118 25.1052 38.448C24.2878 38.584 23.5333 38.972 22.9473 39.5578C24.0262 40.6342 25.3065 41.4875 26.7151 42.0688C28.1239 42.6502 29.6332 42.9483 31.1573 42.9462C32.6811 42.9439 34.1898 42.6415 35.5967 42.0561C37.0038 41.4708 38.2817 40.6139 39.3575 39.5346C43.8741 34.9928 43.7842 27.62 39.2551 23.091L23.58 7.41416ZM21.5901 33.5173L9.53345 21.4607L21.239 9.75536L33.2957 21.812L21.5901 33.5173Z" fill="#52525B"/>
<path d="M62.7391 35.6284C60.34 35.6284 58.5059 34.9245 57.2369 33.5168C55.9778 32.109 55.2739 30.1857 55.1252 27.7468L58.9322 26.7951C59.1205 30.602 60.3895 32.5055 62.7391 32.5055C64.6426 32.5055 65.5944 31.5538 65.5944 29.6503C65.5944 29.0852 65.5151 28.5647 65.3564 28.0889C65.2077 27.6031 64.9747 27.1619 64.6575 26.7653C64.3403 26.3589 64.0527 26.0367 63.795 25.7987C63.5372 25.5509 63.1853 25.2485 62.7391 24.8916L57.9804 21.0846C57.108 20.4006 56.4091 19.5331 55.8836 18.4822C55.3681 17.4214 55.1104 16.2169 55.1104 14.8686C55.1104 12.9056 55.7201 11.3442 56.9395 10.1842C58.1589 9.0243 59.7749 8.44434 61.7874 8.44434C63.9487 8.44434 65.6638 8.97473 66.9328 10.0355C68.2117 11.0864 68.9998 12.5785 69.2972 14.5117C69.327 14.7199 69.3617 15.0074 69.4013 15.3742L65.5944 16.3259C65.5845 16.1574 65.5597 15.9046 65.52 15.5675C65.3515 14.358 64.9698 13.3914 64.375 12.6677C63.79 11.9341 62.9275 11.5672 61.7874 11.5672C60.8753 11.5672 60.1714 11.825 59.6757 12.3405C59.18 12.8461 58.9322 13.555 58.9322 14.4671C58.9322 15.9641 59.5667 17.2182 60.8357 18.2294L65.5944 22.0364C68.1323 24.0886 69.4013 26.5423 69.4013 29.3975C69.4013 31.3505 68.7966 32.8773 67.5871 33.9777C66.3875 35.0782 64.7715 35.6284 62.7391 35.6284Z" fill="#52525B"/>
<path d="M77.3573 32.5055C78.3586 32.5055 79.3103 32.2478 80.2125 31.7322V19.9544C80.1729 19.9346 80.0737 19.8751 79.9151 19.776C79.7565 19.6769 79.6425 19.6124 79.5731 19.5827C79.5136 19.543 79.4095 19.4835 79.2608 19.4042C79.1121 19.3249 78.9881 19.2704 78.889 19.2406C78.7998 19.201 78.6808 19.1613 78.5321 19.1217C78.3933 19.0721 78.2545 19.0374 78.1157 19.0176C77.9868 18.9978 77.848 18.9878 77.6993 18.9878C77.3821 18.9878 77.0995 19.0622 76.8517 19.2109C76.6137 19.3497 76.4155 19.5182 76.2568 19.7165C76.0982 19.9148 75.9594 20.1973 75.8405 20.5642C75.7314 20.931 75.6521 21.2581 75.6025 21.5456C75.5529 21.8232 75.5133 22.2 75.4835 22.6758C75.4538 23.1418 75.434 23.5036 75.4241 23.7614C75.4241 24.0192 75.4241 24.381 75.4241 24.847C75.4241 24.8668 75.4241 24.8817 75.4241 24.8916C75.4241 25.0601 75.4241 25.3328 75.4241 25.7095C75.4241 26.0862 75.4241 26.4481 75.4241 26.7951C75.4241 27.1421 75.4241 27.4692 75.4241 27.7766C75.434 28.4408 75.4637 29.0257 75.5133 29.5313C75.5728 30.027 75.667 30.5178 75.7958 31.0036C75.9346 31.4794 76.1329 31.8512 76.3907 32.1189C76.6584 32.3766 76.9806 32.5055 77.3573 32.5055ZM80.2125 41.0712V33.6506C79.6474 34.2355 79.0625 34.7114 78.4577 35.0782C77.8629 35.445 77.1788 35.6284 76.4055 35.6284C75.6719 35.6284 75.0176 35.445 74.4426 35.0782C73.8775 34.7015 73.4214 34.2206 73.0745 33.6357C72.7374 33.0508 72.4548 32.3618 72.2268 31.5687C72.0087 30.7656 71.855 29.9775 71.7658 29.2042C71.6865 28.4309 71.6468 27.6279 71.6468 26.7951V23.8952C71.6468 23.0327 71.6865 22.2446 71.7658 21.5308C71.8451 20.817 71.9889 20.1131 72.1971 19.4191C72.4053 18.7251 72.6779 18.1402 73.015 17.6643C73.362 17.1785 73.818 16.7919 74.3831 16.5044C74.9482 16.207 75.6025 16.0583 76.3461 16.0583C76.7724 16.0583 77.1689 16.1177 77.5357 16.2367C77.9125 16.3458 78.2694 16.5242 78.6064 16.7721C78.9534 17.0199 79.2211 17.238 79.4095 17.4264C79.6078 17.6048 79.8754 17.8725 80.2125 18.2294V16.3259H84.0195V41.0712H80.2125Z" fill="#52525B"/>
<path d="M89.7894 35.6284C88.9566 35.6284 88.2874 35.336 87.7818 34.751C87.2762 34.1562 87.0234 33.4226 87.0234 32.5501V16.3259H90.8304V31.3902C90.8304 31.7868 90.9493 32.109 91.1873 32.3568C91.4351 32.6047 91.7524 32.7286 92.139 32.7286C92.3472 32.7286 92.5504 32.7038 92.7487 32.6542C92.947 32.6047 93.1403 32.5204 93.3287 32.4014C93.527 32.2725 93.6806 32.1734 93.7897 32.104C93.8987 32.0247 94.0524 31.8958 94.2507 31.7174C94.4589 31.5389 94.5878 31.4299 94.6373 31.3902V16.3259H98.4443V35.3607H94.6373V33.3086C94.2606 33.6357 93.983 33.8737 93.8046 34.0224C93.636 34.1711 93.3733 34.3743 93.0164 34.6321C92.6595 34.8799 92.3422 35.0633 92.0647 35.1823C91.797 35.2913 91.4599 35.3905 91.0534 35.4797C90.647 35.5789 90.2256 35.6284 89.7894 35.6284Z" fill="#52525B"/>
<path d="M106.98 32.5055C107.248 32.5055 107.506 32.4262 107.753 32.2676C108.011 32.109 108.205 31.9553 108.333 31.8066C108.462 31.6579 108.621 31.4596 108.809 31.2118C108.839 31.1622 108.864 31.1275 108.884 31.1077V25.8433C108.725 25.9524 108.462 26.1209 108.096 26.349C107.729 26.577 107.436 26.7653 107.218 26.9141C107 27.0528 106.737 27.2511 106.43 27.5089C106.123 27.7567 105.885 27.9996 105.716 28.2376C105.548 28.4656 105.399 28.7481 105.27 29.0852C105.141 29.4223 105.077 29.7742 105.077 30.141C105.077 31.7174 105.711 32.5055 106.98 32.5055ZM105.077 35.6284C104.016 35.6284 103.114 35.1724 102.37 34.2603C101.637 33.3383 101.27 32.3023 101.27 31.1523C101.27 30.2303 101.423 29.3925 101.731 28.6391C102.048 27.8856 102.38 27.2858 102.727 26.8397C103.074 26.3837 103.654 25.9177 104.467 25.4418C105.28 24.956 105.895 24.6239 106.311 24.4455C106.727 24.267 107.451 23.9746 108.482 23.5681C108.661 23.4987 108.794 23.4442 108.884 23.4045V22.0364C108.884 21.0747 108.75 20.3312 108.482 19.8057C108.214 19.2704 107.714 19.0027 106.98 19.0027C106.326 19.0027 105.855 19.2307 105.567 19.6868C105.29 20.1329 105.131 20.7525 105.092 21.5456C105.082 21.6547 105.077 21.8183 105.077 22.0364H101.27C101.29 20.2122 101.8 18.7598 102.801 17.6792C103.803 16.5986 105.196 16.0583 106.98 16.0583C108.755 16.0583 110.148 16.6085 111.159 17.7089C112.18 18.7995 112.691 20.242 112.691 22.0364V30.602C112.691 32.5848 112.854 34.1711 113.181 35.3607H109.389L108.884 32.5055C108.685 32.9021 108.522 33.2094 108.393 33.4275C108.274 33.6456 108.096 33.9183 107.858 34.2454C107.62 34.5627 107.382 34.8105 107.144 34.989C106.906 35.1575 106.608 35.3062 106.252 35.4351C105.895 35.564 105.503 35.6284 105.077 35.6284Z" fill="#52525B"/>
<path d="M115.977 35.3607V16.3259H119.784V18.8689C120.171 18.1154 120.731 17.4611 121.465 16.9059C122.208 16.3408 123.031 16.0583 123.933 16.0583C123.963 16.0583 124.166 16.0781 124.543 16.1177V20.3262C123.839 20.0486 123.135 19.9098 122.431 19.9098C121.638 19.9098 120.999 20.1478 120.513 20.6236C120.027 21.0995 119.784 21.729 119.784 22.5123V35.3607H115.977Z" fill="#52525B"/>
<path d="M131.532 35.6284C130.61 35.6284 129.807 35.4698 129.123 35.1526C128.449 34.8353 127.909 34.4239 127.502 33.9183C127.106 33.4027 126.783 32.7484 126.535 31.9553C126.288 31.1523 126.114 30.3542 126.015 29.5611C125.926 28.758 125.871 27.8261 125.851 26.7653C125.822 25.9326 125.822 25.0998 125.851 24.267C125.881 23.2756 125.946 22.3982 126.045 21.6349C126.154 20.8616 126.337 20.1131 126.595 19.3894C126.853 18.6656 127.185 18.0708 127.591 17.6048C128.008 17.1389 128.548 16.7671 129.212 16.4895C129.886 16.202 130.67 16.0583 131.562 16.0583C132.375 16.0583 133.089 16.1673 133.703 16.3854C134.328 16.5936 134.843 16.9158 135.25 17.352C135.666 17.7783 136.008 18.2542 136.276 18.7796C136.554 19.3051 136.762 19.9445 136.901 20.698C137.039 21.4415 137.134 22.1752 137.183 22.8989C137.243 23.6226 137.272 24.4554 137.272 25.3972V25.8433H129.658V26.7951C129.658 26.924 129.658 27.1272 129.658 27.4048C129.639 27.7716 129.634 28.1533 129.644 28.5499C129.663 28.9365 129.683 29.3182 129.703 29.6949C129.723 30.0716 129.777 30.4335 129.867 30.7805C129.956 31.1176 130.065 31.415 130.194 31.6728C130.323 31.9305 130.501 32.1338 130.729 32.2825C130.967 32.4312 131.245 32.5055 131.562 32.5055C131.958 32.5055 132.286 32.4312 132.543 32.2825C132.801 32.1238 132.989 31.8909 133.108 31.5835C133.237 31.2762 133.327 30.9689 133.376 30.6615C133.426 30.3542 133.455 29.9676 133.465 29.5016V28.6986H137.243V29.457C137.153 31.4893 136.653 33.026 135.741 34.067C134.829 35.1079 133.426 35.6284 131.532 35.6284ZM129.658 23.9399H133.436V22.7948C133.426 22.2892 133.396 21.848 133.346 21.4713C133.297 21.0946 133.208 20.7178 133.079 20.3411C132.96 19.9644 132.771 19.6769 132.514 19.4786C132.256 19.2803 131.939 19.1812 131.562 19.1812C131.175 19.1812 130.848 19.2853 130.58 19.4934C130.323 19.7016 130.129 20.004 130 20.4006C129.881 20.7872 129.797 21.1689 129.748 21.5456C129.698 21.9224 129.668 22.3735 129.658 22.8989V23.9399Z" fill="#52525B"/>
<path d="M147.147 35.6284C144.747 35.6284 142.913 34.9245 141.644 33.5168C140.385 32.109 139.681 30.1857 139.533 27.7468L143.34 26.7951C143.528 30.602 144.797 32.5055 147.147 32.5055C149.05 32.5055 150.002 31.5538 150.002 29.6503C150.002 29.0852 149.923 28.5647 149.764 28.0889C149.615 27.6031 149.382 27.1619 149.065 26.7653C148.748 26.3589 148.46 26.0367 148.202 25.7987C147.945 25.5509 147.593 25.2485 147.147 24.8916L142.388 21.0846C141.516 20.4006 140.817 19.5331 140.291 18.4822C139.776 17.4214 139.518 16.2169 139.518 14.8686C139.518 12.9056 140.128 11.3442 141.347 10.1842C142.566 9.0243 144.182 8.44434 146.195 8.44434C148.356 8.44434 150.071 8.97473 151.34 10.0355C152.619 11.0864 153.407 12.5785 153.705 14.5117C153.734 14.7199 153.769 15.0074 153.809 15.3742L150.002 16.3259C149.992 16.1574 149.967 15.9046 149.927 15.5675C149.759 14.358 149.377 13.3914 148.782 12.6677C148.198 11.9341 147.335 11.5672 146.195 11.5672C145.283 11.5672 144.579 11.825 144.083 12.3405C143.588 12.8461 143.34 13.555 143.34 14.4671C143.34 15.9641 143.974 17.2182 145.243 18.2294L150.002 22.0364C152.54 24.0886 153.809 26.5423 153.809 29.3975C153.809 31.3505 153.204 32.8773 151.995 33.9777C150.795 35.0782 149.179 35.6284 147.147 35.6284Z" fill="#52525B"/>
<path d="M161.705 35.6284C160.208 35.6284 159.118 35.2467 158.434 34.4834C157.76 33.72 157.413 32.565 157.393 31.0184V19.1812H155.489V16.3259H157.393V9.66375H161.2V16.3259H164.055V19.1812H161.2V30.2898C161.2 31.0531 161.304 31.6133 161.512 31.9702C161.72 32.3271 162.142 32.5055 162.776 32.5055C163.054 32.5055 163.48 32.456 164.055 32.3568V35.45C163.103 35.5689 162.32 35.6284 161.705 35.6284Z" fill="#52525B"/>
<path d="M176.457 33.8439C175.575 35.0336 174.113 35.6284 172.07 35.6284C170.028 35.6284 168.566 35.0336 167.683 33.8439C166.801 32.6542 166.36 30.9391 166.36 28.6986V22.9881C166.36 20.7476 166.801 19.0324 167.683 17.8428C168.566 16.6531 170.028 16.0583 172.07 16.0583C174.113 16.0583 175.575 16.6531 176.457 17.8428C177.34 19.0324 177.781 20.7476 177.781 22.9881V28.6986C177.781 30.9391 177.34 32.6542 176.457 33.8439ZM171.357 32.3866C171.565 32.4659 171.803 32.5055 172.07 32.5055C172.338 32.5055 172.571 32.4659 172.769 32.3866C172.977 32.3072 173.146 32.2131 173.275 32.104C173.414 31.985 173.528 31.8165 173.617 31.5984C173.706 31.3704 173.776 31.1721 173.825 31.0036C173.875 30.835 173.909 30.5921 173.929 30.2749C173.949 29.9576 173.959 29.7098 173.959 29.5313C173.969 29.343 173.974 29.0654 173.974 28.6986V22.9881C173.974 22.6213 173.969 22.3487 173.959 22.1702C173.959 21.9819 173.949 21.729 173.929 21.4118C173.909 21.0946 173.875 20.8517 173.825 20.6831C173.776 20.5146 173.706 20.3213 173.617 20.1032C173.528 19.8751 173.414 19.7066 173.275 19.5975C173.146 19.4786 172.977 19.3794 172.769 19.3001C172.571 19.2208 172.338 19.1812 172.07 19.1812C171.803 19.1812 171.565 19.2208 171.357 19.3001C171.158 19.3794 170.99 19.4786 170.851 19.5975C170.722 19.7066 170.613 19.8751 170.524 20.1032C170.435 20.3213 170.365 20.5146 170.316 20.6831C170.266 20.8517 170.231 21.0946 170.211 21.4118C170.192 21.729 170.177 21.9819 170.167 22.1702C170.167 22.3487 170.167 22.6213 170.167 22.9881V28.6986C170.167 29.0654 170.167 29.343 170.167 29.5313C170.177 29.7098 170.192 29.9576 170.211 30.2749C170.231 30.5921 170.266 30.835 170.316 31.0036C170.365 31.1721 170.435 31.3704 170.524 31.5984C170.613 31.8165 170.722 31.985 170.851 32.104C170.99 32.2131 171.158 32.3072 171.357 32.3866Z" fill="#52525B"/>
<path d="M180.904 35.3607V16.3259H184.711V18.3781C185.276 17.8626 185.737 17.471 186.094 17.2033C186.451 16.9257 186.941 16.668 187.566 16.43C188.2 16.1822 188.875 16.0583 189.588 16.0583C190.401 16.0583 191.061 16.3557 191.566 16.9505C192.072 17.5454 192.325 18.274 192.325 19.1365V35.3607H188.518V21.0846C188.518 20.4204 188.423 19.9396 188.235 19.6422C188.047 19.3348 187.665 19.1812 187.09 19.1812C186.763 19.1812 186.436 19.2506 186.109 19.3894C185.791 19.5182 185.553 19.6422 185.395 19.7611C185.236 19.8702 185.008 20.0486 184.711 20.2965V35.3607H180.904Z" fill="#52525B"/>
<path d="M201.039 35.6284C200.117 35.6284 199.314 35.4698 198.63 35.1526C197.956 34.8353 197.415 34.4239 197.009 33.9183C196.612 33.4027 196.29 32.7484 196.042 31.9553C195.794 31.1523 195.621 30.3542 195.522 29.5611C195.433 28.758 195.378 27.8261 195.358 26.7653C195.328 25.9326 195.328 25.0998 195.358 24.267C195.388 23.2756 195.452 22.3982 195.552 21.6349C195.661 20.8616 195.844 20.1131 196.102 19.3894C196.36 18.6656 196.692 18.0708 197.098 17.6048C197.515 17.1389 198.055 16.7671 198.719 16.4895C199.393 16.202 200.176 16.0583 201.069 16.0583C201.882 16.0583 202.595 16.1673 203.21 16.3854C203.835 16.5936 204.35 16.9158 204.757 17.352C205.173 17.7783 205.515 18.2542 205.783 18.7796C206.06 19.3051 206.269 19.9445 206.407 20.698C206.546 21.4415 206.64 22.1752 206.69 22.8989C206.749 23.6226 206.779 24.4554 206.779 25.3972V25.8433H199.165V26.7951C199.165 26.924 199.165 27.1272 199.165 27.4048C199.145 27.7716 199.14 28.1533 199.15 28.5499C199.17 28.9365 199.19 29.3182 199.21 29.6949C199.23 30.0716 199.284 30.4335 199.373 30.7805C199.463 31.1176 199.572 31.415 199.701 31.6728C199.829 31.9305 200.008 32.1338 200.236 32.2825C200.474 32.4312 200.751 32.5055 201.069 32.5055C201.465 32.5055 201.792 32.4312 202.05 32.2825C202.308 32.1238 202.496 31.8909 202.615 31.5835C202.744 31.2762 202.833 30.9689 202.883 30.6615C202.933 30.3542 202.962 29.9676 202.972 29.5016V28.6986H206.749V29.457C206.66 31.4893 206.16 33.026 205.247 34.067C204.335 35.1079 202.933 35.6284 201.039 35.6284ZM199.165 23.9399H202.942V22.7948C202.933 22.2892 202.903 21.848 202.853 21.4713C202.804 21.0946 202.714 20.7178 202.586 20.3411C202.467 19.9644 202.278 19.6769 202.02 19.4786C201.763 19.2803 201.445 19.1812 201.069 19.1812C200.682 19.1812 200.355 19.2853 200.087 19.4934C199.829 19.7016 199.636 20.004 199.507 20.4006C199.388 20.7872 199.304 21.1689 199.254 21.5456C199.205 21.9224 199.175 22.3735 199.165 22.8989V23.9399Z" fill="#52525B"/>
</svg>
