<svg width="49" height="44" viewBox="0 0 49 44" fill="none" xmlns="http://www.w3.org/2000/svg">
<path d="M40.3889 36.034C39.5403 35.0873 38.8206 34.0309 38.2487 32.8929C37.3452 31.1091 36.0963 29.5255 34.5758 28.2355C33.0552 26.9455 31.2937 25.9749 29.395 25.3812C27.7347 24.8642 25.9973 24.6447 24.2617 24.7328C25.525 24.6601 26.7688 25.0709 27.744 25.8831C28.7192 26.6951 29.3538 27.8484 29.5204 29.1118C29.9771 31.8417 31.1783 34.3899 32.9898 36.4718C34.8013 38.5537 37.1518 40.0873 39.7786 40.9014C42.7824 41.8312 46.0012 41.7811 48.975 40.7582C45.6625 40.214 42.6335 38.5475 40.3889 36.034Z" fill="#52525B"/>
<path d="M19.0904 24.4626C19.4769 26.148 20.1568 27.7536 21.0995 29.2071C20.4111 28.1517 20.1462 26.8786 20.357 25.6389C20.5677 24.3991 21.2389 23.2827 22.2379 22.51C24.3599 20.7677 25.953 18.475 26.8398 15.8871C27.7266 13.2992 27.8722 10.5178 27.2606 7.85263C26.5623 4.80376 24.9061 2.05409 22.5309 0.000488281C23.7134 3.13811 23.7814 6.5825 22.7235 9.76374C22.3185 10.9647 21.7555 12.1074 21.0492 13.1622C19.9649 14.8191 19.2261 16.6751 18.8767 18.6204C18.5273 20.5656 18.5743 22.5607 19.0151 24.4875L19.0904 24.4626Z" fill="#52525B"/>
<path d="M26.492 30.3306C25.9307 31.4645 24.9681 32.3409 23.7973 32.784C22.6266 33.2271 21.3342 33.2041 20.1793 32.7197C17.6344 31.7508 14.8743 31.52 12.2076 32.0529C9.54084 32.5858 7.07253 33.8616 5.07846 35.7377C2.80482 37.8864 1.26172 40.7133 0.671875 43.8106C2.78758 41.2016 5.71592 39.4036 8.97327 38.7136C10.197 38.4592 11.4472 38.3606 12.6949 38.4202C14.652 38.5233 16.6095 38.2269 18.452 37.5488C20.2944 36.8706 21.9844 35.8244 23.4223 34.4718C24.6807 33.2846 25.7252 31.8831 26.5085 30.3306H26.492Z" fill="#52525B"/>
</svg>
