<svg width="183" height="41" viewBox="0 0 183 41" fill="none" xmlns="http://www.w3.org/2000/svg">
<path d="M34.9888 15.578L34.9643 15.5536C34.9623 15.5522 34.9608 15.5504 34.9598 15.5482L19.659 0.24707L4.35834 15.5478C4.35658 15.5496 4.35559 15.552 4.35382 15.5532L4.32857 15.5776C1.98889 17.9304 0.502788 20.9978 0.106512 24.2922C-0.289764 27.5867 0.426527 30.919 2.14151 33.7596C3.8565 36.6002 6.47176 38.7861 9.57158 39.9695C12.6714 41.1529 16.0778 41.2663 19.2494 40.2913C19.5163 40.2097 19.8015 40.2097 20.0684 40.2913C23.2398 41.2659 26.646 41.1525 29.7456 39.9689C32.8452 38.7853 35.4602 36.5996 37.1751 33.7592C38.89 30.9188 39.6063 27.5867 39.2102 24.2924C38.8141 20.9982 37.3282 17.9309 34.9888 15.578ZM9.79905 25.6679C9.72457 25.7424 9.6655 25.8309 9.62521 25.9281C9.58491 26.0253 9.56417 26.1296 9.56419 26.2349C9.59141 28.9354 10.3546 31.5773 11.7716 33.8764C11.8038 33.9285 11.8187 33.9896 11.8141 34.0506C11.8096 34.1117 11.7858 34.1698 11.7462 34.2166C11.7066 34.2634 11.6533 34.2964 11.5938 34.311C11.5343 34.3256 11.4716 34.3211 11.4149 34.298C10.3496 33.8499 9.38187 33.1985 8.56577 32.3804C6.89329 30.7076 5.95305 28.4394 5.95153 26.0739C5.95001 23.7084 6.88734 21.439 8.55769 19.7642L19.659 8.6639L30.7597 19.7642C32.4303 21.4388 33.368 23.7082 33.3664 26.0739C33.365 28.4394 32.4246 30.7076 30.752 32.3804C29.9359 33.1985 28.9682 33.8499 27.9031 34.298C27.8462 34.3211 27.7836 34.3256 27.7241 34.311C27.6647 34.2964 27.6113 34.2632 27.5716 34.2166C27.5321 34.1698 27.5082 34.1117 27.5036 34.0504C27.4991 33.9894 27.5139 33.9283 27.5461 33.8762C28.9635 31.5773 29.727 28.9354 29.7547 26.2349C29.7547 26.1296 29.7338 26.0253 29.6933 25.9279C29.6528 25.8305 29.5935 25.7422 29.5188 25.6677L24.2681 20.0983C24.2157 20.0546 24.15 20.0307 24.0818 20.0307C24.0138 20.0307 23.9478 20.0546 23.8957 20.0983C23.8433 20.1418 23.8082 20.2024 23.7959 20.2694C23.7837 20.3364 23.7953 20.4053 23.8289 20.4646C25.8682 24.1549 24.1146 29.4556 21.1902 32.3804L21.1748 32.3958C20.7712 32.7951 20.2263 33.0189 19.6586 33.0187C19.0908 33.0185 18.5461 32.7943 18.1427 32.3948L18.1285 32.3804C15.2031 29.4556 13.4504 24.1555 15.49 20.4654C15.5235 20.4061 15.5352 20.3372 15.523 20.2702C15.5108 20.2032 15.4755 20.1426 15.4233 20.0991C15.371 20.0554 15.3051 20.0315 15.2371 20.0315C15.169 20.0315 15.1031 20.0554 15.0508 20.0991L9.79905 25.6679Z" fill="#52525B"/>
<path d="M72.6312 13.0263H77.6952L72.4425 30.5772H66.655L64.2017 20.1977L61.7169 30.5772H55.9295L50.6768 13.0263H56.0553L58.7917 25.356L61.4967 13.0263H67.1898L69.8947 25.356L72.6312 13.0263Z" fill="#52525B"/>
<path d="M90.8493 25.01C91.6251 24.2551 92.0131 23.1857 92.0131 21.8018C92.0131 20.4178 91.6251 19.3589 90.8493 18.625C90.0734 17.8701 89.1823 17.4927 88.1758 17.4927C87.1692 17.4927 86.2781 17.8701 85.5022 18.625C84.7264 19.3799 84.3384 20.4493 84.3384 21.8332C84.3384 23.2172 84.7264 24.2866 85.5022 25.0415C86.2781 25.7754 87.1692 26.1423 88.1758 26.1423C89.1823 26.1423 90.0734 25.7649 90.8493 25.01ZM81.1931 28.2812C79.6414 26.6036 78.8656 24.4543 78.8656 21.8332C78.8656 19.2121 79.6414 17.0628 81.1931 15.3853C82.7448 13.6868 84.632 12.8376 86.8547 12.8376C89.0984 12.8376 90.8178 13.6658 92.0131 15.3224V13.0263H97.3916V30.5772H92.0131V28.0295C90.713 29.8748 88.9726 30.7974 86.7918 30.7974C84.611 30.7974 82.7448 29.9587 81.1931 28.2812Z" fill="#52525B"/>
<path d="M99.884 13.0263H105.609L109.603 26.0794L113.598 13.0263H119.322L113.094 30.5772H106.112L99.884 13.0263Z" fill="#52525B"/>
<path d="M129.261 30.7974C126.702 30.7974 124.606 29.9796 122.97 28.3441C121.334 26.6875 120.517 24.4963 120.517 21.7703C120.517 19.0444 121.324 16.8741 122.939 15.2595C124.574 13.6449 126.681 12.8376 129.261 12.8376C131.84 12.8376 133.979 13.6344 135.677 15.228C137.376 16.8217 138.225 19.0339 138.225 21.8647C138.225 22.4728 138.183 23.0389 138.099 23.5632H126.021C126.126 24.339 126.472 24.9786 127.059 25.4818C127.646 25.9641 128.275 26.2052 128.946 26.2052C129.638 26.2052 130.152 26.1423 130.487 26.0165C130.823 25.8697 131.064 25.7334 131.211 25.6076C131.379 25.4608 131.588 25.2302 131.84 24.9156H137.659C137.155 26.677 136.149 28.1029 134.639 29.1933C133.129 30.2627 131.337 30.7974 129.261 30.7974ZM132.626 20.1977C132.542 19.3799 132.186 18.7193 131.557 18.2161C130.928 17.6919 130.183 17.4298 129.324 17.4298C128.464 17.4298 127.74 17.6919 127.153 18.2161C126.566 18.7193 126.199 19.3799 126.052 20.1977H132.626Z" fill="#52525B"/>
<path d="M147.058 13.0263V16.2974C148.316 13.9909 149.994 12.8376 152.091 12.8376V18.3105H150.77C149.532 18.3105 148.599 18.604 147.97 19.1911C147.362 19.7783 147.058 20.8058 147.058 22.2736V30.5772H141.68V13.0263H147.058Z" fill="#52525B"/>
<path d="M159.917 11.0447C159.309 11.6528 158.565 11.9569 157.684 11.9569C156.803 11.9569 156.059 11.6528 155.451 11.0447C154.843 10.4366 154.539 9.69224 154.539 8.81155C154.539 7.90989 154.843 7.15501 155.451 6.54691C156.059 5.93881 156.803 5.63477 157.684 5.63477C158.565 5.63477 159.309 5.93881 159.917 6.54691C160.525 7.15501 160.829 7.90989 160.829 8.81155C160.829 9.69224 160.525 10.4366 159.917 11.0447ZM155.01 30.5772V13.0263H160.389V30.5772H155.01Z" fill="#52525B"/>
<path d="M175.653 25.0729C176.366 24.318 176.722 23.2277 176.722 21.8018C176.722 20.3759 176.355 19.296 175.621 18.5621C174.887 17.8072 174.017 17.4298 173.011 17.4298C172.004 17.4298 171.134 17.8072 170.4 18.5621C169.687 19.296 169.331 20.3759 169.331 21.8018C169.331 23.2277 169.698 24.318 170.432 25.0729C171.186 25.8278 172.067 26.2052 173.074 26.2052C174.08 26.2052 174.94 25.8278 175.653 25.0729ZM166.5 28.3126C164.739 26.6561 163.858 24.4753 163.858 21.7703C163.858 19.0653 164.739 16.9055 166.5 15.2909C168.261 13.6554 170.442 12.8376 173.042 12.8376C175.642 12.8376 177.813 13.6554 179.553 15.2909C181.314 16.9055 182.195 19.0653 182.195 21.7703C182.195 24.4753 181.325 26.6561 179.585 28.3126C177.844 29.9692 175.674 30.7974 173.074 30.7974C170.474 30.7974 168.282 29.9692 166.5 28.3126Z" fill="#52525B"/>
</svg>
