<svg width="43" height="39" viewBox="0 0 43 39" fill="none" xmlns="http://www.w3.org/2000/svg">
<path d="M35.3566 32.0772C34.6011 31.2345 33.9604 30.2941 33.4513 29.281C32.647 27.6931 31.5352 26.2834 30.1816 25.135C28.828 23.9866 27.2599 23.1226 25.5697 22.5941C24.0917 22.1338 22.5451 21.9385 21 22.0169C22.1246 21.9522 23.2319 22.3179 24.1 23.0408C24.9681 23.7637 25.533 24.7904 25.6813 25.9151C26.0879 28.3452 27.1572 30.6137 28.7698 32.467C30.3824 34.3204 32.4748 35.6855 34.8133 36.4102C37.4873 37.238 40.3526 37.1934 43 36.2828C40.0511 35.7984 37.3547 34.3148 35.3566 32.0772Z" fill="#414042"/>
<path d="M16.3961 21.7764C16.7401 23.2768 17.3454 24.7061 18.1845 26C17.5718 25.0604 17.3359 23.9271 17.5235 22.8235C17.7111 21.7198 18.3086 20.726 19.198 20.0381C21.087 18.4871 22.5052 16.4461 23.2947 14.1424C24.0841 11.8386 24.2137 9.36259 23.6692 6.99004C23.0476 4.27591 21.5733 1.82814 19.4588 0C20.5115 2.79313 20.572 5.85936 19.6302 8.69132C19.2697 9.76047 18.7685 10.7777 18.1398 11.7166C17.1745 13.1917 16.5169 14.8439 16.2058 16.5756C15.8948 18.3073 15.9366 20.0832 16.329 21.7986L16.3961 21.7764Z" fill="#414042"/>
<path d="M22.9853 27C22.4856 28.0094 21.6287 28.7896 20.5864 29.184C19.5443 29.5785 18.3938 29.5581 17.3657 29.1269C15.1002 28.2643 12.6431 28.0588 10.2692 28.5332C7.89522 29.0076 5.69792 30.1434 3.92278 31.8134C1.89877 33.7263 0.525085 36.2428 0 39C1.88341 36.6775 4.49025 35.0769 7.38997 34.4627C8.47937 34.2362 9.59227 34.1484 10.703 34.2015C12.4452 34.2932 14.1878 34.0294 15.828 33.4257C17.4681 32.822 18.9726 31.8907 20.2526 30.6866C21.3729 29.6297 22.3027 28.3821 23 27H22.9853Z" fill="#414042"/>
</svg>
