<svg width="184" height="39" viewBox="0 0 184 39" fill="none" xmlns="http://www.w3.org/2000/svg">
<path d="M20.9146 6.59971L22.3787 5.13566C25.2537 2.26065 29.9342 2.18949 32.8258 5.04794C33.9214 6.13346 34.6496 7.53494 34.9079 9.0555C35.1662 10.5761 34.9416 12.1394 34.2658 13.5257C33.9416 14.188 33.8324 14.935 33.9533 15.6624C34.0743 16.3897 34.4194 17.0611 34.9405 17.5828C35.8987 16.6224 36.6581 15.4826 37.1756 14.2286C37.6931 12.9746 37.9585 11.6309 37.9567 10.2743C37.9546 8.91768 37.6856 7.57473 37.1645 6.32219C36.6434 5.06962 35.8806 3.93201 34.9198 2.97432C30.8764 -1.04621 24.3134 -0.966199 20.2813 3.06562L6.32648 17.0201L5.17926 15.8729C2.25549 12.9491 2.23686 8.16993 5.2122 5.29812C6.31354 4.23839 7.71667 3.54659 9.22794 3.31824C10.7392 3.08989 12.2841 3.33624 13.6494 4.02327C14.2725 4.34261 14.9806 4.45684 15.6726 4.34967C16.3646 4.24249 17.005 3.91939 17.5023 3.42651L17.5379 3.39112C17.549 3.38012 17.5578 3.36704 17.5638 3.35262C17.5698 3.33822 17.5728 3.32276 17.5728 3.30715C17.5728 3.29155 17.5698 3.27609 17.5638 3.26169C17.5578 3.24729 17.549 3.23421 17.5379 3.22319C15.6172 1.35075 13.0434 0.299009 10.361 0.290505C7.67868 0.282004 5.09822 1.31741 3.1657 3.17764C-0.997157 7.19629 -0.982281 13.8789 3.10922 17.9704L17.0599 31.9211L15.578 33.4031C12.703 36.2781 8.02227 36.3492 5.13088 33.4908C4.03522 32.4053 3.30712 31.0038 3.04881 29.4833C2.79053 27.9627 3.015 26.3995 3.69074 25.013C4.01493 24.3507 4.12419 23.6037 4.00328 22.8765C3.88234 22.1491 3.53726 21.4776 3.01623 20.9559C2.05807 21.9164 1.29854 23.0561 0.781004 24.31C0.26347 25.5642 -0.00191266 26.9078 1.03767e-05 28.2645C0.00193342 29.6211 0.271125 30.9641 0.792213 32.2165C1.3133 33.4691 2.07607 34.6068 3.03693 35.5644C7.08006 39.5851 13.6433 39.5053 17.6753 35.4733L31.6483 21.5002L32.7998 22.6517C35.6748 25.5267 35.746 30.2073 32.8876 33.0987C31.8021 34.1945 30.4005 34.9225 28.88 35.1809C27.3595 35.4392 25.7962 35.2146 24.4097 34.5388C23.7473 34.2144 22.9999 34.1051 22.2723 34.2263C21.5447 34.3473 20.873 34.6928 20.3514 35.2143C21.3118 36.1725 22.4515 36.9321 23.7055 37.4496C24.9596 37.9671 26.3032 38.2325 27.6599 38.2306C29.0165 38.2286 30.3595 37.9594 31.6119 37.4383C32.8646 36.9172 34.0022 36.1544 34.9599 35.1935C38.9806 31.1504 38.9006 24.5872 34.8687 20.5553L20.9146 6.59971ZM19.1432 29.837L8.41026 19.1041L18.8307 8.68387L29.5636 19.4168L19.1432 29.837Z" fill="#18CDCA"/>
<path d="M55.7744 31.7163C53.6386 31.7163 52.0059 31.0897 50.8762 29.8365C49.7554 28.5833 49.1288 26.8711 48.9964 24.7001L52.3854 23.8528C52.5531 27.2418 53.6827 28.9363 55.7744 28.9363C57.4689 28.9363 58.3161 28.0891 58.3161 26.3946C58.3161 25.8915 58.2455 25.4282 58.1043 25.0046C57.9719 24.5721 57.7645 24.1794 57.4821 23.8264C57.1997 23.4645 56.9437 23.1777 56.7143 22.9659C56.4848 22.7452 56.1715 22.4761 55.7744 22.1583L51.5381 18.7693C50.7615 18.1604 50.1393 17.3882 49.6715 16.4527C49.2126 15.5083 48.9832 14.436 48.9832 13.2358C48.9832 11.4883 49.5259 10.0983 50.6115 9.06572C51.697 8.03314 53.1355 7.51685 54.9271 7.51685C56.8511 7.51685 58.3779 7.98901 59.5076 8.93334C60.646 9.86884 61.3477 11.1971 61.6124 12.918C61.6389 13.1034 61.6698 13.3593 61.7051 13.6859L58.3161 14.5331C58.3073 14.3831 58.2852 14.158 58.2499 13.858C58.0999 12.7813 57.7601 11.9208 57.2306 11.2765C56.7099 10.6234 55.9421 10.2969 54.9271 10.2969C54.1152 10.2969 53.4886 10.5263 53.0473 10.9853C52.606 11.4354 52.3854 12.0664 52.3854 12.8783C52.3854 14.211 52.9502 15.3274 54.0799 16.2276L58.3161 19.6166C60.5754 21.4435 61.7051 23.6278 61.7051 26.1695C61.7051 27.9081 61.1667 29.2673 60.09 30.2469C59.0222 31.2265 57.5836 31.7163 55.7744 31.7163Z" fill="#134E4A"/>
<path d="M68.7876 28.9363C69.6789 28.9363 70.5262 28.7068 71.3293 28.2479V17.7632C71.294 17.7456 71.2057 17.6926 71.0645 17.6044C70.9233 17.5161 70.8218 17.4588 70.7601 17.4323C70.7071 17.397 70.6144 17.344 70.482 17.2734C70.3497 17.2028 70.2393 17.1543 70.1511 17.1278C70.0717 17.0925 69.9658 17.0572 69.8334 17.0219C69.7098 16.9778 69.5863 16.9469 69.4627 16.9292C69.348 16.9116 69.2244 16.9028 69.092 16.9028C68.8096 16.9028 68.5581 16.9689 68.3375 17.1013C68.1256 17.2249 67.9491 17.3749 67.8079 17.5514C67.6667 17.7279 67.5432 17.9795 67.4373 18.306C67.3402 18.6326 67.2696 18.9238 67.2254 19.1797C67.1813 19.4268 67.146 19.7622 67.1195 20.1858C67.0931 20.6006 67.0754 20.9228 67.0666 21.1522C67.0666 21.3817 67.0666 21.7038 67.0666 22.1186C67.0666 22.1363 67.0666 22.1495 67.0666 22.1583C67.0666 22.3084 67.0666 22.5511 67.0666 22.8864C67.0666 23.2218 67.0666 23.5439 67.0666 23.8528C67.0666 24.1617 67.0666 24.453 67.0666 24.7266C67.0754 25.3179 67.1019 25.8386 67.146 26.2887C67.199 26.7299 67.2828 27.1668 67.3975 27.5992C67.5211 28.0229 67.6976 28.3538 67.9271 28.5921C68.1654 28.8216 68.4522 28.9363 68.7876 28.9363ZM71.3293 36.5615V29.9557C70.8262 30.4764 70.3055 30.9 69.7672 31.2265C69.2377 31.5531 68.6287 31.7163 67.9403 31.7163C67.2872 31.7163 66.7047 31.5531 66.1929 31.2265C65.6898 30.8912 65.2838 30.4631 64.9749 29.9424C64.6749 29.4217 64.4234 28.8083 64.2204 28.1023C64.0262 27.3874 63.8894 26.6858 63.81 25.9974C63.7394 25.309 63.7041 24.5942 63.7041 23.8528V21.2714C63.7041 20.5036 63.7394 19.8019 63.81 19.1665C63.8806 18.5311 64.0086 17.9044 64.1939 17.2867C64.3792 16.6689 64.6219 16.1482 64.922 15.7246C65.2309 15.2921 65.6369 14.9479 66.1399 14.692C66.643 14.4272 67.2254 14.2948 67.8874 14.2948C68.2669 14.2948 68.6199 14.3478 68.9464 14.4537C69.2818 14.5508 69.5995 14.7096 69.8996 14.9303C70.2085 15.1509 70.4467 15.3451 70.6144 15.5127C70.7909 15.6716 71.0292 15.9099 71.3293 16.2276V14.5331H74.7183V36.5615H71.3293Z" fill="#134E4A"/>
<path d="M79.8547 31.7163C79.1134 31.7163 78.5177 31.456 78.0676 30.9353C77.6175 30.4058 77.3924 29.7527 77.3924 28.976V14.5331H80.7814V27.9434C80.7814 28.2965 80.8873 28.5833 81.0991 28.8039C81.3198 29.0246 81.6022 29.1349 81.9464 29.1349C82.1317 29.1349 82.3126 29.1128 82.4891 29.0687C82.6656 29.0246 82.8377 28.9495 83.0054 28.8436C83.1819 28.7289 83.3187 28.6407 83.4158 28.5789C83.5129 28.5083 83.6497 28.3935 83.8262 28.2347C84.0115 28.0758 84.1263 27.9787 84.1704 27.9434V14.5331H87.5594V31.4781H84.1704V29.6512C83.835 29.9424 83.5879 30.1542 83.429 30.2866C83.279 30.419 83.0451 30.5999 82.7274 30.8294C82.4097 31.05 82.1273 31.2133 81.8802 31.3192C81.6419 31.4163 81.3418 31.5045 80.98 31.584C80.6181 31.6722 80.243 31.7163 79.8547 31.7163Z" fill="#134E4A"/>
<path d="M95.1581 28.9363C95.3964 28.9363 95.6259 28.8657 95.8465 28.7245C96.076 28.5833 96.2481 28.4465 96.3628 28.3141C96.4775 28.1817 96.6187 28.0052 96.7864 27.7846C96.8129 27.7405 96.835 27.7096 96.8526 27.6919V23.0056C96.7114 23.1027 96.4775 23.2527 96.151 23.4557C95.8244 23.6587 95.5641 23.8264 95.3699 23.9587C95.1758 24.0823 94.9419 24.2588 94.6683 24.4883C94.3947 24.7089 94.1829 24.9251 94.0329 25.1369C93.8828 25.3399 93.7505 25.5914 93.6357 25.8915C93.521 26.1916 93.4636 26.5049 93.4636 26.8314C93.4636 28.2347 94.0285 28.9363 95.1581 28.9363ZM93.4636 31.7163C92.5193 31.7163 91.7162 31.3104 91.0543 30.4984C90.4012 29.6777 90.0746 28.7554 90.0746 27.7316C90.0746 26.9109 90.2114 26.1651 90.485 25.4944C90.7674 24.8236 91.0631 24.2897 91.372 23.8925C91.6809 23.4866 92.1972 23.0718 92.9209 22.6481C93.6446 22.2157 94.1917 21.92 94.5624 21.7612C94.9331 21.6023 95.5773 21.342 96.4952 20.9801C96.654 20.9184 96.7732 20.8698 96.8526 20.8345V19.6166C96.8526 18.7605 96.7335 18.0986 96.4952 17.6309C96.2569 17.1543 95.8112 16.916 95.1581 16.916C94.5756 16.916 94.1564 17.119 93.9005 17.525C93.6534 17.9221 93.5122 18.4737 93.4769 19.1797C93.468 19.2768 93.4636 19.4224 93.4636 19.6166H90.0746C90.0923 17.9927 90.5468 16.6998 91.4382 15.7378C92.3296 14.7758 93.5695 14.2948 95.1581 14.2948C96.7379 14.2948 97.9779 14.7846 98.8781 15.7643C99.7871 16.7351 100.242 18.0192 100.242 19.6166V27.2418C100.242 29.0069 100.387 30.419 100.678 31.4781H97.3027L96.8526 28.9363C96.6761 29.2893 96.5305 29.5629 96.4158 29.7571C96.3098 29.9512 96.151 30.1939 95.9392 30.4852C95.7274 30.7676 95.5156 30.9882 95.3037 31.1471C95.0919 31.2971 94.8272 31.4295 94.5094 31.5442C94.1917 31.659 93.8431 31.7163 93.4636 31.7163Z" fill="#134E4A"/>
<path d="M103.167 31.4781V14.5331H106.556V16.7968C106.9 16.1261 107.399 15.5436 108.052 15.0494C108.714 14.5463 109.447 14.2948 110.25 14.2948C110.276 14.2948 110.457 14.3125 110.792 14.3478V18.0942C110.166 17.8471 109.539 17.7235 108.913 17.7235C108.207 17.7235 107.637 17.9353 107.205 18.359C106.772 18.7826 106.556 19.343 106.556 20.0402V31.4781H103.167Z" fill="#134E4A"/>
<path d="M117.014 31.7163C116.194 31.7163 115.479 31.5751 114.87 31.2927C114.27 31.0103 113.789 30.644 113.427 30.1939C113.074 29.735 112.787 29.1525 112.566 28.4465C112.346 27.7316 112.191 27.0212 112.103 26.3151C112.024 25.6003 111.975 24.7707 111.957 23.8264C111.931 23.085 111.931 22.3437 111.957 21.6023C111.984 20.7198 112.041 19.9387 112.13 19.2592C112.227 18.5708 112.39 17.9044 112.619 17.2602C112.849 16.6159 113.144 16.0864 113.506 15.6716C113.877 15.2568 114.358 14.9258 114.949 14.6787C115.549 14.4228 116.247 14.2948 117.041 14.2948C117.765 14.2948 118.4 14.3919 118.947 14.5861C119.503 14.7714 119.962 15.0582 120.324 15.4465C120.695 15.826 120.999 16.2497 121.237 16.7174C121.485 17.1852 121.67 17.7544 121.793 18.4252C121.917 19.0871 122.001 19.7401 122.045 20.3844C122.098 21.0287 122.124 21.77 122.124 22.6084V23.0056H115.346V23.8528C115.346 23.9676 115.346 24.1485 115.346 24.3956C115.329 24.7221 115.324 25.0619 115.333 25.4149C115.351 25.7591 115.368 26.0989 115.386 26.4343C115.404 26.7697 115.452 27.0918 115.532 27.4007C115.611 27.7007 115.708 27.9655 115.823 28.195C115.938 28.4244 116.097 28.6054 116.3 28.7377C116.511 28.8701 116.759 28.9363 117.041 28.9363C117.394 28.9363 117.685 28.8701 117.915 28.7377C118.144 28.5965 118.312 28.3891 118.418 28.1155C118.532 27.8419 118.612 27.5684 118.656 27.2948C118.7 27.0212 118.727 26.677 118.735 26.2622V25.5473H122.098V26.2225C122.019 28.0317 121.573 29.3996 120.761 30.3263C119.949 31.253 118.7 31.7163 117.014 31.7163ZM115.346 21.3111H118.709V20.2917C118.7 19.8416 118.674 19.4489 118.63 19.1135C118.585 18.7782 118.506 18.4428 118.391 18.1074C118.285 17.7721 118.118 17.5161 117.888 17.3396C117.659 17.1631 117.376 17.0749 117.041 17.0749C116.697 17.0749 116.405 17.1675 116.167 17.3529C115.938 17.5382 115.766 17.8074 115.651 18.1604C115.545 18.5046 115.47 18.8444 115.426 19.1797C115.382 19.5151 115.355 19.9167 115.346 20.3844V21.3111Z" fill="#134E4A"/>
<path d="M130.915 31.7163C128.779 31.7163 127.146 31.0897 126.016 29.8365C124.896 28.5833 124.269 26.8711 124.137 24.7001L127.526 23.8528C127.693 27.2418 128.823 28.9363 130.915 28.9363C132.609 28.9363 133.456 28.0891 133.456 26.3946C133.456 25.8915 133.386 25.4282 133.245 25.0046C133.112 24.5721 132.905 24.1794 132.622 23.8264C132.34 23.4645 132.084 23.1777 131.855 22.9659C131.625 22.7452 131.312 22.4761 130.915 22.1583L126.678 18.7693C125.902 18.1604 125.28 17.3882 124.812 16.4527C124.353 15.5083 124.123 14.436 124.123 13.2358C124.123 11.4883 124.666 10.0983 125.752 9.06572C126.837 8.03314 128.276 7.51685 130.067 7.51685C131.991 7.51685 133.518 7.98901 134.648 8.93334C135.786 9.86884 136.488 11.1971 136.753 12.918C136.779 13.1034 136.81 13.3593 136.845 13.6859L133.456 14.5331C133.448 14.3831 133.425 14.158 133.39 13.858C133.24 12.7813 132.9 11.9208 132.371 11.2765C131.85 10.6234 131.082 10.2969 130.067 10.2969C129.255 10.2969 128.629 10.5263 128.188 10.9853C127.746 11.4354 127.526 12.0664 127.526 12.8783C127.526 14.211 128.09 15.3274 129.22 16.2276L133.456 19.6166C135.716 21.4435 136.845 23.6278 136.845 26.1695C136.845 27.9081 136.307 29.2673 135.23 30.2469C134.162 31.2265 132.724 31.7163 130.915 31.7163Z" fill="#134E4A"/>
<path d="M143.875 31.7163C142.542 31.7163 141.571 31.3766 140.962 30.697C140.362 30.0174 140.053 28.9893 140.036 27.6125V17.0749H138.341V14.5331H140.036V8.60238H143.425V14.5331H145.966V17.0749H143.425V26.9638C143.425 27.6434 143.517 28.142 143.703 28.4597C143.888 28.7775 144.263 28.9363 144.828 28.9363C145.075 28.9363 145.455 28.8922 145.966 28.8039V31.5575C145.119 31.6634 144.422 31.7163 143.875 31.7163Z" fill="#134E4A"/>
<path d="M157.007 30.1278C156.222 31.1868 154.92 31.7163 153.102 31.7163C151.284 31.7163 149.982 31.1868 149.197 30.1278C148.411 29.0687 148.018 27.5419 148.018 25.5473V20.4638C148.018 18.4693 148.411 16.9425 149.197 15.8834C149.982 14.8244 151.284 14.2948 153.102 14.2948C154.92 14.2948 156.222 14.8244 157.007 15.8834C157.793 16.9425 158.185 18.4693 158.185 20.4638V25.5473C158.185 27.5419 157.793 29.0687 157.007 30.1278ZM152.466 28.8304C152.652 28.901 152.864 28.9363 153.102 28.9363C153.34 28.9363 153.548 28.901 153.724 28.8304C153.909 28.7598 154.059 28.676 154.174 28.5789C154.298 28.473 154.399 28.3229 154.479 28.1288C154.558 27.9258 154.62 27.7493 154.664 27.5992C154.708 27.4492 154.739 27.233 154.757 26.9506C154.774 26.6682 154.783 26.4475 154.783 26.2887C154.792 26.121 154.796 25.8739 154.796 25.5473V20.4638C154.796 20.1373 154.792 19.8946 154.783 19.7357C154.783 19.5681 154.774 19.343 154.757 19.0606C154.739 18.7782 154.708 18.5619 154.664 18.4119C154.62 18.2619 154.558 18.0898 154.479 17.8956C154.399 17.6926 154.298 17.5426 154.174 17.4455C154.059 17.3396 153.909 17.2514 153.724 17.1808C153.548 17.1102 153.34 17.0749 153.102 17.0749C152.864 17.0749 152.652 17.1102 152.466 17.1808C152.29 17.2514 152.14 17.3396 152.016 17.4455C151.902 17.5426 151.805 17.6926 151.725 17.8956C151.646 18.0898 151.584 18.2619 151.54 18.4119C151.496 18.5619 151.465 18.7782 151.447 19.0606C151.429 19.343 151.416 19.5681 151.407 19.7357C151.407 19.8946 151.407 20.1373 151.407 20.4638V25.5473C151.407 25.8739 151.407 26.121 151.407 26.2887C151.416 26.4475 151.429 26.6682 151.447 26.9506C151.465 27.233 151.496 27.4492 151.54 27.5992C151.584 27.7493 151.646 27.9258 151.725 28.1288C151.805 28.3229 151.902 28.473 152.016 28.5789C152.14 28.676 152.29 28.7598 152.466 28.8304Z" fill="#134E4A"/>
<path d="M160.965 31.4781V14.5331H164.354V16.36C164.857 15.9011 165.268 15.5525 165.586 15.3142C165.903 15.0671 166.34 14.8376 166.896 14.6258C167.461 14.4051 168.061 14.2948 168.697 14.2948C169.42 14.2948 170.007 14.5596 170.457 15.0891C170.907 15.6186 171.132 16.2673 171.132 17.0351V31.4781H167.743V18.7693C167.743 18.178 167.66 17.75 167.492 17.4852C167.324 17.2116 166.984 17.0749 166.473 17.0749C166.181 17.0749 165.89 17.1366 165.599 17.2602C165.316 17.3749 165.105 17.4852 164.963 17.5911C164.822 17.6882 164.619 17.8471 164.354 18.0677V31.4781H160.965Z" fill="#134E4A"/>
<path d="M178.89 31.7163C178.069 31.7163 177.354 31.5751 176.745 31.2927C176.145 31.0103 175.664 30.644 175.302 30.1939C174.949 29.735 174.663 29.1525 174.442 28.4465C174.221 27.7316 174.067 27.0212 173.979 26.3151C173.899 25.6003 173.851 24.7707 173.833 23.8264C173.806 23.085 173.806 22.3437 173.833 21.6023C173.859 20.7198 173.917 19.9387 174.005 19.2592C174.102 18.5708 174.265 17.9044 174.495 17.2602C174.724 16.6159 175.02 16.0864 175.382 15.6716C175.753 15.2568 176.233 14.9258 176.825 14.6787C177.425 14.4228 178.122 14.2948 178.916 14.2948C179.64 14.2948 180.276 14.3919 180.823 14.5861C181.379 14.7714 181.838 15.0582 182.2 15.4465C182.57 15.826 182.875 16.2497 183.113 16.7174C183.36 17.1852 183.545 17.7544 183.669 18.4252C183.793 19.0871 183.876 19.7401 183.921 20.3844C183.973 21.0287 184 21.77 184 22.6084V23.0056H177.222V23.8528C177.222 23.9676 177.222 24.1485 177.222 24.3956C177.204 24.7221 177.2 25.0619 177.209 25.4149C177.226 25.7591 177.244 26.0989 177.262 26.4343C177.279 26.7697 177.328 27.0918 177.407 27.4007C177.487 27.7007 177.584 27.9655 177.699 28.195C177.813 28.4244 177.972 28.6054 178.175 28.7377C178.387 28.8701 178.634 28.9363 178.916 28.9363C179.269 28.9363 179.561 28.8701 179.79 28.7377C180.02 28.5965 180.187 28.3891 180.293 28.1155C180.408 27.8419 180.487 27.5684 180.532 27.2948C180.576 27.0212 180.602 26.677 180.611 26.2622V25.5473H183.973V26.2225C183.894 28.0317 183.448 29.3996 182.636 30.3263C181.824 31.253 180.576 31.7163 178.89 31.7163ZM177.222 21.3111H180.584V20.2917C180.576 19.8416 180.549 19.4489 180.505 19.1135C180.461 18.7782 180.381 18.4428 180.267 18.1074C180.161 17.7721 179.993 17.5161 179.764 17.3396C179.534 17.1631 179.252 17.0749 178.916 17.0749C178.572 17.0749 178.281 17.1675 178.043 17.3529C177.813 17.5382 177.641 17.8074 177.526 18.1604C177.421 18.5046 177.346 18.8444 177.301 19.1797C177.257 19.5151 177.231 19.9167 177.222 20.3844V21.3111Z" fill="#134E4A"/>
</svg>
