<svg width="164" height="37" viewBox="0 0 164 37" fill="none" xmlns="http://www.w3.org/2000/svg">
<path d="M31.1473 13.6477L31.1255 13.626C31.1238 13.6247 31.1224 13.6231 31.1215 13.6212L17.5006 0L3.87983 13.6209C3.87826 13.6225 3.87739 13.6246 3.8758 13.6256L3.85333 13.6474C1.77053 15.7419 0.447586 18.4725 0.0948177 21.4052C-0.25795 24.3379 0.379698 27.3044 1.90639 29.8331C3.43309 32.3619 5.76122 34.3077 8.52069 35.3612C11.2802 36.4147 14.3126 36.5157 17.136 35.6477C17.3735 35.5751 17.6275 35.5751 17.8651 35.6477C20.6882 36.5153 23.7205 36.4144 26.4798 35.3607C29.2391 34.307 31.567 32.3613 33.0936 29.8328C34.6202 27.3042 35.2579 24.3379 34.9053 21.4054C34.5526 18.4728 33.2299 15.7422 31.1473 13.6477ZM8.7232 22.6298C8.65689 22.6961 8.6043 22.7749 8.56844 22.8615C8.53257 22.948 8.5141 23.0408 8.51412 23.1346C8.53835 25.5386 9.21776 27.8904 10.4792 29.9371C10.5079 29.9835 10.5211 30.0379 10.517 30.0922C10.513 30.1465 10.4918 30.1982 10.4566 30.2399C10.4213 30.2816 10.3738 30.311 10.3209 30.324C10.2679 30.337 10.2122 30.333 10.1616 30.3124C9.21332 29.9135 8.35182 29.3336 7.62531 28.6053C6.13646 27.1162 5.29946 25.097 5.2981 22.9912C5.29675 20.8855 6.13117 18.8652 7.61812 17.3743L17.5006 7.49273L27.3826 17.3743C28.8698 18.865 29.7045 20.8853 29.703 22.9912C29.7018 25.097 28.8647 27.1162 27.3757 28.6053C26.6492 29.3336 25.7877 29.9135 24.8396 30.3124C24.7889 30.333 24.7332 30.337 24.6802 30.324C24.6273 30.311 24.5798 30.2814 24.5445 30.2399C24.5093 30.1982 24.488 30.1465 24.484 30.092C24.4799 30.0377 24.4931 29.9833 24.5218 29.9369C25.7835 27.8904 26.4633 25.5386 26.4879 23.1346C26.4879 23.0408 26.4692 22.948 26.4332 22.8613C26.3971 22.7746 26.3444 22.696 26.2779 22.6296L21.6037 17.6717C21.5571 17.6329 21.4985 17.6116 21.4378 17.6116C21.3773 17.6116 21.3186 17.6329 21.2721 17.6717C21.2255 17.7104 21.1942 17.7644 21.1833 17.824C21.1724 17.8837 21.1828 17.945 21.2127 17.9978C23.0281 21.283 21.467 26.0017 18.8637 28.6053L18.85 28.6191C18.4907 28.9745 18.0056 29.1738 17.5002 29.1736C16.9948 29.1734 16.5098 28.9738 16.1508 28.6182L16.1382 28.6053C13.5339 26.0017 11.9736 21.2835 13.7893 17.9985C13.8192 17.9457 13.8296 17.8844 13.8187 17.8247C13.8079 17.7651 13.7764 17.7111 13.7299 17.6724C13.6834 17.6336 13.6247 17.6123 13.5642 17.6123C13.5036 17.6123 13.4449 17.6336 13.3984 17.6724L8.7232 22.6298Z" fill="#F53855"/>
<path d="M64.656 11.376H69.164L64.488 27H59.336L57.152 17.76L54.94 27H49.788L45.112 11.376H49.9L52.336 22.352L54.744 11.376H59.812L62.22 22.352L64.656 11.376ZM80.8739 22.044C81.5646 21.372 81.9099 20.42 81.9099 19.188C81.9099 17.956 81.5646 17.0133 80.8739 16.36C80.1832 15.688 79.3899 15.352 78.4939 15.352C77.5979 15.352 76.8046 15.688 76.1139 16.36C75.4232 17.032 75.0779 17.984 75.0779 19.216C75.0779 20.448 75.4232 21.4 76.1139 22.072C76.8046 22.7253 77.5979 23.052 78.4939 23.052C79.3899 23.052 80.1832 22.716 80.8739 22.044ZM72.2779 24.956C70.8966 23.4627 70.2059 21.5493 70.2059 19.216C70.2059 16.8827 70.8966 14.9693 72.2779 13.476C73.6592 11.964 75.3392 11.208 77.3179 11.208C79.3152 11.208 80.8459 11.9453 81.9099 13.42V11.376H86.6979V27H81.9099V24.732C80.7526 26.3747 79.2032 27.196 77.2619 27.196C75.3206 27.196 73.6592 26.4493 72.2779 24.956ZM88.9167 11.376H94.0127L97.5687 22.996L101.125 11.376H106.221L100.677 27H94.4607L88.9167 11.376ZM115.068 27.196C112.791 27.196 110.924 26.468 109.468 25.012C108.012 23.5373 107.284 21.5867 107.284 19.16C107.284 16.7333 108.003 14.8013 109.44 13.364C110.896 11.9267 112.772 11.208 115.068 11.208C117.364 11.208 119.268 11.9173 120.78 13.336C122.292 14.7547 123.048 16.724 123.048 19.244C123.048 19.7853 123.011 20.2893 122.936 20.756H112.184C112.277 21.4467 112.585 22.016 113.108 22.464C113.631 22.8933 114.191 23.108 114.788 23.108C115.404 23.108 115.861 23.052 116.16 22.94C116.459 22.8093 116.673 22.688 116.804 22.576C116.953 22.4453 117.14 22.24 117.364 21.96H122.544C122.096 23.528 121.2 24.7973 119.856 25.768C118.512 26.72 116.916 27.196 115.068 27.196ZM118.064 17.76C117.989 17.032 117.672 16.444 117.112 15.996C116.552 15.5293 115.889 15.296 115.124 15.296C114.359 15.296 113.715 15.5293 113.192 15.996C112.669 16.444 112.343 17.032 112.212 17.76H118.064ZM130.911 11.376V14.288C132.031 12.2347 133.525 11.208 135.391 11.208V16.08H134.215C133.114 16.08 132.283 16.3413 131.723 16.864C131.182 17.3867 130.911 18.3013 130.911 19.608V27H126.123V11.376H130.911ZM142.359 9.612C141.817 10.1533 141.155 10.424 140.371 10.424C139.587 10.424 138.924 10.1533 138.383 9.612C137.841 9.07067 137.571 8.408 137.571 7.624C137.571 6.82133 137.841 6.14933 138.383 5.608C138.924 5.06667 139.587 4.796 140.371 4.796C141.155 4.796 141.817 5.06667 142.359 5.608C142.9 6.14933 143.171 6.82133 143.171 7.624C143.171 8.408 142.9 9.07067 142.359 9.612ZM137.991 27V11.376H142.779V27H137.991ZM156.367 22.1C157.001 21.428 157.319 20.4573 157.319 19.188C157.319 17.9187 156.992 16.9573 156.339 16.304C155.685 15.632 154.911 15.296 154.015 15.296C153.119 15.296 152.344 15.632 151.691 16.304C151.056 16.9573 150.739 17.9187 150.739 19.188C150.739 20.4573 151.065 21.428 151.719 22.1C152.391 22.772 153.175 23.108 154.071 23.108C154.967 23.108 155.732 22.772 156.367 22.1ZM148.219 24.984C146.651 23.5093 145.867 21.568 145.867 19.16C145.867 16.752 146.651 14.8293 148.219 13.392C149.787 11.936 151.728 11.208 154.043 11.208C156.357 11.208 158.289 11.936 159.839 13.392C161.407 14.8293 162.191 16.752 162.191 19.16C162.191 21.568 161.416 23.5093 159.867 24.984C158.317 26.4587 156.385 27.196 154.071 27.196C151.756 27.196 149.805 26.4587 148.219 24.984Z" fill="#F53855"/>
</svg>
