<svg width="145" height="35" viewBox="0 0 145 35" fill="none" xmlns="http://www.w3.org/2000/svg">
<path d="M11.2471 14.492C11.3585 14.3746 11.4457 14.2377 11.5035 14.089C11.5612 13.9403 11.5885 13.7829 11.5837 13.6257C11.579 13.4686 11.5422 13.3149 11.4756 13.1734C11.409 13.0319 11.3138 12.9055 11.1956 12.8015C11.0774 12.6974 10.9384 12.6178 10.7868 12.5671C10.6351 12.5165 10.4738 12.4958 10.312 12.5063C10.1502 12.5169 9.99121 12.5584 9.84414 12.6285C9.69709 12.6986 9.56488 12.7959 9.45515 12.9148C8.46296 13.9756 7.80779 15.2893 7.57245 16.6898C7.3371 18.0904 7.53215 19.5149 8.13295 20.7833C8.73373 22.0516 9.71328 23.107 10.9478 23.8158C12.1823 24.5248 13.6163 24.8554 15.0686 24.7659C16.5208 24.6765 17.9262 24.171 19.107 23.3133C20.2877 22.4557 21.1909 21.2843 21.7022 19.9474C22.2136 18.6105 22.3103 17.168 21.9799 15.8023C21.6496 14.4366 20.9073 13.209 19.8466 12.2747C19.729 12.1711 19.5908 12.0917 19.4398 12.0411C19.289 11.9904 19.1285 11.9694 18.9673 11.9794C18.8063 11.9893 18.6479 12.0299 18.5011 12.0989C18.3544 12.168 18.2222 12.264 18.1121 12.3816C18.002 12.4992 17.9162 12.6361 17.8596 12.7844C17.8029 12.9327 17.7765 13.0895 17.7818 13.2459C17.7872 13.4022 17.8243 13.5551 17.8908 13.6958C17.9575 13.8365 18.0524 13.9622 18.17 14.0658C18.8773 14.6884 19.3725 15.5065 19.593 16.4169C19.8134 17.3272 19.7491 18.2888 19.4084 19.18C19.0677 20.0712 18.4658 20.8522 17.6787 21.424C16.8917 21.9957 15.9549 22.3327 14.9868 22.3924C14.0187 22.452 13.0628 22.2316 12.2399 21.759C11.417 21.2863 10.7641 20.5827 10.3638 19.7371C9.96347 18.8916 9.83368 17.942 9.99083 17.0084C10.148 16.0748 10.585 15.1992 11.2467 14.4923L11.2471 14.492Z" fill="url(#paint0_linear_155_2987)"/>
<path d="M19.6547 6.30771C18.8486 6.3552 18.0554 6.5575 17.321 6.90288C16.5866 7.24826 15.9256 7.72987 15.3762 8.31983C15.1536 8.55715 14.8459 8.70169 14.5206 8.72172C14.1952 8.74176 13.8789 8.63566 13.6409 8.42668C12.4512 7.38212 10.8696 6.85178 9.24303 6.95201C7.6165 7.05223 6.07786 7.77484 4.96465 8.96131C3.14196 10.9101 1.93834 13.3235 1.50592 15.8965C1.0735 18.4694 1.43171 21.0864 2.53526 23.4165C3.63881 25.7468 5.43817 27.6856 7.70586 28.9879C9.97356 30.2902 12.6078 30.8976 15.2756 30.7332C17.9434 30.5689 20.5249 29.6401 22.6938 28.0645C24.8629 26.4889 26.5219 24.3369 27.4613 21.881C28.4007 19.4249 28.5783 16.7749 27.9715 14.2659C27.3648 11.757 26.0011 9.50177 24.0526 7.78532C23.4653 7.26541 22.7741 6.86712 22.0191 6.61349C21.2643 6.35985 20.4606 6.25592 19.6547 6.30771ZM22.3748 9.57724C23.9708 10.9818 25.0881 12.8278 25.5856 14.8817C26.083 16.9357 25.9384 19.1053 25.1697 21.1163C24.4011 23.1274 23.0432 24.8893 21.2674 26.1797C19.4918 27.4699 17.3782 28.2304 15.194 28.365C13.0098 28.4996 10.8531 28.0022 8.99663 26.9357C7.14012 25.8693 5.66719 24.2816 4.76412 22.3737C3.86105 20.4657 3.5684 18.323 3.92315 16.2165C4.27791 14.11 5.26415 12.1344 6.75716 10.5395C7.42516 9.82766 8.34838 9.3941 9.32434 9.33395C10.3003 9.27381 11.2493 9.59199 11.9633 10.2187C12.677 10.8455 13.626 11.1637 14.6019 11.1036C15.5778 11.0435 16.5008 10.6099 17.1687 9.89806C17.8361 9.18522 18.7595 8.75095 19.7358 8.69078C20.712 8.63062 21.6612 8.94949 22.3746 9.57725" fill="url(#paint1_linear_155_2987)"/>
<path d="M14.8788 19.7376C15.981 19.6746 16.8487 18.7552 16.817 17.6842C16.7853 16.6132 15.8663 15.796 14.7641 15.859C13.662 15.9221 12.7942 16.8414 12.8259 17.9124C12.8576 18.9835 13.7767 19.8006 14.8788 19.7376Z" fill="url(#paint2_linear_155_2987)"/>
<path d="M43.1899 26.5094C47.6248 26.2999 50.3592 23.6104 50.5271 19.9575L46.5518 20.1453C46.2618 22.0038 44.9328 23.1288 43.106 23.2151C40.5094 23.3377 38.756 21.3074 38.63 17.8026C38.5055 14.3425 40.1427 12.1856 42.7048 12.0646C44.704 11.9701 45.9783 13.1622 46.3594 14.7989L50.3347 14.6111C49.9138 10.9078 46.8386 8.60455 42.5302 8.80806C37.36 9.05228 34.2275 12.8339 34.4158 18.0688C34.6025 23.2589 37.9163 26.7585 43.1899 26.5094Z" fill="#18181B"/>
<path d="M53.4341 25.6901L57.5932 25.4936L57.2307 15.4146C57.1524 13.2381 58.7859 11.618 61.0722 11.51C61.7731 11.4769 62.6507 11.5584 63.0109 11.6532L62.8772 7.9364C62.4956 7.88734 61.8391 7.87363 61.3796 7.89534C59.3574 7.99085 57.7087 9.1868 57.1367 11.204L56.9529 11.2126L56.8501 8.35526L52.8174 8.54575L53.4341 25.6901Z" fill="#18181B"/>
<path d="M72.5261 25.1237C77.6963 24.8794 80.855 21.186 80.6643 15.8842C80.4731 10.5712 77.0595 7.17705 71.8893 7.42126C66.7191 7.66548 63.5609 11.3701 63.752 16.6831C63.9427 21.9848 67.3559 25.3679 72.5261 25.1237ZM72.4327 21.8857C69.5718 22.0208 68.081 19.6091 67.9682 16.4727C67.8553 13.3363 69.1667 10.7587 72.0275 10.6236C74.8424 10.4906 76.3345 12.9358 76.4473 16.0722C76.5601 19.2086 75.2475 21.7527 72.4327 21.8857Z" fill="#18181B"/>
<path d="M86.9495 24.1069L91.2925 23.9018L94.1846 12.1597L94.4259 12.1483L98.1516 23.5778L102.483 23.3732L106.864 5.99282L102.613 6.19362L99.9882 18.3256L99.8159 18.3337L96.2136 6.4959L92.02 6.69399L89.2826 18.8984L89.1217 18.906L85.586 6.99791L81.3464 7.19816L86.9495 24.1069Z" fill="#18181B"/>
<path d="M113.464 12.792C113.375 10.3141 114.863 8.81266 117.057 8.70901C119.206 8.60752 120.542 9.91962 120.624 12.2078L120.994 22.4988L125.153 22.3024L124.761 11.3863C124.625 7.27822 122.127 5.04824 118.485 5.22027C115.843 5.3451 114.072 6.65863 113.336 8.60526L113.129 8.61503L113.024 5.70183L109.049 5.88961L109.666 23.0339L113.825 22.8375L113.464 12.792Z" fill="#18181B"/>
<path d="M130.847 28.4735C134.087 28.3204 135.902 26.6135 136.803 23.8317L143.201 4.29879L138.754 4.48649L135.141 17.6267L134.957 17.6354L130.424 4.87995L126.012 5.08835L133.041 22.2876L132.719 23.2308C132.019 25.2204 130.806 25.4119 128.972 24.9842L128.12 28.1774C128.691 28.374 129.71 28.5272 130.847 28.4735Z" fill="#18181B"/>
<defs>
<linearGradient id="paint0_linear_155_2987" x1="15.2487" y1="31.9925" x2="13.8046" y2="6.72114" gradientUnits="userSpaceOnUse">
<stop stop-color="#00CD9E"/>
<stop offset="1" stop-color="#38A3DC"/>
</linearGradient>
<linearGradient id="paint1_linear_155_2987" x1="15.251" y1="31.9919" x2="13.8061" y2="6.71441" gradientUnits="userSpaceOnUse">
<stop stop-color="#00CD9E"/>
<stop offset="1" stop-color="#38A3DC"/>
</linearGradient>
<linearGradient id="paint2_linear_155_2987" x1="15.242" y1="32.0173" x2="13.7932" y2="6.6834" gradientUnits="userSpaceOnUse">
<stop stop-color="#00AB9E"/>
<stop offset="1" stop-color="#38A3DC"/>
</linearGradient>
</defs>
</svg>
