<svg width="122" height="52" viewBox="0 0 122 52" fill="none" xmlns="http://www.w3.org/2000/svg">
<path d="M23.7947 30.6634L27.6767 30.3171C28.088 30.3171 28.2912 30.5335 28.2862 30.9664C28.2798 31.5146 27.8645 31.8609 27.0402 32.0052C26.2453 32.1494 25.392 32.2649 24.4803 32.3514C23.5685 32.438 23.0218 32.7121 22.8402 33.1738C22.0373 36.55 21.0349 39.3923 19.833 41.7007C18.6602 44.0381 17.5523 45.8416 16.5093 47.1112C15.4661 48.4097 14.1902 49.4918 12.6819 50.3575C11.1736 51.2232 9.65553 51.656 8.12783 51.656C6.60012 51.656 5.32665 51.2665 4.30741 50.4874C3.31721 49.7371 2.56488 48.7416 2.05042 47.5008C1.10831 45.1346 0.652946 42.5953 0.684341 39.8828C0.708055 37.8341 1.09767 35.9007 1.85318 34.0828C2.24646 33.1017 2.8287 32.2937 3.5999 31.6589C4.40048 31.0241 5.3149 30.7067 6.34316 30.7067C7.4008 30.7067 7.92695 30.9375 7.9216 31.3992L7.87553 31.5723C7.58208 31.5435 7.21501 31.529 6.77432 31.529C6.33364 31.529 5.78846 31.6733 5.13879 31.9619C4.51849 32.2504 3.99902 32.7121 3.58036 33.347C3.16171 33.9818 2.815 34.7465 2.54024 35.641C2.14195 37.0549 1.93495 38.44 1.91926 39.7963C1.90323 41.1813 1.99186 42.4077 2.18515 43.4754C2.34907 44.543 2.64502 45.6251 3.07301 46.7217C3.501 47.8182 4.13699 48.7127 4.98096 49.4053C5.85431 50.0978 6.87856 50.4441 8.05372 50.4441C9.87521 50.4441 11.6014 49.7948 13.2323 48.4963C14.8628 47.2266 16.2331 45.5963 17.3432 43.6052C19.5035 39.7097 20.9129 35.9728 21.5713 32.3947C17.4726 31.1539 15.4428 28.8454 15.4819 25.4693C15.4582 24.9788 15.4503 24.3872 15.4583 23.6947C15.4663 23.0021 15.5642 22.1653 15.7518 21.1842C15.9688 20.2031 16.4212 19.1932 17.1089 18.1543C17.8264 17.0867 18.4977 16.1921 19.123 15.4707C19.7484 14.7494 20.7002 13.7394 21.9785 12.4409C23.2862 11.1424 24.3567 10.0314 25.19 9.10803C25.3713 8.67519 25.5252 8.06922 25.6517 7.29011C25.808 6.48214 25.9487 5.74632 26.0739 5.08263C26.1994 4.39009 26.3837 3.69755 26.6267 3.00501C27.1429 1.56222 28.1795 0.84082 29.7366 0.84082C30.3829 0.84082 30.7785 0.927388 30.9234 1.10052C31.098 1.2448 31.181 1.69207 31.1723 2.44232C31.1636 3.19257 30.9344 3.95725 30.4847 4.73636C30.0353 5.48662 29.3792 6.33786 28.5162 7.29011C27.6535 8.2135 27.1176 8.81947 26.9087 9.10803C26.729 9.39659 26.5925 9.77171 26.499 10.2334C26.4349 10.6951 26.3212 11.6329 26.158 13.0469C25.4806 18.2698 24.921 22.1942 24.4793 24.8201C24.0376 27.4459 23.8094 29.3937 23.7947 30.6634ZM16.6306 25.2096C16.6149 26.5658 17.0703 27.8355 17.9967 29.0186C18.9525 30.2017 20.1062 30.7932 21.4576 30.7932C21.7514 30.7932 21.944 30.6489 22.0355 30.3604L24.7468 13.1334L24.7653 11.5319C22.839 12.9747 21.0078 15.0812 19.2718 17.8514C17.5361 20.5927 16.6557 23.0454 16.6306 25.2096ZM29.989 1.87963C29.0782 1.87963 28.397 2.35575 27.9453 3.308C27.5233 4.23139 27.3065 5.19806 27.2948 6.20801C27.3218 6.41 27.335 6.53986 27.3343 6.59757C29.083 5.2702 29.9679 3.69755 29.989 1.87963Z" fill="#52525B"/>
<path d="M26.9957 28.2395C26.9693 27.9798 26.9575 27.7345 26.9601 27.5036C26.9815 25.6569 27.6205 23.7524 28.8771 21.7902C30.1631 19.828 31.7903 18.8469 33.7587 18.8469C34.1407 18.8469 34.4478 18.9623 34.6802 19.1932C34.9128 19.3951 35.0262 19.7558 35.0202 20.2753C35.0145 20.7658 34.8608 21.3573 34.559 22.0499C34.2869 22.7136 33.853 23.3917 33.2574 24.0842C32.6912 24.7768 32.1999 25.3395 31.7836 25.7723C31.3673 26.2051 30.7732 26.7678 30.0014 27.4604C29.2589 28.1529 28.8133 28.5713 28.6648 28.7156C28.6327 28.9464 28.6165 29.0763 28.6162 29.1052C28.6072 29.8843 28.9821 30.4902 29.7409 30.9231C30.4998 31.3559 31.2905 31.5723 32.1131 31.5723C34.0815 31.5723 35.6426 31.2261 36.7964 30.5335C37.9795 29.841 39.3445 28.6723 40.8912 27.0275C41.1296 26.739 41.2645 26.5081 41.2959 26.335C41.3566 26.1619 41.5204 25.9743 41.7871 25.7723C42.0796 25.8877 42.2233 26.1619 42.2183 26.5947C41.9142 27.4892 41.3154 28.4559 40.422 29.4947C39.5289 30.5047 38.476 31.3703 37.2631 32.0917C35.5775 33.044 34.1471 33.5201 32.9719 33.5201C31.8262 33.5201 30.7143 33.1305 29.6363 32.3514C28.5583 31.5723 27.6781 30.2017 26.9957 28.2395ZM33.8283 20.4484C32.565 20.4484 31.3822 21.1121 30.2798 22.4394C29.1774 23.7668 28.6192 25.0365 28.6052 26.2484C28.6005 26.6524 28.6266 26.941 28.6833 27.1141C29.777 26.537 30.9048 25.5559 32.0666 24.1708C33.2287 22.7569 33.816 21.5161 33.8283 20.4484Z" fill="#52525B"/>
<path d="M52.9755 30.0141C52.9972 30.6778 53.5075 31.0096 54.5063 31.0096C55.0939 31.0096 55.7563 30.8942 56.4934 30.6634C57.2306 30.4325 57.9373 30.2882 58.6137 30.2305C59.3195 30.1728 59.67 30.346 59.6653 30.7499C58.4221 31.5579 56.7126 32.034 54.5369 32.1783C54.419 32.2072 54.3013 32.2216 54.1838 32.2216C53.3612 32.2216 52.7171 32.034 52.2513 31.6589C51.8153 31.2549 51.6 30.8221 51.6053 30.3604C51.6107 29.8987 51.6446 29.5091 51.707 29.1917C51.7144 28.5569 51.8572 27.6335 52.1357 26.4216C52.4435 25.2096 52.6009 24.3006 52.6079 23.6947C52.0791 23.6947 51.167 23.8101 49.8717 24.0409C48.6061 24.2429 47.6931 24.4305 47.1329 24.6036C46.3567 28.2106 45.051 30.6057 43.2158 31.7887C42.683 32.135 42.2697 32.3082 41.9759 32.3082C41.7115 32.3082 41.5065 32.2504 41.3609 32.135C41.2451 31.9907 41.1882 31.832 41.1902 31.6589C41.1925 31.4569 41.3277 31.1972 41.5958 30.8798C42.5059 30.9375 43.1866 30.5047 43.638 29.5813C44.0887 28.7156 44.4519 27.7922 44.7277 26.8111C45.0332 25.8012 45.2767 25.0653 45.4583 24.6036C44.0839 24.0554 43.4015 23.3628 43.4112 22.526C43.4289 20.9966 44.1166 19.9578 45.4744 19.4096C45.9465 19.2364 46.4175 19.1499 46.8876 19.1499C47.3576 19.1499 47.7818 19.3086 48.1601 19.626C48.5677 19.9434 48.7682 20.3907 48.7615 20.9678C48.7548 21.5449 48.3637 22.3384 47.5881 23.3484C47.6763 23.3484 48.2064 23.233 49.1786 23.0021C51.8601 22.3096 53.48 21.9633 54.0382 21.9633C54.0278 22.8579 53.8505 24.2141 53.5063 26.032C53.1624 27.8211 52.9855 29.1484 52.9755 30.0141ZM46.4774 20.3185C45.9192 20.3185 45.4423 20.9101 45.0467 22.0932C45.0407 22.6126 45.4619 23.031 46.3102 23.3484C46.9341 22.7424 47.2495 22.1509 47.2561 21.5738C47.2588 21.3429 47.1884 21.0832 47.0448 20.7947C46.931 20.4772 46.7418 20.3185 46.4774 20.3185Z" fill="#52525B"/>
<path d="M70.6244 20.535L70.6935 22.1797C70.6865 22.7857 70.6369 23.2618 70.5447 23.6081C70.4823 23.9255 70.4354 24.1708 70.404 24.3439C70.3726 24.5171 70.2965 24.7479 70.1757 25.0365C70.0551 25.2962 69.9795 25.4837 69.9488 25.5992C69.9181 25.7146 69.8128 25.931 69.6328 26.2484C69.4529 26.5658 69.333 26.7678 69.2733 26.8544C69.2429 26.941 69.1078 27.1862 68.8681 27.5902C68.6581 27.9653 68.5231 28.2106 68.463 28.326H69.3444C71.0483 28.326 73.5549 27.5181 76.864 25.9021L77.2121 26.2917C74.366 28.5136 71.0321 29.7256 67.2105 29.9275L63.3055 32.2649C62.9496 32.5534 62.1694 32.6977 60.9648 32.6977C59.7897 32.6977 59.0295 32.3803 58.6843 31.7455C58.3688 31.0818 58.2191 30.0574 58.2351 28.6723C58.2512 27.2872 58.8569 25.7146 60.0525 23.9544C61.2774 22.1942 62.6684 21.3141 64.2255 21.3141C64.9305 21.3141 65.3826 21.6026 65.5816 22.1797C63.9307 22.6703 62.5106 23.5215 61.3214 24.7335C60.1323 25.9454 59.5285 27.3449 59.5101 28.932C59.5038 29.4803 59.5281 29.9131 59.5832 30.2305C59.6383 30.5479 59.7965 30.8365 60.0579 31.0962C60.3193 31.3559 60.832 31.4858 61.5958 31.4858C63.1823 31.4858 64.4825 30.8365 65.4964 29.538C65.2083 29.0474 65.0706 28.2539 65.0833 27.1574C65.0963 26.032 65.1966 24.9788 65.3842 23.9977C65.6016 22.9877 66.0094 22.021 66.6076 21.0976C67.2059 20.1743 67.9457 19.7126 68.8271 19.7126C69.7085 19.7126 70.3076 19.9867 70.6244 20.535ZM69.4551 22.5693L69.5056 22.0066C69.5123 21.4295 69.3401 21.0832 68.9888 20.9678C68.22 21.4006 67.594 22.1797 67.1109 23.3051C66.6278 24.4305 66.3808 25.4693 66.3698 26.4216C66.3587 27.3738 66.4998 27.8788 66.7929 27.9365C67.6209 27.4748 68.2612 26.7245 68.7139 25.6857C69.196 24.6469 69.4427 23.637 69.4541 22.6559L69.4551 22.5693Z" fill="#52525B"/>
<path d="M107.313 29.8843C107.341 29.9997 107.355 30.0863 107.354 30.144C107.346 30.8365 106.384 31.4569 104.468 32.0052C102.582 32.5534 101.154 32.8276 100.184 32.8276C96.5412 32.8276 94.7392 31.1395 94.7783 27.7634C94.7886 26.8688 95.0239 25.5847 95.4839 23.9111C95.944 22.2375 96.179 20.9678 96.189 20.1021C94.3315 20.6792 92.3893 22.223 90.3625 24.7335C88.336 27.2151 86.7351 29.7256 85.56 32.2649C85.3817 32.438 85.1452 32.5679 84.8504 32.6544C84.5556 32.741 84.3354 32.7266 84.1899 32.6111C84.074 32.4669 84.0174 32.2793 84.0201 32.0484C84.0231 31.7887 84.1456 31.3559 84.3877 30.7499L87.2241 21.7469C87.0799 21.5161 86.8903 21.4006 86.6552 21.4006C85.8914 21.4006 84.5414 22.5404 82.6054 24.8201C82.0993 25.3972 80.9966 26.7534 79.2973 28.8887C77.1813 31.4858 75.8149 32.7843 75.1979 32.7843C75.1392 32.7843 75.0515 32.741 74.935 32.6544C74.8188 32.539 74.7758 32.4524 74.8058 32.3947L78.0729 24.2574L80.1657 18.5872C80.3132 18.5295 80.4458 18.5006 80.5633 18.5006C81.004 18.5006 81.2215 18.7459 81.2158 19.2364C81.2101 19.727 81.1455 20.232 81.022 20.7514C80.8988 21.2419 80.383 22.6559 79.4746 24.9932L86.19 19.7126C86.7519 19.3951 87.2091 19.2364 87.5616 19.2364C88.1786 19.2364 88.4816 19.7126 88.4705 20.6648C88.4642 21.2131 88.2762 22.223 87.9067 23.6947C87.5665 25.1663 87.3803 26.0176 87.3483 26.2484C87.8821 25.8156 88.9967 24.7046 90.692 22.9156C93.6362 19.828 95.6959 18.2842 96.8711 18.2842C97.2824 18.2842 97.6334 18.414 97.9242 18.6738C97.9132 19.626 97.603 21.0399 96.9938 22.9156C96.3845 24.7912 96.0726 26.3494 96.0583 27.5902C96.0276 30.245 97.5399 31.5723 100.595 31.5723C102.241 31.5723 104.48 31.0096 107.313 29.8843Z" fill="#52525B"/>
<path d="M106.186 28.2395C106.16 27.9798 106.148 27.7345 106.151 27.5036C106.172 25.6569 106.811 23.7524 108.068 21.7902C109.354 19.828 110.981 18.8469 112.95 18.8469C113.331 18.8469 113.639 18.9623 113.871 19.1932C114.104 19.3951 114.217 19.7558 114.211 20.2753C114.205 20.7658 114.052 21.3573 113.75 22.0499C113.478 22.7136 113.044 23.3917 112.448 24.0842C111.882 24.7768 111.391 25.3395 110.974 25.7723C110.558 26.2051 109.964 26.7678 109.192 27.4604C108.45 28.1529 108.004 28.5713 107.856 28.7156C107.824 28.9464 107.807 29.0763 107.807 29.1052C107.798 29.8843 108.173 30.4902 108.932 30.9231C109.691 31.3559 110.481 31.5723 111.304 31.5723C113.272 31.5723 114.833 31.2261 115.987 30.5335C117.17 29.841 118.535 28.6723 120.082 27.0275C120.32 26.739 120.455 26.5081 120.487 26.335C120.547 26.1619 120.711 25.9743 120.978 25.7723C121.27 25.8877 121.414 26.1619 121.409 26.5947C121.105 27.4892 120.506 28.4559 119.613 29.4947C118.72 30.5047 117.667 31.3703 116.454 32.0917C114.768 33.044 113.338 33.5201 112.163 33.5201C111.017 33.5201 109.905 33.1305 108.827 32.3514C107.749 31.5723 106.869 30.2017 106.186 28.2395ZM113.019 20.4484C111.756 20.4484 110.573 21.1121 109.471 22.4394C108.368 23.7668 107.81 25.0365 107.796 26.2484C107.791 26.6524 107.817 26.941 107.874 27.1141C108.968 26.537 110.096 25.5559 111.257 24.1708C112.42 22.7569 113.007 21.5161 113.019 20.4484Z" fill="#52525B"/>
</svg>
