<?xml version="1.0" encoding="UTF-8"?>
<svg width="21px" height="25px" viewBox="0 0 21 25" version="1.1" xmlns="http://www.w3.org/2000/svg" xmlns:xlink="http://www.w3.org/1999/xlink">
    <title>discord</title>
    <g id="Website" stroke="none" stroke-width="1" fill="none" fill-rule="evenodd">
        <g id="discord" fill="#FFFFFF" fill-rule="nonzero">
            <path d="M8.32805,10.568 C7.9947,10.5969 7.68431,10.7497 7.45817,10.9964 C7.23203,11.243 7.10657,11.5654 7.10657,11.9 C7.10657,12.2346 7.23203,12.557 7.45817,12.8036 C7.68431,13.0502 7.9947,13.2031 8.32805,13.232 C8.49592,13.225 8.66079,13.1851 8.8132,13.1143 C8.96561,13.0436 9.1026,12.9435 9.2163,12.8198 C9.3299,12.6961 9.4181,12.5512 9.4757,12.3933 C9.5334,12.2355 9.5593,12.0679 9.552,11.9 C9.5602,11.7319 9.535,11.5639 9.4777,11.4056 C9.4204,11.2474 9.3323,11.1021 9.2184,10.9782 C9.1046,10.8543 8.96722,10.7542 8.81437,10.6838 C8.66153,10.6134 8.49622,10.574 8.32805,10.568 Z M12.708,10.568 C12.4397,10.5452 12.1708,10.604 11.9365,10.7366 C11.7022,10.8693 11.5133,11.0696 11.3947,11.3113 C11.2761,11.553 11.2333,11.8249 11.2718,12.0914 C11.3103,12.3579 11.4284,12.6066 11.6106,12.8049 C11.7928,13.0031 12.0306,13.1418 12.2929,13.2026 C12.5552,13.2635 12.8297,13.2437 13.0806,13.1459 C13.3315,13.0481 13.547,12.8769 13.6989,12.6546 C13.8508,12.4323 13.9321,12.1692 13.932,11.9 C13.9393,11.7321 13.9134,11.5645 13.8557,11.4066 C13.7981,11.2488 13.7099,11.1039 13.5963,10.9802 C13.4826,10.8564 13.3456,10.7564 13.1932,10.6856 C13.0408,10.6149 12.8759,10.5749 12.708,10.568 Z" id="Shape"></path>
            <path d="M18.54,0.5 L2.46001,0.5 C2.13617,0.500787 1.81565,0.565352 1.51677,0.690007 C1.21788,0.814663 0.94647,0.996969 0.71804,1.22652 C0.4896,1.45606 0.30862,1.72835 0.18542,2.02784 C0.06222,2.32734 -0.000782,2.64816 2.62465301e-06,2.972 L2.62465301e-06,19.2 C-0.000782,19.5238 0.06222,19.8447 0.18542,20.1442 C0.30862,20.4436 0.4896,20.7159 0.71804,20.9455 C0.94647,21.175 1.21788,21.3573 1.51677,21.482 C1.81565,21.6066 2.13617,21.6712 2.46001,21.672 L16.068,21.672 L15.432,19.452 L16.968,20.88 L18.42,22.22 L21.0000026,24.5 L21.0000026,2.972 C21.0008,2.64816 20.9378,2.32734 20.8146,2.02784 C20.6914,1.72835 20.5104,1.45606 20.282,1.22652 C20.0535,0.996969 19.7821,0.814663 19.4832,0.690007 C19.1844,0.565352 18.8638,0.500787 18.54,0.5 L18.54,0.5 Z M13.908,16.172 C13.908,16.172 13.476,15.656 13.116,15.2 C13.9858,14.9952 14.7552,14.4893 15.288,13.772 C14.8562,14.0594 14.3933,14.2969 13.908,14.48 C13.3498,14.7183 12.7659,14.8914 12.168,14.996 C11.1403,15.1852 10.0863,15.1812 9.06,14.984 C8.45887,14.8659 7.86976,14.6932 7.30001,14.468 C6.81882,14.2842 6.35992,14.0467 5.93201,13.76 C6.44554,14.4624 7.18835,14.9632 8.03201,15.176 C7.67201,15.632 7.23201,16.176 7.23201,16.176 C6.51919,16.1952 5.81258,16.0388 5.17437,15.7208 C4.53616,15.4027 3.9859,14.9327 3.57201,14.352 C3.61037,11.9179 4.20124,9.52433 5.30001,7.352 C6.26643,6.59298 7.44466,6.15272 8.67201,6.092 L8.79201,6.236 C7.63452,6.52081 6.55416,7.05757 5.62801,7.808 C5.62801,7.808 5.89201,7.664 6.33601,7.46 C7.19835,7.06489 8.11767,6.8084 9.06,6.7 C9.1259,6.68632 9.1928,6.67829 9.26,6.676 C10.0641,6.57122 10.8779,6.56317 11.684,6.652 C12.9533,6.7975 14.1817,7.19023 15.3,7.808 C14.4231,7.0942 13.4047,6.57475 12.312,6.284 L12.48,6.092 C13.7074,6.15272 14.8856,6.59298 15.852,7.352 C16.9508,9.52433 17.5416,11.9179 17.58,14.352 C17.1624,14.9314 16.6096,15.4001 15.9697,15.7173 C15.3297,16.0344 14.622,16.1905 13.908,16.172 Z" id="Shape"></path>
        </g>
    </g>
</svg>