<svg width="20" height="20" viewBox="0 0 20 20" fill="none" xmlns="http://www.w3.org/2000/svg">
<path d="M10 6.75C8.2051 6.75 6.75 8.20505 6.75 9.99995C6.75 11.7949 8.2051 13.2499 10 13.2499C11.7949 13.2499 13.25 11.7949 13.25 9.99995C13.25 8.20505 11.7949 6.75 10 6.75Z" fill="#73253E"/>
<path fill-rule="evenodd" clip-rule="evenodd" d="M4.76948 1.08151C8.21764 0.696138 11.7823 0.696138 15.2304 1.08151C17.1288 1.29369 18.66 2.78947 18.8828 4.69452C19.2951 8.2195 19.2951 11.7806 18.8828 15.3056C18.66 17.2106 17.1288 18.7064 15.2304 18.9186C11.7823 19.304 8.21764 19.304 4.76948 18.9186C2.87108 18.7064 1.33989 17.2106 1.11707 15.3056C0.704791 11.7806 0.704791 8.2195 1.11707 4.69452C1.33989 2.78947 2.87108 1.29369 4.76948 1.08151ZM14.9999 4.00005C14.4476 4.00005 13.9999 4.44776 13.9999 5.00005C13.9999 5.55233 14.4476 6.00005 14.9999 6.00005C15.5522 6.00005 15.9999 5.55233 15.9999 5.00005C15.9999 4.44776 15.5522 4.00005 14.9999 4.00005ZM5.24994 10C5.24994 7.37669 7.37659 5.25005 9.99994 5.25005C12.6233 5.25005 14.7499 7.37669 14.7499 10C14.7499 12.6234 12.6233 14.75 9.99994 14.75C7.37659 14.75 5.24994 12.6234 5.24994 10Z" fill="#73253E"/>
</svg>
