<svg width="678" height="90" viewBox="0 0 678 90" fill="none" xmlns="http://www.w3.org/2000/svg">
<path d="M48.446 12.1863C51.9207 22.6116 64.446 59.5663 67.9234 69.9196H69.898C69.898 69.9196 90.718 9.75563 92.2007 5.79696C92.898 3.93829 93.5954 2.14496 93.5954 2.14496H86.1514C86.206 5.74896 84.69 14.3543 79.938 29.1103C74.506 45.9756 73.6927 48.7396 72.0727 52.789C71.6367 52.165 55.2647 5.31163 55.2647 2.37029C55.2647 2.36896 44.1047 2.33829 44.2687 2.40229C38.2274 24.0676 32.7567 41.0036 28.002 52.765C27.4727 52.025 12.5807 10.3103 10.8287 2.14496H0.376709C0.888709 2.84762 1.57404 4.10629 2.46604 6.33429C2.91804 7.54496 4.27804 11.3956 6.50471 17.781C8.07137 22.1823 11.67 32.7583 17.5087 50.1143C21.5994 62.317 24.758 69.9383 24.758 69.9383H26.6234C26.6234 69.9383 46.046 14.2383 48.446 12.1863" fill="#73253E"/>
<path d="M103.743 2.39255H116.103C116.103 2.39255 116.103 3.65521 117.547 6.81255C118.991 9.97122 134.476 45.0632 140.744 52.5405C140.744 52.5405 148.763 34.2392 152.551 21.4286C156.34 8.61788 157.875 3.47521 157.423 2.39255L166.716 2.48188C166.716 2.48188 165.408 3.92588 163.784 7.17388C161.379 11.9845 147.199 51.8259 143.53 60.4032C139.575 69.6472 134.734 80.9792 129.71 85.0325C116.706 95.5272 105.982 82.3752 105.35 82.0139L110.288 82.0805C110.288 82.0805 119.914 91.0952 128.718 79.3485C133.592 72.8445 136.15 64.5139 136.074 64.3606C135.802 63.8192 120.823 35.6672 114.75 22.8725C108.912 10.5725 104.916 2.84321 103.743 2.39255Z" fill="#73253E"/>
<path d="M209.452 66.1771H201.219C196.008 66.1771 192.964 66.7184 191.272 65.5011C189.58 64.2824 189.716 61.6438 189.716 61.6438V5.0091C189.829 2.7531 190.528 1.8291 190.528 1.8291H177.807C178.821 2.4371 178.821 5.27977 178.821 5.27977C178.821 5.27977 179.565 62.6584 179.565 65.5011C179.565 68.3424 178.957 69.9664 178.957 69.9664H211.132C221.217 69.9664 225.189 60.9958 225.189 60.9958C225.325 60.0478 225.24 55.5718 225.24 55.5718C225.24 55.5718 221.7 66.1771 209.452 66.1771Z" fill="#73253E"/>
<path d="M278.878 37.7585C278.336 54.6292 271.39 60.8545 267.419 63.5612C263.45 66.2679 258.127 68.1625 252.984 68.1625C247.842 68.1625 246.218 67.8012 246.218 67.8012C245.587 63.3799 245.135 44.6146 245.226 33.6079C245.316 22.6012 245.947 2.84389 245.947 2.84389C255.33 2.57322 259.66 2.48255 265.795 6.63322C271.931 10.7826 279.419 20.8879 278.878 37.7585ZM248.744 0.858555C248.744 0.858555 244.323 0.858553 240.986 1.03855C240.986 1.03855 238.279 1.12922 235.019 1.35455C235.019 1.35455 235.324 1.89722 235.46 2.36922C235.595 2.84389 235.628 3.45322 235.628 4.33189C235.628 5.21189 236.835 55.4412 236.295 61.9372C235.752 68.4332 235.324 69.7639 235.324 69.7639C235.324 69.7639 237.895 69.6279 239.655 69.6279C241.414 69.6279 244.73 69.6959 246.624 69.7639C248.519 69.8319 262.458 70.6439 269.02 68.0719C275.584 65.5012 286.456 59.9519 288.802 41.3679C291.147 22.7826 281.944 -0.584111 248.744 0.858555Z" fill="#73253E"/>
<path d="M560.525 12.1863C564 22.6116 576.525 59.5663 580.002 69.9196H581.977C581.977 69.9196 602.797 9.75563 604.28 5.79696C604.978 3.93829 605.674 2.14496 605.674 2.14496H598.23C598.285 5.74896 596.769 14.3543 592.017 29.1103C586.585 45.9756 585.773 48.7396 584.152 52.789C583.716 52.165 567.344 5.31163 567.344 2.37029C567.344 2.36896 556.184 2.33829 556.348 2.40229C550.306 24.0676 544.836 41.0036 540.081 52.765C539.553 52.025 524.661 10.3103 522.908 2.14496H512.456C512.968 2.84762 513.653 4.10629 514.545 6.33429C514.997 7.54496 516.357 11.3956 518.584 17.781C520.15 22.1823 523.749 32.7583 529.588 50.1143C533.678 62.317 536.837 69.9383 536.837 69.9383H538.702C538.702 69.9383 558.124 14.2383 560.525 12.1863" fill="#73253E"/>
<path d="M439.335 4.332C439.335 4.332 445.087 4.332 447.185 6.22667C449.282 8.12133 449.215 8.59466 449.215 8.59466C449.215 8.59466 451.177 4.53467 451.583 1.62533C451.583 1.62533 412.338 1.49067 405.91 1.42267C405.91 1.42267 406.857 2.708 406.993 4.468C406.993 4.468 407.059 12.316 407.195 20.1653C407.331 28.0147 407.669 65.636 407.669 65.636C407.669 65.636 407.871 69.4253 406.113 70.9133H418.225C418.225 70.9133 416.601 69.764 416.669 65.5C416.735 61.2373 416.871 33.6987 416.871 33.6987H445.763C445.763 33.6987 447.117 33.7667 447.253 30.4507H416.735V5.73067C416.735 5.73067 416.826 4.196 419.126 4.196C421.427 4.196 439.335 4.332 439.335 4.332Z" fill="#73253E"/>
<path d="M631.639 33.6081C627.761 33.3375 626.226 32.8868 626.226 32.8868V3.65614C647.067 0.858808 652.931 7.62548 651.667 21.3388C650.405 35.0521 635.519 33.8788 631.639 33.6081ZM676.935 68.9708C676.935 68.9708 675.193 69.5601 672.149 67.5988C669.103 65.6361 652.053 46.3521 648.398 41.6828C644.745 37.0135 643.933 35.6615 643.933 35.6615C643.933 35.6615 660.51 34.2841 661.322 19.2188C661.945 7.68281 653.167 2.82681 646.842 1.49081C643.865 0.86014 637.507 0.956139 637.507 0.956139C629.693 1.23214 617.562 1.63081 615.942 1.49081C615.942 1.49081 617.114 2.48281 617.114 4.55747C617.114 6.63347 617.678 65.4335 617.678 65.4335C617.678 65.4335 617.746 69.0868 616.935 70.6428H627.219C627.219 70.6428 626.069 69.7641 626.137 65.2975C626.205 60.8321 626.205 34.8495 626.205 34.8495C626.205 34.8495 629.655 34.3068 633.106 38.1641C636.557 42.0215 653.879 63.0641 655.502 64.8241C657.126 66.5828 660.171 69.7641 663.893 70.6428C667.614 71.5228 677.407 70.5961 678.221 70.4601L676.935 68.9708Z" fill="#73253E"/>
<path d="M495.04 66.1771H486.807C481.596 66.1771 478.552 66.7184 476.86 65.5011C475.168 64.2824 475.304 61.6438 475.304 61.6438V5.0091C475.416 2.7531 476.116 1.8291 476.116 1.8291H463.395C464.41 2.4371 464.41 5.27977 464.41 5.27977C464.41 5.27977 465.154 62.6584 465.154 65.5011C465.154 68.3424 464.546 69.9664 464.546 69.9664H496.72C506.806 69.9664 510.778 60.9958 510.778 60.9958C510.914 60.0478 510.828 55.5718 510.828 55.5718C510.828 55.5718 507.288 66.1771 495.04 66.1771Z" fill="#73253E"/>
<path d="M352.184 37.9577C351.908 37.9884 351.475 38.0324 351.182 37.8911C350.851 37.7351 350.307 37.5031 350.143 37.4804C349.847 37.4364 349.407 37.4791 349.274 37.5084C349.274 37.5084 348.674 37.5911 348.416 37.5497C348.16 37.5097 347.93 37.3777 347.866 37.7911C347.888 37.8604 347.934 37.9604 347.976 38.0311C348.01 38.0871 348.063 38.1897 348.123 38.3084C348.206 38.4711 348.307 38.6737 348.359 38.7404C348.451 38.8577 348.744 39.1297 348.823 39.1697C348.934 39.2257 349.315 39.6524 349.408 39.9431C349.49 40.1991 349.896 40.7031 349.952 40.7497L349.966 40.7564C350.244 40.9071 350.432 41.0724 350.522 41.2444L350.562 41.3191C350.679 41.5417 350.756 41.6871 350.831 42.0177C350.902 42.3257 351.084 42.3844 351.092 42.3871C351.103 42.3911 351.115 42.3977 351.123 42.4057C351.152 42.4364 351.247 42.5417 351.208 42.6324C351.186 42.6857 351.13 42.7204 351.046 42.7124C350.788 42.7097 350.568 42.2737 350.56 42.0951C350.492 41.8551 350.343 41.4177 350.239 41.3244C350.195 41.2844 350.103 41.2191 349.996 41.1444C349.731 40.9551 349.368 40.6951 349.246 40.4871C349.219 40.4417 349.192 40.3951 349.166 40.3511C349.042 40.1337 348.932 39.9471 348.794 39.8484C348.59 39.7057 348.128 39.3804 347.914 38.9577C347.796 38.7257 347.643 38.5417 347.528 38.4124C347.531 38.4137 347.531 38.4137 347.531 38.4151L347.535 38.4324C347.608 38.7684 347.636 38.9924 347.618 39.1204C347.588 39.3257 347.434 39.6204 347.391 39.6684C347.352 39.7124 347.206 39.9964 347.207 40.0671L347.21 40.1031C347.214 40.2044 347.222 40.3737 347.304 40.5444C347.407 40.7631 347.499 41.0777 347.518 41.1764C347.536 41.2884 347.51 41.5417 347.476 41.6484C347.438 41.7657 347.276 42.4431 347.288 42.5311C347.315 42.5951 347.468 43.1577 347.323 43.5204C347.191 43.8564 347.006 44.4937 346.998 44.5577C346.991 44.6097 346.958 44.6271 346.943 44.6324C346.939 44.6337 346.934 44.6364 346.928 44.6364C346.904 44.6377 346.876 44.6284 346.859 44.6137C346.799 44.5577 346.771 44.3764 346.852 44.1164C346.89 43.9951 346.936 43.8724 346.98 43.7551C347.055 43.5511 347.126 43.3564 347.127 43.2484C347.128 43.1871 347.115 43.0684 347.099 42.9457C347.067 42.6884 347.032 42.3951 347.079 42.2551C347.144 42.0631 347.25 41.3977 347.219 41.2351C347.182 41.0377 346.962 40.4524 346.902 40.3884C346.787 40.2671 346.835 39.6711 346.908 39.5004C346.93 39.4524 346.958 39.4111 346.984 39.3711C347.067 39.2484 347.138 39.1457 347.02 38.8617C346.927 38.6377 346.907 38.4631 346.892 38.3364C346.879 38.2217 346.871 38.1604 346.832 38.1231C346.816 38.1071 346.807 38.1071 346.802 38.1057C346.764 38.1084 346.71 38.1737 346.679 38.2071C346.659 38.2284 346.644 38.2457 346.632 38.2564C346.57 38.3071 346.207 38.4551 346.006 38.4404C345.835 38.4244 345.504 38.5217 345.424 38.6631C345.326 38.8351 345.254 39.0564 345.248 39.1324C345.238 39.2497 345.176 39.4017 345.036 39.4377C344.994 39.4511 344.978 39.4817 344.951 39.5404C344.936 39.5697 344.919 39.6044 344.898 39.6364C344.815 39.7444 344.367 39.9444 344.248 39.9911C344.068 40.0617 343.7 40.3284 343.632 40.4337C343.62 40.4551 343.603 40.4857 343.582 40.5231C343.456 40.7457 343.219 41.1617 342.986 41.2337C342.858 41.2737 342.778 41.2577 342.754 41.1871C342.723 41.1017 342.822 41.0044 342.884 40.9804C342.908 40.9697 343.124 40.8804 343.222 40.6137C343.326 40.3297 343.568 39.9791 343.831 39.8564L343.923 39.8151C344.139 39.7177 344.407 39.5964 344.53 39.4297C344.675 39.2297 344.762 39.1097 344.772 38.9031C344.786 38.6551 345.047 38.1457 345.414 38.0831C345.472 38.0737 345.532 38.0657 345.591 38.0564C345.763 38.0311 345.951 37.8164 346.075 37.7604C346.135 37.7337 346.182 37.7164 346.178 37.6631C346.174 37.6071 346.084 37.6364 346.084 37.6364C345.95 37.7404 345.419 37.8484 345.103 37.7351C344.818 37.6364 344.336 37.7084 344.235 37.7857C344.095 37.8937 343.775 37.9751 343.507 37.9097C343.44 37.8937 343.323 37.8564 343.178 37.8151C342.822 37.7057 342.232 37.5271 342.046 37.5417H342.03C341.994 37.5471 341.96 37.5537 341.93 37.5604C341.739 37.5964 341.579 37.6244 341.096 37.4764C340.731 37.3617 340.547 37.2111 340.414 37.1004C340.347 37.0444 340.295 37.0031 340.243 36.9844C340.212 36.9724 340.12 36.9377 340.111 36.8604C340.108 36.8204 340.128 36.7844 340.167 36.7617C340.208 36.7377 340.278 36.7271 340.324 36.7604C340.351 36.7764 340.384 36.8017 340.434 36.8391C340.49 36.8764 340.563 36.9311 340.666 37.0031C340.848 37.1364 341.234 37.3204 341.45 37.3097L341.474 37.3084C341.692 37.2951 341.948 37.2817 342.123 37.2484C342.258 37.2284 342.458 37.3017 342.632 37.3711C342.722 37.4057 342.806 37.4391 342.858 37.4471C342.916 37.4577 343 37.4857 343.098 37.5191C343.275 37.5764 343.514 37.6577 343.626 37.6311C343.816 37.5817 344.054 37.4697 344.155 37.3791C344.303 37.2484 344.703 37.2111 344.936 37.3031C345.136 37.3844 345.635 37.3457 345.702 37.3111C345.736 37.2937 345.791 37.2791 345.852 37.2631C345.919 37.2457 346.078 37.2044 346.099 37.1697C346.111 37.1471 346.146 37.0671 346.118 36.9937C346.099 36.9431 346.051 36.9031 345.976 36.8751C345.846 36.8231 345.395 36.6324 345.174 36.3577C345.108 36.2791 345.067 36.1817 345.027 36.0897C344.954 35.9177 344.883 35.7551 344.67 35.6871C344.324 35.5751 344.106 35.2177 343.988 35.0257C343.972 35.0004 343.958 34.9777 343.946 34.9591C343.915 34.9124 343.879 34.8364 343.835 34.7457C343.76 34.5924 343.622 34.3031 343.532 34.2737C343.422 34.2391 343.34 34.1177 343.255 33.9897C343.19 33.8924 343.123 33.7937 343.048 33.7417C342.912 33.6444 342.863 33.5471 342.804 33.4324C342.779 33.3791 342.748 33.3204 342.706 33.2524C342.643 33.1511 342.626 33.0457 342.611 32.9537C342.592 32.8257 342.575 32.7164 342.451 32.6231C342.383 32.5724 342.256 32.4777 342.316 32.3897C342.367 32.3124 342.492 32.3551 342.52 32.3724C342.523 32.3737 342.528 32.3751 342.535 32.3791C342.602 32.4071 342.755 32.4724 342.803 32.6751C342.819 32.7377 342.832 32.8111 342.846 32.8844C342.872 33.0244 342.904 33.1991 342.947 33.2511C343.038 33.3577 343.264 33.5884 343.372 33.6471C343.471 33.6977 343.53 33.8017 343.583 33.8937C343.61 33.9391 343.635 33.9831 343.658 34.0071L343.699 34.0484C343.807 34.1591 344.008 34.3644 344.1 34.5657C344.163 34.7071 344.259 34.8231 344.33 34.9097C344.366 34.9564 344.394 34.9924 344.408 35.0177C344.519 35.2097 344.642 35.3284 344.755 35.3497C344.811 35.3591 345.291 35.4577 345.363 35.7057C345.386 35.7884 345.555 35.9657 345.667 36.0844C345.768 36.1897 345.822 36.2484 345.842 36.2897C345.866 36.3391 346.076 36.4551 346.198 36.4751C346.266 36.4844 346.44 36.5124 346.602 36.1217C346.662 35.9737 346.684 35.8924 346.702 35.8337C346.715 35.7817 346.724 35.7457 346.75 35.7044C346.788 35.6404 346.842 35.3777 346.8 35.0337C346.763 34.7204 346.764 34.1791 346.919 33.9711C347.054 33.7924 347.242 33.5417 347.231 33.3244C347.226 33.2191 347.195 33.1044 347.163 32.9831C347.124 32.8311 347.082 32.6751 347.088 32.5271C347.1 32.2697 347.279 31.8217 347.378 31.7484C347.434 31.7097 347.484 31.7217 347.514 31.7444C347.575 31.7951 347.57 31.9124 347.527 31.9951C347.394 32.2591 347.343 32.4377 347.376 32.5377L347.383 32.5591C347.455 32.7777 347.672 33.4431 347.359 33.8737C347.131 34.1871 347.215 34.5777 347.26 34.7871C347.271 34.8404 347.28 34.8817 347.28 34.9071C347.283 34.9311 347.287 34.9697 347.291 35.0151C347.32 35.2911 347.339 35.5484 347.256 35.6644C347.234 35.6951 347.214 35.8031 347.331 36.1724C347.338 36.1911 347.343 36.2071 347.344 36.2151C347.35 36.2364 347.359 36.2497 347.366 36.2524C347.372 36.2591 347.394 36.2511 347.427 36.2284C347.551 36.1444 347.7 36.1537 347.818 36.1631L347.872 36.1671C348.007 36.1737 348.191 36.1537 348.294 36.0284C348.36 35.9471 348.414 35.8204 348.46 35.7084C348.499 35.6124 348.534 35.5311 348.574 35.4777C348.588 35.4604 348.607 35.4017 348.624 35.3471C348.691 35.1324 348.806 34.7724 349.19 34.7097C349.612 34.6417 350.046 34.2644 350.082 34.2017C350.107 34.1231 350.306 33.8137 350.512 33.7084C350.596 33.6671 350.791 33.4937 350.963 33.3404C351.347 33.0004 351.427 32.9297 351.508 32.9831C351.524 32.9951 351.544 33.0311 351.544 33.0524C351.547 33.1231 351.48 33.2044 351.254 33.4044C351.228 33.4284 351.208 33.4457 351.202 33.4537C351.184 33.4711 351.139 33.5071 350.958 33.6417C350.798 33.7604 350.499 33.9844 350.466 34.0271C350.454 34.0497 350.408 34.1177 350.355 34.1964C350.291 34.2897 350.184 34.4471 350.172 34.4791C350.139 34.5777 349.69 34.8951 349.534 34.9311C349.392 34.9617 349.09 35.1444 349.059 35.3031C349.055 35.3244 349.051 35.3497 349.047 35.3791C349.011 35.6097 348.946 36.0297 348.538 36.3711C348.538 36.3711 348.39 36.5364 348.212 36.5391C348.034 36.5417 347.87 36.7337 347.87 36.7337C347.804 36.8231 347.775 37.1471 348.276 37.1284C348.632 37.0577 349.383 37.0124 349.546 37.0004C349.74 36.9897 350.231 36.9604 350.86 37.4311C351.479 37.8937 352.38 37.6751 352.387 37.6737C352.403 37.6671 352.752 37.5777 352.832 37.6777C352.848 37.6964 352.854 37.7337 352.846 37.7577C352.792 37.8871 352.19 37.9577 352.184 37.9577ZM375.783 44.4044C375.154 41.7311 371.694 39.7644 370.356 39.2137C369.02 38.6631 365.01 37.6417 362.336 37.4057C359.662 37.1697 358.09 36.6977 355.887 36.5404C353.686 36.3831 350.462 35.8324 350.147 35.7537C349.832 35.6764 352.978 33.8671 354.315 33.4737C355.652 33.0804 356.595 32.1364 356.988 31.6657C357.382 31.1937 360.212 30.2497 361.156 30.0137C362.1 29.7777 362.572 29.5417 362.964 29.0697C363.358 28.5977 364.223 28.5191 364.852 27.8897C365.482 27.2617 365.482 26.9471 366.975 27.3404C368.47 27.7337 368.548 27.0257 369.335 27.4191C370.122 27.8124 371.3 27.3404 371.772 27.2617C372.244 27.1831 372.559 27.4977 372.795 28.2057C373.031 28.9124 373.267 29.4631 373.974 29.8564C374.682 30.2497 375.704 30.2497 375.783 28.8337C375.862 27.4191 375.704 25.4524 374.446 23.7231C373.187 21.9924 368.076 20.3417 363.672 22.2284C359.268 24.1164 349.763 32.7417 348.95 33.4191C348.267 33.9884 348.836 32.9631 348.836 32.9631C348.994 32.5697 349.859 31.5337 350.602 29.7724C351.111 28.5671 351.312 26.7924 352.02 25.6124C352.728 24.4324 353.396 22.1324 353.082 21.1897C352.767 20.2457 353.214 17.9817 353.607 17.3524C354 16.7244 354.394 15.6231 354.472 14.9937C354.551 14.3644 355.18 14.0497 355.731 13.4991C356.28 12.9497 357.46 13.4217 357.854 13.4991C358.247 13.5777 358.719 13.4991 359.19 13.1844C359.662 12.8711 360.134 13.0284 360.684 12.7911C361.235 12.5564 361.471 11.6124 361.471 11.6124C361.786 10.2751 360.055 8.38841 358.955 7.99507C357.854 7.60174 353.764 6.26441 350.54 9.41108C347.316 12.5564 346.215 19.0044 345.9 21.7564C345.586 24.5097 345.342 28.9084 345.351 32.2151C345.358 35.1764 344.44 32.8577 344.44 32.8577C343.74 31.7257 342.196 27.9364 342.096 25.8231C342.015 24.1244 339.266 22.0151 339.266 20.8364C339.266 19.6564 338.458 18.6257 337.954 18.1337C337.715 17.9017 337.167 17.6617 337.324 16.9551C337.482 16.2471 336.774 14.9884 336.618 14.6737C336.46 14.3591 336.543 13.2631 336.622 12.7911C336.7 12.3204 337.094 11.6124 337.722 11.3764C338.351 11.1404 338.98 10.1977 339.216 9.33241C339.452 8.46708 338.902 7.83774 338.272 7.44441C337.643 7.05108 334.34 7.12974 332.06 9.41108C329.78 11.6911 330.212 17.0391 330.212 17.0391C330.212 22.7004 333.162 25.5311 333.515 26.1217C333.87 26.7111 342.243 35.7937 342.243 35.7937C341.418 35.9511 338.115 33.7884 337.251 33.0804C336.386 32.3724 335.914 32.4511 334.812 32.6084C333.712 32.7657 332.532 32.1364 331.982 31.9804C331.431 31.8217 329.387 30.5644 328.364 29.2271C327.342 27.8897 326.006 28.2057 324.039 27.6537C322.074 27.1044 321.759 26.3964 321.759 25.4524C321.759 24.5097 322.466 24.1164 322.624 22.6217C322.782 21.1271 320.972 21.2071 320.658 21.2857C320.343 21.3644 317.906 21.7564 317.512 28.0471C317.119 34.3391 323.41 36.2257 324.59 36.6977C325.768 37.1697 327.578 37.5631 335.127 37.9564C342.676 38.3484 341.418 38.9004 341.418 38.9004L339.295 39.2924C337.172 39.6857 335.756 41.8884 335.206 42.6751C334.655 43.4604 332.847 44.0897 330.723 44.3257C328.6 44.5617 327.578 45.1124 327.106 45.5844C326.634 46.0564 326.399 46.7631 324.904 46.4497C323.41 46.1351 320.894 45.6631 320.264 45.8191C319.635 45.9777 318.692 44.4044 318.456 44.1684C318.22 43.9324 316.254 44.6404 317.198 49.1231C318.142 53.6044 322.074 53.9977 325.062 53.9191C328.05 53.8404 330.566 51.9537 332.532 50.3804C334.498 48.8084 338.43 46.5271 339.61 45.3471C340.79 44.1684 344.092 41.5737 344.328 41.5737C344.564 41.5737 344.879 43.6177 344.25 44.5617C343.62 45.5057 343.384 46.4497 343.227 47.2351C343.07 48.0217 342.991 48.3364 342.283 49.9084C341.575 51.4817 341.183 53.2911 340.79 56.0417C340.396 58.7951 336.307 59.7377 334.498 59.8177C332.69 59.8964 331.903 60.7617 331.274 62.4911C330.644 64.2204 332.454 66.2657 336.228 66.8164C340.003 67.3671 342.519 64.0644 342.598 63.3564C342.676 62.6484 343.935 60.5257 344.25 60.0537C344.564 59.5817 345.271 58.4017 345.586 56.9071C345.9 55.4137 346.608 50.4591 346.687 49.5951C346.766 48.7297 347.867 43.1457 348.102 43.4604C348.338 43.7751 348.654 45.3471 349.282 46.3711C349.911 47.3924 351.642 49.2017 352.663 50.3804C353.686 51.5604 354.079 52.1897 354.394 53.2124C354.708 54.2351 355.336 55.1777 355.102 56.3577C354.866 57.5377 355.102 58.3231 355.415 59.4244C355.731 60.5257 355.494 61.2324 355.102 62.3337C354.708 63.4337 353.214 63.1204 352.82 64.4564C352.427 65.7937 353.45 66.7364 353.922 66.8951C354.394 67.0524 356.752 67.2884 358.955 66.5804C361.156 65.8724 362.492 63.5924 362.572 59.3457C362.651 55.0991 358.324 49.9084 356.91 47.9431C355.494 45.9777 350.383 40.0791 350.383 40.0791C350.383 40.0791 351.956 40.3151 353.135 41.1017C354.315 41.8884 355.259 42.7537 356.988 42.6751C358.719 42.5964 359.348 43.0671 360.684 43.5404C362.022 44.0111 362.415 43.6964 363.358 43.6177C364.302 43.5404 364.144 43.6964 365.167 44.1684C366.188 44.6404 366.504 44.5617 366.898 44.7977C367.29 45.0337 368.627 46.0564 369.491 46.2124C370.356 46.3711 371.222 47.8644 371.064 48.6511C370.907 49.4364 371.064 49.3591 371.222 50.5377C371.379 51.7177 371.3 52.0324 371.694 52.5831C372.087 53.1337 373.346 52.5831 374.682 51.2457C376.019 49.9084 376.412 47.0777 375.783 44.4044" fill="#73253E"/>
</svg>
