<svg width="193" height="61" viewBox="0 0 193 61" fill="none" xmlns="http://www.w3.org/2000/svg">
<rect width="193" height="61" rx="30.5" fill="#18181B"/>
<path d="M79.4255 44.7362L77.6981 40.2975H70.6538L68.9713 44.7362H66.6157L72.9421 28.8421H75.4771L81.8035 44.7362H79.4255ZM74.1535 31.1287L71.439 38.2575H76.9129L74.1535 31.1287ZM85.8053 48.9956H83.7189V33.9533H85.7604V35.6347C86.0745 35.0668 86.5456 34.6035 87.1738 34.2448C87.8019 33.8861 88.5348 33.7068 89.3723 33.7068C90.9277 33.7068 92.1391 34.2373 93.0066 35.2984C93.889 36.3595 94.3302 37.7046 94.3302 39.3336C94.3302 40.9775 93.874 42.3376 92.9617 43.4136C92.0644 44.4896 90.8454 45.0277 89.305 45.0277C88.5123 45.0277 87.8094 44.8633 87.1962 44.5345C86.583 44.2057 86.1194 43.7872 85.8053 43.2791V48.9956ZM92.1765 39.3336C92.1765 38.2426 91.8849 37.3459 91.3016 36.6435C90.7333 35.9261 89.963 35.5674 88.9909 35.5674C88.0337 35.5674 87.256 35.9261 86.6578 36.6435C86.0745 37.3459 85.7829 38.2426 85.7829 39.3336C85.7829 40.4545 86.0745 41.3736 86.6578 42.091C87.256 42.7934 88.0337 43.1446 88.9909 43.1446C89.9481 43.1446 90.7183 42.7934 91.3016 42.091C91.8849 41.3736 92.1765 40.4545 92.1765 39.3336ZM99.1036 48.9956H97.0172V33.9533H99.0587V35.6347C99.3728 35.0668 99.8439 34.6035 100.472 34.2448C101.1 33.8861 101.833 33.7068 102.671 33.7068C104.226 33.7068 105.437 34.2373 106.305 35.2984C107.187 36.3595 107.629 37.7046 107.629 39.3336C107.629 40.9775 107.172 42.3376 106.26 43.4136C105.363 44.4896 104.144 45.0277 102.603 45.0277C101.811 45.0277 101.108 44.8633 100.495 44.5345C99.8813 44.2057 99.4177 43.7872 99.1036 43.2791V48.9956ZM105.475 39.3336C105.475 38.2426 105.183 37.3459 104.6 36.6435C104.032 35.9261 103.261 35.5674 102.289 35.5674C101.332 35.5674 100.554 35.9261 99.9561 36.6435C99.3728 37.3459 99.0812 38.2426 99.0812 39.3336C99.0812 40.4545 99.3728 41.3736 99.9561 42.091C100.554 42.7934 101.332 43.1446 102.289 43.1446C103.246 43.1446 104.017 42.7934 104.6 42.091C105.183 41.3736 105.475 40.4545 105.475 39.3336ZM126.289 32.4514L124.315 33.1463C124.21 32.4588 123.874 31.8386 123.305 31.2856C122.737 30.7177 121.952 30.4338 120.95 30.4338C120.067 30.4338 119.334 30.6878 118.751 31.196C118.167 31.7041 117.876 32.3318 117.876 33.0791C117.876 33.6619 118.048 34.1551 118.392 34.5586C118.751 34.9621 119.26 35.2386 119.918 35.3881L122.296 35.9037C123.612 36.1876 124.629 36.7257 125.347 37.5178C126.065 38.2949 126.424 39.2439 126.424 40.3648C126.424 41.6501 125.915 42.756 124.898 43.6826C123.881 44.6092 122.557 45.0725 120.927 45.0725C119.147 45.0725 117.749 44.6092 116.732 43.6826C115.73 42.7411 115.146 41.6277 114.982 40.3424L117.091 39.6699C117.18 40.6263 117.554 41.4334 118.212 42.091C118.871 42.7485 119.768 43.0773 120.905 43.0773C121.952 43.0773 122.759 42.8382 123.328 42.36C123.896 41.8817 124.18 41.2765 124.18 40.5441C124.18 39.9463 123.978 39.4307 123.574 38.9973C123.171 38.549 122.58 38.2426 121.802 38.0782L119.536 37.585C118.354 37.3309 117.412 36.8303 116.709 36.083C116.006 35.3358 115.655 34.3868 115.655 33.236C115.655 31.9806 116.163 30.8821 117.18 29.9406C118.212 28.9841 119.454 28.5059 120.905 28.5059C122.535 28.5059 123.784 28.9019 124.651 29.694C125.519 30.4861 126.065 31.4052 126.289 32.4514ZM131.83 30.5459V33.9533H134.163V35.8588H131.83V41.4633C131.83 41.9714 131.942 42.345 132.167 42.5841C132.406 42.8233 132.795 42.9428 133.333 42.9428C133.647 42.9428 133.924 42.9129 134.163 42.8532V44.6466C133.804 44.7811 133.326 44.8483 132.727 44.8483C131.8 44.8483 131.067 44.5793 130.529 44.0413C129.991 43.5033 129.721 42.7485 129.721 41.7771V35.8588H127.657V33.9533H128.241C128.794 33.9533 129.205 33.8039 129.475 33.505C129.759 33.1911 129.901 32.7876 129.901 32.2944V30.5459H131.83ZM139.089 42.1806C139.747 42.8532 140.547 43.1894 141.49 43.1894C142.432 43.1894 143.224 42.8532 143.868 42.1806C144.526 41.4932 144.855 40.5441 144.855 39.3336C144.855 38.138 144.526 37.2039 143.868 36.5314C143.224 35.8439 142.432 35.5002 141.49 35.5002C140.547 35.5002 139.747 35.8439 139.089 36.5314C138.446 37.2039 138.124 38.138 138.124 39.3336C138.124 40.5441 138.446 41.4932 139.089 42.1806ZM137.519 35.2536C138.566 34.1626 139.889 33.6171 141.49 33.6171C143.09 33.6171 144.406 34.1626 145.438 35.2536C146.485 36.3296 147.008 37.6896 147.008 39.3336C147.008 40.9925 146.492 42.3674 145.46 43.4584C144.428 44.5345 143.105 45.0725 141.49 45.0725C139.874 45.0725 138.551 44.5345 137.519 43.4584C136.487 42.3674 135.971 40.9925 135.971 39.3336C135.971 37.6896 136.487 36.3296 137.519 35.2536ZM155.697 33.8413V36.083C155.383 36.0382 155.076 36.0158 154.777 36.0158C152.803 36.0158 151.816 37.1217 151.816 39.3336V44.7362H149.707V33.9533H151.771V35.8364C152.429 34.4615 153.506 33.774 155.001 33.774C155.24 33.774 155.472 33.7964 155.697 33.8413ZM159.203 38.2351H165.103C165.073 37.4281 164.804 36.7705 164.295 36.2624C163.787 35.7393 163.069 35.4777 162.142 35.4777C161.304 35.4777 160.616 35.7542 160.078 36.3072C159.539 36.8452 159.248 37.4879 159.203 38.2351ZM165.417 41.0373L167.234 41.665C166.92 42.6663 166.337 43.4883 165.484 44.131C164.632 44.7587 163.6 45.0725 162.388 45.0725C160.878 45.0725 159.592 44.5569 158.53 43.5257C157.483 42.4795 156.959 41.0747 156.959 39.3112C156.959 37.6672 157.468 36.3072 158.485 35.2312C159.502 34.1551 160.713 33.6171 162.119 33.6171C163.749 33.6171 165.021 34.1327 165.933 35.1639C166.845 36.1802 167.301 37.5476 167.301 39.2663C167.301 39.5353 167.286 39.7595 167.257 39.9389H159.135C159.15 40.8953 159.464 41.68 160.078 42.2927C160.706 42.9055 161.476 43.2118 162.388 43.2118C163.929 43.2118 164.938 42.487 165.417 41.0373Z" fill="white"/>
<path opacity="0.6" d="M68.2629 19.0899V15.2212H69.2115C70.2029 15.2212 71.0233 15.8447 71.0233 17.1598C71.0233 18.475 70.1943 19.0899 69.203 19.0899H68.2629ZM69.2457 20.183C70.972 20.183 72.2454 19.0728 72.2454 17.1598C72.2454 15.2468 70.9806 14.1281 69.2542 14.1281H67.0835V20.183H69.2457ZM75.1993 17.1513C75.1993 15.7849 76.1565 15.1358 77.0881 15.1358C78.0282 15.1358 78.9853 15.7849 78.9853 17.1513C78.9853 18.5177 78.0282 19.1667 77.0881 19.1667C76.1565 19.1667 75.1993 18.5177 75.1993 17.1513ZM73.9772 17.1598C73.9772 19.107 75.4472 20.3111 77.0881 20.3111C78.7375 20.3111 80.2075 19.107 80.2075 17.1598C80.2075 15.2041 78.7375 14 77.0881 14C75.4472 14 73.9772 15.2041 73.9772 17.1598ZM87.7812 18.3127L86.4308 14.1281H85.2087L83.867 18.2956L82.756 14.1281H81.5082L83.1918 20.183H84.4225L85.807 15.8703L87.1915 20.183H88.405L90.0801 14.1281H88.8751L87.7812 18.3127ZM97.1166 20.183V14.1281H95.9372V18.1334L93.416 14.1281H91.9461V20.183H93.1255V15.8874L95.8774 20.183H97.1166ZM103.446 20.183V19.0557H100.745V14.1281H99.566V20.183H103.446ZM106.079 17.1513C106.079 15.7849 107.037 15.1358 107.968 15.1358C108.908 15.1358 109.865 15.7849 109.865 17.1513C109.865 18.5177 108.908 19.1667 107.968 19.1667C107.037 19.1667 106.079 18.5177 106.079 17.1513ZM104.857 17.1598C104.857 19.107 106.327 20.3111 107.968 20.3111C109.618 20.3111 111.087 19.107 111.087 17.1598C111.087 15.2041 109.618 14 107.968 14C106.327 14 104.857 15.2041 104.857 17.1598ZM116.997 20.183H118.279L115.971 14.1281H114.604L112.279 20.183H113.527L114.031 18.7995H116.493L116.997 20.183ZM115.262 15.4347L116.1 17.7235H114.424L115.262 15.4347ZM121.301 19.0899V15.2212H122.25C123.241 15.2212 124.061 15.8447 124.061 17.1598C124.061 18.475 123.232 19.0899 122.241 19.0899H121.301ZM122.284 20.183C124.01 20.183 125.284 19.0728 125.284 17.1598C125.284 15.2468 124.019 14.1281 122.292 14.1281H120.122V20.183H122.284ZM131.418 17.1513C131.418 15.7849 132.375 15.1358 133.306 15.1358C134.246 15.1358 135.204 15.7849 135.204 17.1513C135.204 18.5177 134.246 19.1667 133.306 19.1667C132.375 19.1667 131.418 18.5177 131.418 17.1513ZM130.196 17.1598C130.196 19.107 131.665 20.3111 133.306 20.3111C134.956 20.3111 136.426 19.107 136.426 17.1598C136.426 15.2041 134.956 14 133.306 14C131.665 14 130.196 15.2041 130.196 17.1598ZM143.687 20.183V14.1281H142.507V18.1334L139.986 14.1281H138.516V20.183H139.696V15.8874L142.448 20.183H143.687ZM153.778 15.2468V14.1281H148.761V15.2468H150.676V20.183H151.864V15.2468H153.778ZM160.684 20.183V14.1281H159.496V16.562H156.856V14.1281H155.676V20.183H156.856V17.6722H159.496V20.183H160.684ZM166.932 20.183V19.0728H164.316V17.6722H166.684V16.6218H164.316V15.2383H166.932V14.1281H163.137V20.183H166.932Z" fill="white"/>
<path d="M52.3685 38.3489C51.6748 39.884 51.3436 40.5693 50.4503 41.9257C49.2058 43.8198 47.4497 46.179 45.2737 46.199C43.3409 46.217 42.8442 44.942 40.2201 44.9574C37.5962 44.9727 37.0494 46.2217 35.1164 46.2037C32.9404 46.1844 31.278 44.0539 30.032 42.1585C26.5494 36.861 26.1856 30.6448 28.3334 27.3402C29.8598 24.9903 32.2688 23.6173 34.5329 23.6173C36.8384 23.6173 38.2879 24.8802 40.1948 24.8802C42.0442 24.8802 43.1706 23.6152 45.8366 23.6152C47.8517 23.6152 49.9869 24.7115 51.5086 26.6055C46.523 29.335 47.3336 36.4467 52.3685 38.3489Z" fill="white"/>
<path d="M44.0953 20.3005C45.0641 19.0581 45.7985 17.3055 45.5314 15.5127C43.9491 15.6208 42.0996 16.627 41.0193 17.938C40.0385 19.1276 39.2286 20.8923 39.5437 22.6076C41.2697 22.6617 43.0571 21.6308 44.0953 20.3005Z" fill="white"/>
</svg>
