<svg width="202" height="61" viewBox="0 0 202 61" fill="none" xmlns="http://www.w3.org/2000/svg">
<rect width="202" height="61" rx="30.5" fill="#18181B"/>
<path d="M75.0765 44.5019H73.3036L73.1016 42.2601C72.7127 42.9625 72.0768 43.5678 71.1941 44.0759C70.3114 44.5841 69.2492 44.8381 68.0074 44.8381C66.646 44.8381 65.3893 44.5318 64.2373 43.919C63.0853 43.2913 62.1353 42.3348 61.3872 41.0495C60.6541 39.7643 60.2876 38.2623 60.2876 36.5436C60.2876 34.8249 60.6766 33.3229 61.4545 32.0376C62.2325 30.7524 63.205 29.8034 64.3719 29.1906C65.5538 28.5779 66.818 28.2715 68.1645 28.2715C69.8701 28.2715 71.3512 28.7124 72.6079 29.5941C73.8796 30.4609 74.7473 31.6192 75.2111 33.0689L73.2138 33.9207C72.8548 32.77 72.2264 31.8807 71.3288 31.253C70.4461 30.6104 69.3913 30.2891 68.1645 30.2891C66.6236 30.2891 65.2995 30.8346 64.1924 31.9256C63.0853 33.0166 62.5317 34.5559 62.5317 36.5436C62.5317 38.5462 63.0703 40.1005 64.1475 41.2065C65.2397 42.2975 66.5487 42.843 68.0748 42.843C68.9126 42.843 69.6531 42.7085 70.2965 42.4394C70.9547 42.1704 71.4634 41.8192 71.8225 41.3858C72.1965 40.9375 72.4733 40.4891 72.6528 40.0408C72.8473 39.5924 72.9595 39.144 72.9894 38.6957H67.4688V36.7229H75.0765V44.5019ZM80.4545 41.9463C81.1128 42.6188 81.9132 42.955 82.8557 42.955C83.7983 42.955 84.5912 42.6188 85.2345 41.9463C85.8928 41.2588 86.2219 40.3098 86.2219 39.0992C86.2219 37.9036 85.8928 36.9695 85.2345 36.297C84.5912 35.6095 83.7983 35.2658 82.8557 35.2658C81.9132 35.2658 81.1128 35.6095 80.4545 36.297C79.8112 36.9695 79.4895 37.9036 79.4895 39.0992C79.4895 40.3098 79.8112 41.2588 80.4545 41.9463ZM78.8836 35.0192C79.9309 33.9282 81.2549 33.3827 82.8557 33.3827C84.4566 33.3827 85.7731 33.9282 86.8054 35.0192C87.8527 36.0952 88.3763 37.4552 88.3763 39.0992C88.3763 40.7581 87.8602 42.1331 86.8279 43.2241C85.7956 44.3001 84.4715 44.8381 82.8557 44.8381C81.24 44.8381 79.9159 44.3001 78.8836 43.2241C77.8513 42.1331 77.3352 40.7581 77.3352 39.0992C77.3352 37.4552 77.8513 36.0952 78.8836 35.0192ZM93.297 41.9463C93.9552 42.6188 94.7557 42.955 95.6982 42.955C96.6407 42.955 97.4337 42.6188 98.077 41.9463C98.7353 41.2588 99.0644 40.3098 99.0644 39.0992C99.0644 37.9036 98.7353 36.9695 98.077 36.297C97.4337 35.6095 96.6407 35.2658 95.6982 35.2658C94.7557 35.2658 93.9552 35.6095 93.297 36.297C92.6536 36.9695 92.332 37.9036 92.332 39.0992C92.332 40.3098 92.6536 41.2588 93.297 41.9463ZM91.7261 35.0192C92.7733 33.9282 94.0974 33.3827 95.6982 33.3827C97.299 33.3827 98.6156 33.9282 99.6479 35.0192C100.695 36.0952 101.219 37.4552 101.219 39.0992C101.219 40.7581 100.703 42.1331 99.6703 43.2241C98.638 44.3001 97.314 44.8381 95.6982 44.8381C94.0824 44.8381 92.7584 44.3001 91.7261 43.2241C90.6938 42.1331 90.1776 40.7581 90.1776 39.0992C90.1776 37.4552 90.6938 36.0952 91.7261 35.0192ZM103.132 45.0847L105.174 44.614C105.249 45.3762 105.556 46.0038 106.095 46.497C106.633 47.0052 107.306 47.2592 108.114 47.2592C110.314 47.2592 111.413 46.0935 111.413 43.7621V42.2153C111.144 42.7383 110.717 43.1643 110.134 43.4931C109.565 43.8219 108.892 43.9863 108.114 43.9863C106.678 43.9863 105.489 43.5005 104.546 42.5291C103.619 41.5427 103.155 40.2873 103.155 38.7629C103.155 37.2834 103.619 36.0429 104.546 35.0416C105.474 34.0253 106.663 33.5172 108.114 33.5172C109.76 33.5172 110.867 34.0851 111.436 35.221V33.719H113.523V43.6948C113.523 44.4122 113.426 45.0773 113.231 45.69C113.052 46.3177 112.76 46.8931 112.356 47.4162C111.952 47.9392 111.383 48.3502 110.65 48.6491C109.932 48.948 109.087 49.0975 108.114 49.0975C106.783 49.0975 105.653 48.7164 104.726 47.9542C103.798 47.2069 103.267 46.2504 103.132 45.0847ZM108.428 42.2153C109.341 42.2153 110.082 41.9014 110.65 41.2737C111.219 40.6311 111.503 39.7942 111.503 38.7629C111.503 37.7317 111.219 36.9023 110.65 36.2746C110.082 35.6319 109.341 35.3106 108.428 35.3106C107.501 35.3106 106.745 35.6245 106.162 36.2522C105.593 36.8799 105.309 37.7168 105.309 38.7629C105.309 39.824 105.586 40.6684 106.139 41.2961C106.708 41.9089 107.471 42.2153 108.428 42.2153ZM119.001 44.5019H116.891V28.2715H119.001V44.5019ZM123.958 38.0007H129.86C129.83 37.1937 129.561 36.5361 129.052 36.028C128.544 35.5049 127.826 35.2434 126.898 35.2434C126.06 35.2434 125.372 35.5199 124.833 36.0728C124.295 36.6109 124.003 37.2535 123.958 38.0007ZM130.174 40.803L131.992 41.4306C131.678 42.432 131.094 43.2539 130.242 43.8966C129.389 44.5243 128.357 44.8381 127.145 44.8381C125.634 44.8381 124.347 44.3225 123.285 43.2913C122.238 42.2452 121.714 40.8403 121.714 39.0768C121.714 37.4328 122.223 36.0728 123.24 34.9968C124.257 33.9207 125.469 33.3827 126.875 33.3827C128.506 33.3827 129.778 33.8983 130.691 34.9295C131.603 35.9458 132.059 37.3133 132.059 39.032C132.059 39.301 132.045 39.5251 132.015 39.7045H123.891C123.906 40.661 124.22 41.4456 124.833 42.0583C125.462 42.6711 126.232 42.9775 127.145 42.9775C128.686 42.9775 129.696 42.2526 130.174 40.803ZM142.786 36.028H145.973C146.916 36.028 147.664 35.7889 148.217 35.3106C148.771 34.8174 149.048 34.1599 149.048 33.3379C149.048 32.5009 148.771 31.8359 148.217 31.3427C147.664 30.8346 146.916 30.5805 145.973 30.5805H142.786V36.028ZM146.377 38.0007H142.786V44.5019H140.587V28.6077H146.377C147.828 28.6077 149.01 29.0561 149.923 29.9528C150.835 30.8495 151.292 31.9704 151.292 33.3155C151.292 34.6755 150.835 35.7963 149.923 36.6781C149.01 37.5599 147.828 38.0007 146.377 38.0007ZM155.643 44.5019H153.534V28.2715H155.643V44.5019ZM158.558 41.61C158.558 40.6834 158.858 39.9436 159.456 39.3906C160.055 38.8227 160.848 38.4715 161.835 38.337L164.752 37.9111C165.306 37.8364 165.583 37.5673 165.583 37.104C165.583 36.5361 165.388 36.0728 164.999 35.7141C164.61 35.3555 164.027 35.1761 163.249 35.1761C162.531 35.1761 161.962 35.3779 161.543 35.7814C161.124 36.17 160.877 36.693 160.803 37.3506L158.783 36.8799C158.888 35.8487 159.359 35.0117 160.197 34.3691C161.035 33.7115 162.037 33.3827 163.204 33.3827C164.73 33.3827 165.859 33.7563 166.592 34.5036C167.326 35.2359 167.692 36.1774 167.692 37.3282V42.7309C167.692 43.3735 167.737 43.9638 167.827 44.5019H165.762C165.687 44.0535 165.65 43.5678 165.65 43.0447C165.351 43.523 164.909 43.9414 164.326 44.3001C163.757 44.6588 163.039 44.8381 162.172 44.8381C161.109 44.8381 160.242 44.5243 159.568 43.8966C158.895 43.2539 158.558 42.4917 158.558 41.61ZM162.463 43.0671C163.406 43.0671 164.161 42.8131 164.73 42.3049C165.298 41.7968 165.583 40.9898 165.583 39.8838V39.3906L162.284 39.8838C161.805 39.9586 161.423 40.1304 161.139 40.3994C160.855 40.6684 160.713 41.0346 160.713 41.4979C160.713 41.9164 160.87 42.2825 161.184 42.5964C161.513 42.9102 161.94 43.0671 162.463 43.0671ZM173.453 49.0078H171.142L173.835 43.3137L169.189 33.719H171.613L174.979 41.1616L178.211 33.719H180.477L173.453 49.0078Z" fill="white"/>
<path opacity="0.6" d="M66.5273 19.9486V16.7973H63.5009V17.8222H65.4159C65.3475 18.2492 64.9115 19.0007 63.7916 19.0007C62.7742 19.0007 61.8766 18.2919 61.8766 16.9254C61.8766 15.4907 62.8683 14.8673 63.783 14.8673C64.7662 14.8673 65.2706 15.4907 65.4244 16.0287L66.5529 15.6274C66.2537 14.6965 65.3731 13.7656 63.783 13.7656C62.1416 13.7656 60.6797 14.9698 60.6797 16.9254C60.6797 18.8811 62.0732 20.0767 63.7061 20.0767C64.6208 20.0767 65.2193 19.6668 65.4928 19.2569L65.5698 19.9486H66.5273ZM73.1165 19.9486V18.8384H70.5005V17.4378H72.8686V16.3874H70.5005V15.0039H73.1165V13.8937H69.3207V19.9486H73.1165ZM80.4623 15.0125V13.8937H75.444V15.0125H77.359V19.9486H78.5473V15.0125H80.4623ZM87.8078 19.9486V13.8937H86.6109V19.9486H87.8078ZM95.2563 15.0125V13.8937H90.238V15.0125H92.153V19.9486H93.3413V15.0125H95.2563ZM102.268 16.9169C102.268 15.5505 103.226 14.9015 104.158 14.9015C105.098 14.9015 106.056 15.5505 106.056 16.9169C106.056 18.2833 105.098 18.9324 104.158 18.9324C103.226 18.9324 102.268 18.2833 102.268 16.9169ZM101.046 16.9254C101.046 18.8726 102.516 20.0767 104.158 20.0767C105.808 20.0767 107.278 18.8726 107.278 16.9254C107.278 14.9698 105.808 13.7656 104.158 13.7656C102.516 13.7656 101.046 14.9698 101.046 16.9254ZM115.077 19.9486V13.8937H113.897V17.899L111.374 13.8937H109.904V19.9486H111.084V15.653L113.837 19.9486H115.077Z" fill="white"/>
<path d="M26.2123 44.0639C25.5794 44.4726 24.8192 44.5961 24.106 44.4278L36.638 31.9092L40.6996 35.9665L26.2123 44.0639Z" fill="white"/>
<path d="M22.5507 43.4104C22.2012 42.9463 22 42.3763 22 41.7734V19.4739C22 18.871 22.2012 18.3011 22.5507 17.8369L35.351 30.6236L22.5507 43.4104Z" fill="white"/>
<path d="M46.0008 33.004L42.3504 35.0442L37.9253 30.6238L42.3507 26.2031L46.0014 28.2436C46.876 28.733 47.3981 29.6228 47.3981 30.6238C47.3981 31.6248 46.876 32.5144 46.0008 33.004Z" fill="white"/>
<path d="M36.6381 29.3383L24.1069 16.8204C24.3123 16.772 24.5215 16.7461 24.7305 16.7461C25.2473 16.7461 25.7621 16.8929 26.2126 17.1836L40.6999 25.2809L36.6381 29.3383Z" fill="white"/>
</svg>
