<svg width="29" height="35" viewBox="0 0 29 35" fill="none" xmlns="http://www.w3.org/2000/svg">
<path d="M27.188 17.6042L27.4217 17.8379C27.8156 18.2293 28.1237 18.6984 28.3264 19.2154C28.6181 19.951 28.6881 20.7559 28.5278 21.5308C28.3674 22.3057 27.9837 23.0168 27.424 23.5762L17.3708 33.627C16.9939 34.0041 16.5465 34.3032 16.054 34.5072C15.5615 34.7113 15.0336 34.8163 14.5005 34.8163C13.9674 34.8163 13.4396 34.7113 12.9471 34.5072C12.4546 34.3032 12.0071 34.0041 11.6303 33.627L1.58019 23.5762C1.20331 23.1996 0.904384 22.7523 0.700514 22.2601C0.496649 21.7678 0.39184 21.2403 0.39209 20.7074C0.392341 20.1746 0.497646 19.6471 0.701974 19.1551C0.906305 18.663 1.20565 18.2161 1.58289 17.8399L1.81657 17.6062L8.38138 24.169H20.6213L27.188 17.6042Z" fill="url(#paint0_linear_155_3036)"/>
<g style="mix-blend-mode:multiply" opacity="0.2">
<g style="mix-blend-mode:multiply" opacity="0.2">
<path d="M27.1871 17.6042L27.4208 17.8379C27.8148 18.2293 28.1229 18.6984 28.3255 19.2154L21.2198 26.318H8.21729L0.810547 18.9113C1.00682 18.5138 1.26693 18.1512 1.58052 17.8379L1.81421 17.6042L8.38052 24.169H20.6204L27.1871 17.6042Z" fill="black"/>
</g>
</g>
<path d="M1.81396 17.6044L8.37914 24.1696H20.6217L27.1873 17.6044L14.5008 4.91797L1.81396 17.6044Z" fill="url(#paint1_linear_155_3036)"/>
<path d="M16.7027 0.913216L28.0879 12.2988C28.5207 12.7316 28.8163 13.2824 28.9379 13.8822C29.0595 14.4821 29.0017 15.1045 28.7717 15.6717C28.7552 15.7201 28.735 15.7673 28.7112 15.8126C28.5569 16.1432 28.3459 16.4443 28.0879 16.7023L20.6192 24.1691H8.38089L0.912132 16.7023C0.622953 16.4132 0.393562 16.0699 0.237058 15.6921C0.0805531 15.3144 0 14.9095 0 14.5005C0 14.0916 0.0805531 13.6867 0.237058 13.309C0.393562 12.9312 0.622953 12.5879 0.912132 12.2988L12.2977 0.913216C12.5868 0.623714 12.9302 0.39405 13.3081 0.23735C13.686 0.0806512 14.0911 0 14.5002 0C14.9093 0 15.3145 0.0806512 15.6924 0.23735C16.0703 0.39405 16.4136 0.623714 16.7027 0.913216Z" fill="url(#paint2_linear_155_3036)"/>
<g style="mix-blend-mode:screen" opacity="0.5">
<g style="mix-blend-mode:screen" opacity="0.5">
<path d="M16.7022 0.913272L25.3505 9.56044C25.3505 9.56044 25.1318 9.37719 24.7599 9.05034C24.388 8.72348 23.8525 8.25881 23.2292 7.68556C22.6059 7.11232 21.8795 6.43666 21.1118 5.70019C20.3441 4.96371 19.5434 4.17217 18.7391 3.37796L17.553 2.17641C17.1607 1.79143 16.7788 1.36794 16.4192 1.0176C16.0804 0.690203 15.6665 0.45093 15.2138 0.320776C14.8013 0.202348 14.3687 0.170636 13.9433 0.22762C13.578 0.282093 13.225 0.400274 12.9004 0.576794C12.6463 0.721141 12.4107 0.895928 12.199 1.09729C11.8271 1.42415 11.6084 1.6024 11.6084 1.6024L12.2971 0.913657C12.5862 0.624136 12.9295 0.394434 13.3074 0.2377C13.6853 0.0809684 14.0904 0.000279906 14.4996 0.000244153C14.9087 0.000208395 15.3138 0.0808344 15.6918 0.2375C16.0697 0.394168 16.413 0.623797 16.7022 0.913272Z" fill="white"/>
</g>
</g>
<g style="mix-blend-mode:multiply" opacity="0.2">
<g style="mix-blend-mode:multiply" opacity="0.2">
<path d="M28.7719 15.6717C28.7554 15.7202 28.7352 15.7673 28.7114 15.8126C28.5571 16.1432 28.3461 16.4443 28.0881 16.7023L27.1861 17.6043L27.2389 17.6571L26.942 17.9689L24.9039 20.1079L20.7969 24.3439L20.7268 24.4144H20.6209L14.4997 24.4621C12.4592 24.4671 10.4188 24.4748 8.37838 24.4648H8.25287L8.16933 24.3824C5.98519 22.1882 3.8145 19.9824 1.65729 17.7649L1.81552 17.6063L0.913107 16.7042C0.623932 16.4151 0.394538 16.0719 0.238035 15.6941C0.0815296 15.3163 0.000976559 14.9114 0.000976563 14.5025C0.000976559 14.0936 0.0815296 13.6887 0.238035 13.3109C0.394538 12.9331 0.623932 12.5899 0.913107 12.3008L3.8186 9.39526L2.13967 11.1747L1.29771 12.0601C1.00789 12.3319 0.757534 12.6429 0.553915 12.9841C0.17108 13.667 0.070889 14.4727 0.274801 15.2286C0.373349 15.5995 0.546095 15.9465 0.782597 16.2488C1.04381 16.5497 1.32237 16.8351 1.61686 17.1035C1.73506 17.2166 1.85555 17.3321 1.97143 17.45C4.16559 19.5735 6.34207 21.7148 8.5008 23.8738C10.4992 23.8664 12.4981 23.8681 14.4977 23.8788L20.5224 23.9216L24.6802 19.8877L26.8192 17.8496L27.1311 17.5527L27.8899 16.834C28.0734 16.6724 28.2424 16.495 28.395 16.3038C28.5453 16.1089 28.6718 15.8966 28.7719 15.6717Z" fill="black"/>
</g>
</g>
<g style="mix-blend-mode:multiply" opacity="0.2">
<g style="mix-blend-mode:multiply" opacity="0.2">
<path d="M26.2707 24.7288L17.3702 33.627C16.9933 34.004 16.5459 34.3031 16.0533 34.5072C15.5609 34.7113 15.033 34.8163 14.4999 34.8163C13.9668 34.8163 13.4389 34.7113 12.9464 34.5072C12.454 34.3031 12.0065 34.004 11.6296 33.627L2.31104 24.3076C2.31104 24.3076 2.68062 24.6468 3.33163 25.2424C3.96724 25.8479 4.89737 26.6926 5.98303 27.7382C7.06869 28.7839 8.34569 29.99 9.69006 31.3098C10.3611 31.9708 11.0575 32.6518 11.7613 33.3456C12.4125 34.0206 13.2898 34.4318 14.2252 34.5005C15.1546 34.5758 16.0784 34.2995 16.8139 33.7263C16.9043 33.6663 16.9975 33.5681 17.0907 33.4903L17.1557 33.4299L17.1707 33.4199C17.1684 33.4172 17.1811 33.4099 17.1811 33.4099L17.3444 33.2466C17.5203 33.0757 17.6909 32.9047 17.8672 32.7338C18.2137 32.397 18.5559 32.0601 18.8901 31.7309C20.2375 30.4139 21.5142 29.2073 22.5971 28.1594C23.6801 27.1115 24.6129 26.2695 25.2535 25.6635C25.9015 25.0664 26.2707 24.7288 26.2707 24.7288Z" fill="black"/>
</g>
</g>
<g style="mix-blend-mode:screen" opacity="0.3">
<g style="mix-blend-mode:screen" opacity="0.3">
<path d="M15.6975 1.91876L27.0831 13.304C27.2407 13.4616 27.3653 13.6491 27.4498 13.8554C27.5343 14.0616 27.5771 14.2826 27.5755 14.5055H1.42684C1.42469 14.2825 1.46718 14.0613 1.55181 13.855C1.63644 13.6486 1.7615 13.4613 1.91962 13.304L13.3048 1.91876C13.6224 1.60197 14.0526 1.42407 14.5012 1.42407C14.9497 1.42407 15.38 1.60197 15.6975 1.91876Z" fill="white"/>
</g>
</g>
<defs>
<linearGradient id="paint0_linear_155_3036" x1="62.1086" y1="135.628" x2="68.1914" y2="119.248" gradientUnits="userSpaceOnUse">
<stop stop-color="#233B55"/>
<stop offset="1" stop-color="#131D32"/>
</linearGradient>
<linearGradient id="paint1_linear_155_3036" x1="62.1009" y1="135.617" x2="71.3468" y2="119.537" gradientUnits="userSpaceOnUse">
<stop stop-color="#EE0979"/>
<stop offset="0.322" stop-color="#F32555"/>
<stop offset="1" stop-color="#FF6A00"/>
</linearGradient>
<linearGradient id="paint2_linear_155_3036" x1="70.4409" y1="127.275" x2="87.2525" y2="103.096" gradientUnits="userSpaceOnUse">
<stop stop-color="#FCC400"/>
<stop offset="0.162" stop-color="#FBC000"/>
<stop offset="0.307" stop-color="#FBB500"/>
<stop offset="0.446" stop-color="#FBA300"/>
<stop offset="0.581" stop-color="#FA8900"/>
<stop offset="0.712" stop-color="#FA6800"/>
<stop offset="0.842" stop-color="#F93F00"/>
<stop offset="0.967" stop-color="#F81000"/>
<stop offset="1" stop-color="#F80300"/>
</linearGradient>
</defs>
</svg>
