<svg width="39" height="39" viewBox="0 0 39 39" fill="none" xmlns="http://www.w3.org/2000/svg">
<path d="M24.0009 8.99964C19.0307 8.99964 9.07473 4.97049 9.07473 0H9.00114C9.00114 3.97815 10.5814 7.79336 13.3943 10.6064C16.2072 13.4194 20.0224 14.9998 24.0005 15C26.3874 15 28.6766 15.9482 30.3645 17.636C32.0524 19.3237 33.0005 21.6129 33.0005 23.9998C33.0011 26.3867 32.0533 28.6762 30.3658 30.3643C28.6783 32.0525 26.3893 33.0011 24.0024 33.0017C21.6154 33.002 19.326 32.0542 17.6378 30.3667C15.9497 28.6792 15.001 26.3902 15.0005 24.0034C15.0005 22.0335 14.6124 20.0829 13.8586 18.2631C13.1047 16.4432 11.9997 14.7897 10.6068 13.3968C9.21387 12.004 7.56026 10.8991 5.74033 10.1454C3.92042 9.39161 1.96984 9.00369 0 9.00376V9.07677C4.96955 9.07677 8.99872 19.0284 9.00058 23.9996H8.99964C8.99962 26.9664 9.87929 29.8665 11.5275 32.3332C13.1756 34.8 15.5183 36.7226 18.2591 37.8579C21 38.9934 24.0159 39.2906 26.9257 38.7118C29.8354 38.1332 32.5082 36.7046 34.6061 34.607C36.7038 32.5093 38.1326 29.8367 38.7116 26.9269C39.2906 24.0172 38.9936 21.0013 37.8585 18.2603C36.7234 15.5194 34.8009 13.1766 32.3344 11.5282C29.8676 9.8798 26.9675 8.99986 24.0009 8.99964Z" fill="url(#paint0_linear_155_3034)"/>
<defs>
<linearGradient id="paint0_linear_155_3034" x1="31.083" y1="33.735" x2="8.42399" y2="2.613" gradientUnits="userSpaceOnUse">
<stop offset="0.295" stop-color="#E73959"/>
<stop offset="0.384" stop-color="#E73D58"/>
<stop offset="0.477" stop-color="#E74955"/>
<stop offset="0.571" stop-color="#E95E51"/>
<stop offset="0.666" stop-color="#EA7B4B"/>
<stop offset="0.761" stop-color="#EDA044"/>
<stop offset="0.857" stop-color="#EFCE3B"/>
<stop offset="0.868" stop-color="#F0D43A"/>
</linearGradient>
</defs>
</svg>
