<svg width="58" height="35" viewBox="0 0 58 35" fill="none" xmlns="http://www.w3.org/2000/svg">
<path d="M54.1978 3.83539C51.9545 1.59258 48.9687 0.247044 45.8024 0.0520076C42.6362 -0.143029 39.5078 0.825882 37.0061 2.7764C34.7218 1.00157 31.9113 0.0378619 29.0183 0.0373013C26.1254 0.0367408 23.3147 0.999362 21.0296 2.7733C18.4234 0.728316 15.135 -0.244836 11.8356 0.0525184C8.53628 0.349872 5.47485 1.89531 3.27631 4.37332C1.07778 6.85133 -0.0920438 10.075 0.00566243 13.3863C0.103369 16.6976 1.46124 19.8468 3.80206 22.1908L11.7962 30.1861C11.8024 30.1921 11.8086 30.1979 11.8156 30.2041C11.8226 30.2103 11.8245 30.2132 11.8289 30.2177C11.8373 30.226 11.8462 30.2335 11.8545 30.2418C11.9816 30.3676 12.1105 30.4901 12.2415 30.6095C12.3088 30.6712 12.3769 30.731 12.4454 30.7912C12.501 30.8395 12.5569 30.8875 12.613 30.9349C14.8918 32.8658 17.7657 33.9538 20.7519 34.0157C23.7383 34.0779 26.6548 33.1104 29.0119 31.2757C31.5136 33.2261 34.642 34.1951 37.8082 34.0001C40.9745 33.805 43.9603 32.4595 46.2037 30.2167L54.198 22.2225C56.6328 19.7824 58 16.476 58 13.0289C58 9.58184 56.6326 6.27556 54.1978 3.83539ZM29.0158 3.42363C30.9165 3.42241 32.7748 3.98511 34.3555 5.04049C35.9363 6.09586 37.1683 7.59646 37.8958 9.35237C38.6234 11.1083 38.8136 13.0406 38.4424 14.9046C38.0713 16.7687 37.1555 18.4808 35.8109 19.8242L29.0158 26.6191L22.2205 19.8242C20.8759 18.4808 19.9601 16.7687 19.589 14.9046C19.2179 13.0405 19.4081 11.1082 20.1356 9.3523C20.8632 7.59636 22.0953 6.09576 23.676 5.04041C25.2568 3.98506 27.1151 3.42238 29.0158 3.42363ZM11.4114 21.0234C11.4079 19.7609 11.6549 18.5103 12.1381 17.3439C12.6212 16.1775 13.331 15.1186 14.2261 14.2283L16.0347 12.4197C15.9472 14.2275 16.2389 16.0336 16.8912 17.7219C17.5435 19.4101 18.5419 20.9431 19.8222 22.2225L26.4783 28.8787C25.0426 29.8843 23.3585 30.4766 21.6093 30.5907C19.8603 30.7049 18.1133 30.3369 16.559 29.5265C15.0047 28.716 13.7027 27.4946 12.795 25.995C11.8872 24.4957 11.4085 22.7757 11.411 21.0228L11.4114 21.0234ZM6.20002 19.7922C4.49912 18.0917 3.49781 15.8152 3.39388 13.4123C3.28996 11.0094 4.09096 8.65483 5.63868 6.81383C7.18639 4.97282 9.36829 3.7792 11.7533 3.46874C14.1383 3.15828 16.5531 3.75358 18.5205 5.13702L11.8278 11.8298C10.6167 13.0343 9.65653 14.4671 9.00289 16.0452C8.34927 17.6233 8.01513 19.3153 8.01983 21.0234C8.01983 21.225 8.02453 21.4259 8.03395 21.6262L6.20002 19.7922ZM37.0106 30.6329C35.0472 30.6375 33.1303 30.0362 31.5214 28.9108L38.2102 22.2225C39.4906 20.9431 40.4888 19.4101 41.1411 17.7218C41.7934 16.0336 42.0851 14.2275 41.9977 12.4197L43.8063 14.2283C45.1503 15.5723 46.0653 17.2846 46.436 19.1487C46.807 21.0128 46.6166 22.945 45.889 24.701C45.1617 26.4569 43.9299 27.9577 42.3497 29.0135C40.7692 30.0694 38.9113 30.6329 37.0106 30.6329ZM51.7999 19.8242L49.9979 21.6262C50.007 21.4261 50.0116 21.2252 50.012 21.0234C50.0166 19.3153 49.6825 17.6232 49.0289 16.0451C48.3752 14.467 47.4149 13.0343 46.2039 11.8298L39.5157 5.14147C41.4867 3.76995 43.8997 3.18602 46.2797 3.50465C48.6597 3.82326 50.8342 5.02135 52.3749 6.863C53.9157 8.70465 54.7112 11.0564 54.6048 13.4553C54.4983 15.8541 53.4978 18.1262 51.7999 19.8242Z" fill="#292C44"/>
</svg>
