<svg width="21" height="25" viewBox="0 0 21 25" fill="none" xmlns="http://www.w3.org/2000/svg">
<g clip-path="url(#clip0_66_29)">
<path d="M8.32817 10.568C7.99482 10.5969 7.68443 10.7497 7.45829 10.9964C7.23215 11.243 7.10669 11.5654 7.10669 11.9C7.10669 12.2346 7.23215 12.557 7.45829 12.8036C7.68443 13.0502 7.99482 13.2031 8.32817 13.232C8.49604 13.225 8.66091 13.1851 8.81332 13.1143C8.96573 13.0436 9.10272 12.9435 9.21642 12.8198C9.33002 12.6961 9.41822 12.5512 9.47582 12.3933C9.53352 12.2355 9.55942 12.0679 9.55212 11.9C9.56032 11.7319 9.53512 11.5639 9.47782 11.4056C9.42052 11.2474 9.33242 11.1021 9.21852 10.9782C9.10472 10.8543 8.96734 10.7542 8.81449 10.6838C8.66165 10.6134 8.49634 10.574 8.32817 10.568ZM12.7081 10.568C12.4398 10.5452 12.1709 10.604 11.9366 10.7366C11.7023 10.8693 11.5134 11.0696 11.3948 11.3113C11.2762 11.553 11.2334 11.8249 11.2719 12.0914C11.3104 12.3579 11.4285 12.6066 11.6107 12.8049C11.7929 13.0031 12.0307 13.1418 12.293 13.2026C12.5553 13.2635 12.8298 13.2437 13.0807 13.1459C13.3316 13.0481 13.5471 12.8769 13.699 12.6546C13.8509 12.4323 13.9322 12.1692 13.9321 11.9C13.9394 11.7321 13.9135 11.5645 13.8558 11.4066C13.7982 11.2488 13.71 11.1039 13.5964 10.9802C13.4827 10.8564 13.3457 10.7564 13.1933 10.6856C13.0409 10.6149 12.876 10.5749 12.7081 10.568Z" fill="#73253E"/>
<path d="M18.54 0.5H2.46001C2.13617 0.500787 1.81565 0.565352 1.51677 0.690007C1.21788 0.814663 0.946475 0.996969 0.718045 1.22652C0.489605 1.45606 0.308625 1.72835 0.185425 2.02784C0.0622246 2.32734 -0.000777385 2.64816 7.23945e-06 2.972V19.2C-0.000777385 19.5238 0.0622246 19.8447 0.185425 20.1442C0.308625 20.4436 0.489605 20.7159 0.718045 20.9455C0.946475 21.175 1.21788 21.3573 1.51677 21.482C1.81565 21.6066 2.13617 21.6712 2.46001 21.672H16.068L15.432 19.452L16.968 20.88L18.42 22.22L21 24.5V2.972C21.0008 2.64816 20.9378 2.32734 20.8146 2.02784C20.6914 1.72835 20.5104 1.45606 20.282 1.22652C20.0535 0.996969 19.7821 0.814663 19.4832 0.690007C19.1844 0.565352 18.8638 0.500787 18.54 0.5ZM13.908 16.172C13.908 16.172 13.476 15.656 13.116 15.2C13.9858 14.9952 14.7552 14.4893 15.288 13.772C14.8562 14.0594 14.3933 14.2969 13.908 14.48C13.3498 14.7183 12.7659 14.8914 12.168 14.996C11.1403 15.1852 10.0863 15.1812 9.06001 14.984C8.45888 14.8659 7.86976 14.6932 7.30001 14.468C6.81882 14.2842 6.35992 14.0467 5.93201 13.76C6.44554 14.4624 7.18835 14.9632 8.03201 15.176C7.67201 15.632 7.23201 16.176 7.23201 16.176C6.51919 16.1952 5.81258 16.0388 5.17437 15.7208C4.53616 15.4027 3.9859 14.9327 3.57201 14.352C3.61037 11.9179 4.20124 9.52433 5.30001 7.352C6.26643 6.59298 7.44467 6.15272 8.67202 6.092L8.79202 6.236C7.63453 6.52081 6.55416 7.05757 5.62801 7.808C5.62801 7.808 5.89201 7.664 6.33601 7.46C7.19835 7.06489 8.11768 6.8084 9.06001 6.7C9.12591 6.68632 9.1928 6.67829 9.26 6.676C10.0641 6.57122 10.8779 6.56317 11.684 6.652C12.9533 6.7975 14.1817 7.19023 15.3 7.808C14.4231 7.0942 13.4047 6.57475 12.312 6.284L12.48 6.092C13.7074 6.15272 14.8856 6.59298 15.852 7.352C16.9508 9.52433 17.5416 11.9179 17.58 14.352C17.1624 14.9314 16.6096 15.4001 15.9697 15.7173C15.3297 16.0344 14.622 16.1905 13.908 16.172Z" fill="#73253E"/>
</g>
<defs>
<clipPath id="clip0_66_29">
<rect width="21" height="25" fill="white"/>
</clipPath>
</defs>
</svg>
