<?xml version="1.0" encoding="UTF-8"?>
<svg width="22px" height="23px" viewBox="0 0 22 23" version="1.1" xmlns="http://www.w3.org/2000/svg" xmlns:xlink="http://www.w3.org/1999/xlink">
    <title>Vector</title>
    <g id="Website" stroke="none" stroke-width="1" fill="none" fill-rule="evenodd">
        <g id="Vector" fill="#FFFFFF">
            <path d="M11.0454,0.5 C4.97043,0.5 0,5.47043 0,11.5454 C0,16.4238 3.12953,20.5658 7.54769,22.0385 C8.09995,22.1306 8.28405,21.7624 8.28405,21.4862 C8.28405,21.2101 8.28405,20.5658 8.28405,19.6453 C5.24656,20.2897 4.60225,18.1726 4.60225,18.1726 C4.14202,16.884 3.40566,16.5158 3.40566,16.5158 C2.30112,15.8715 3.40566,15.8715 3.40566,15.8715 C4.5102,15.9636 5.06247,16.976 5.06247,16.976 C6.07497,18.6329 7.63973,18.1726 8.28405,17.8965 C8.37609,17.1601 8.65222,16.6999 9.0204,16.4238 C6.53519,16.1476 3.95793,15.2272 3.95793,10.9931 C3.95793,9.79654 4.41816,8.78404 5.06247,8.04768 C5.06247,7.6795 4.60225,6.57497 5.24656,5.10225 C5.24656,5.10225 6.16701,4.82611 8.28405,6.20679 C9.20449,5.93065 10.1249,5.83861 11.0454,5.83861 C11.9658,5.83861 12.8863,5.93065 13.8067,6.20679 C15.9238,4.73407 16.8442,5.10225 16.8442,5.10225 C17.4885,6.66701 17.0283,7.77155 16.9363,8.04768 C17.6726,8.78404 18.0408,9.79654 18.0408,10.9931 C18.0408,15.2272 15.4636,16.1476 12.9783,16.4238 C13.3465,16.792 13.7147,17.4363 13.7147,18.4488 C13.7147,19.9215 13.7147,21.1181 13.7147,21.4862 C13.7147,21.7624 13.8988,22.1306 14.4511,22.0385 C18.8692,20.5658 21.9987,16.4238 21.9987,11.5454 C22.0908,5.47043 17.1204,0.5 11.0454,0.5 Z" id="Path"></path>
        </g>
    </g>
</svg>