<?xml version="1.0" encoding="UTF-8"?>
<svg width="20px" height="20px" viewBox="0 0 20 20" version="1.1" xmlns="http://www.w3.org/2000/svg" xmlns:xlink="http://www.w3.org/1999/xlink">
    <title>Instagram</title>
    <g id="Icons" stroke="none" stroke-width="1" fill="none" fill-rule="evenodd">
        <g id="iPhone-12-Pro-Max" transform="translate(-242.000000, -359.000000)" fill="#FFFFFF">
            <g id="Instagram" transform="translate(242.807920, 359.792483)">
                <path d="M9.19208,5.9575675 C7.39718,5.9575675 5.94208,7.4126175 5.94208,9.2075175 C5.94208,11.0025175 7.39718,12.4575175 9.19208,12.4575175 C10.98698,12.4575175 12.44208,11.0025175 12.44208,9.2075175 C12.44208,7.4126175 10.98698,5.9575675 9.19208,5.9575675 Z" id="Path" fill-rule="nonzero"></path>
                <path d="M3.96162,0.2890275 C7.40978,-0.0963425 10.97448,-0.0963425 14.42258,0.2890275 C16.32098,0.5012075 17.85218,1.9969875 18.07498,3.9020375 C18.48728,7.4270175 18.48728,10.9881175 18.07498,14.5131175 C17.85218,16.4181175 16.32098,17.9139175 14.42258,18.1261175 C10.97448,18.5115175 7.40978,18.5115175 3.96162,18.1261175 C2.06322,17.9139175 0.53203,16.4181175 0.30921,14.5131175 C-0.10307,10.9881175 -0.10307,7.4270175 0.30921,3.9020375 C0.53203,1.9969875 2.06322,0.5012075 3.96162,0.2890275 Z M14.19208,3.2075675 C13.63978,3.2075675 13.19208,3.6552775 13.19208,4.2075675 C13.19208,4.7598475 13.63978,5.2075675 14.19208,5.2075675 C14.74438,5.2075675 15.19208,4.7598475 15.19208,4.2075675 C15.19208,3.6552775 14.74438,3.2075675 14.19208,3.2075675 Z M4.44208,9.2075175 C4.44208,6.5842075 6.56873,4.4575675 9.19208,4.4575675 C11.81548,4.4575675 13.94208,6.5842075 13.94208,9.2075175 C13.94208,11.8309175 11.81548,13.9575175 9.19208,13.9575175 C6.56873,13.9575175 4.44208,11.8309175 4.44208,9.2075175 Z" id="Shape"></path>
            </g>
        </g>
    </g>
</svg>