<?xml version="1.0" encoding="UTF-8"?>
<svg width="1392px" height="1392px" viewBox="0 0 1392 1392" version="1.1" xmlns="http://www.w3.org/2000/svg" xmlns:xlink="http://www.w3.org/1999/xlink">
    <title>Group</title>
    <g id="Zed-Logo" stroke="none" stroke-width="1" fill="none" fill-rule="evenodd">
        <g id="Artboard" transform="translate(-511.000000, -947.000000)" stroke="#3F1E1E" stroke-width="47">
            <g id="Group" transform="translate(511.000000, 947.000000)">
                <rect id="Rectangle" fill="#F8D4D4" x="23.5" y="23.5" width="1345" height="1345"></rect>
                <path d="M215.806061,539.063566 L215.806061,849 C215.806061,868.882251 231.92381,885 251.806061,885 L452.33562,885 L452.33562,885 L695.86494,1072.87148 L695.86494,318.266812 L452.33562,503.063566 L251.806061,503.063566 C231.92381,503.063566 215.806061,519.181315 215.806061,539.063566 Z" id="Path"></path>
                <path d="M908.143182,790.5 C908.143182,686.118182 823.524999,601.5 719.143182,601.5" id="Path" transform="translate(813.643182, 696.000000) rotate(-315.000000) translate(-813.643182, -696.000000) "></path>
                <path d="M1238.64318,942 C1238.64318,670.275903 1018.36728,450 746.643182,450" id="Path-Copy" transform="translate(992.643182, 696.000000) rotate(-315.000000) translate(-992.643182, -696.000000) "></path>
                <path d="M1080.64318,867 C1080.64318,678.118616 927.524566,525 738.643182,525" id="Path-Copy-2" transform="translate(909.643182, 696.000000) rotate(-315.000000) translate(-909.643182, -696.000000) "></path>
            </g>
        </g>
    </g>
</svg>