<?xml version="1.0" encoding="UTF-8"?>
<svg width="20px" height="16px" viewBox="0 0 20 16" version="1.1" xmlns="http://www.w3.org/2000/svg" xmlns:xlink="http://www.w3.org/1999/xlink">
    <title>Volume-up</title>
    <g id="Icons" stroke="none" stroke-width="1" fill="none" fill-rule="evenodd">
        <g id="iPhone-12-Pro-Max" transform="translate(-232.000000, -461.000000)" fill="#FFFFFF">
            <g id="Volume-up" transform="translate(232.000000, 461.000000)">
                <path d="M9.8887,0.403658062 C10.9412,-0.473441938 12.5473,0.160328062 12.7172,1.51980806 C13.2409,5.70954806 13.2409,9.94815806 12.7172,14.1379581 C12.5473,15.4974581 10.9412,16.1311581 9.8887,15.2540581 L5.548,11.6368581 C5.50307,11.5993581 5.44643,11.5788581 5.38795,11.5788581 L1.75,11.5788581 C0.7835,11.5788581 0,10.7953581 0,9.82885806 L0,5.82885806 C0,4.86236806 0.7835,4.07886806 1.75,4.07886806 L5.38795,4.07886806 C5.44643,4.07886806 5.50307,4.05836806 5.548,4.02092806 L9.8887,0.403658062 Z M11.2288,1.70586806 C11.206,1.52331806 10.9903,1.43821806 10.849,1.55598806 L6.50827,5.17325806 C6.19377,5.43533806 5.79734,5.57886806 5.38795,5.57886806 L1.75,5.57886806 C1.61193,5.57886806 1.5,5.69079806 1.5,5.82885806 L1.5,9.82885806 C1.5,9.96695806 1.61193,10.0788581 1.75,10.0788581 L5.38795,10.0788581 C5.79734,10.0788581 6.19377,10.2223581 6.50827,10.4844581 L10.849,14.1017581 C10.9903,14.2195581 11.206,14.1344581 11.2288,13.9518581 C11.7371,9.88565806 11.7371,5.77204806 11.2288,1.70586806 Z" id="Shape"></path>
                <path d="M17.6582,1.77463806 C18.0514,1.64457806 18.4757,1.85793806 18.6057,2.25119806 C19.1862,4.00616806 19.5,5.88165806 19.5,7.82885806 C19.5,9.77615806 19.1862,11.6515581 18.6057,13.4065581 C18.4757,13.7998581 18.0514,14.0131581 17.6582,13.8831581 C17.2649,13.7530581 17.0515,13.3288581 17.1816,12.9355581 C17.7124,11.3306581 18,9.61405806 18,7.82885806 C18,6.04365806 17.7124,4.32713806 17.1816,2.72221806 C17.0515,2.32894806 17.2649,1.90470806 17.6582,1.77463806 Z" id="Path" fill-rule="nonzero"></path>
                <path d="M15.7823,3.77656806 C15.6394,3.38776806 15.2084,3.18838806 14.8196,3.33123806 C14.4308,3.47409806 14.2315,3.90508806 14.3743,4.29388806 C14.7788,5.39481806 15,6.58515806 15,7.82885806 C15,8.86045806 14.8478,9.85525806 14.5652,10.7925581 C14.5495,10.8447581 14.5333,10.8968581 14.5168,10.9486581 C14.4722,11.0883581 14.4247,11.2268581 14.3743,11.3638581 C14.2315,11.7526581 14.4308,12.1836581 14.8196,12.3265581 C15.2084,12.4693581 15.6394,12.2699581 15.7823,11.8811581 C15.8401,11.7239581 15.8946,11.5650581 15.9458,11.4047581 C15.9648,11.3451581 15.9833,11.2854581 16.0014,11.2255581 C16.3258,10.1492581 16.5,9.00875806 16.5,7.82885806 C16.5,6.40605806 16.2468,5.04073806 15.7823,3.77656806 Z" id="Path" fill-rule="nonzero"></path>
            </g>
        </g>
    </g>
</svg>