<svg width="1335" height="1350" viewBox="0 0 1335 1350" fill="none" xmlns="http://www.w3.org/2000/svg">
<path d="M795.281 692.679C789.053 693.37 779.272 694.363 772.653 691.174C765.191 687.654 752.914 682.418 749.213 681.906C742.534 680.913 732.604 681.877 729.596 682.538C729.596 682.538 716.056 684.404 710.25 683.472C704.473 682.57 699.267 679.591 697.822 688.917C698.335 690.481 699.357 692.738 700.32 694.334C701.072 695.597 702.275 697.915 703.629 700.591C705.495 704.263 707.781 708.837 708.954 710.34C711.031 712.989 717.652 719.127 719.425 720.03C721.923 721.294 730.528 730.921 732.636 737.481C734.471 743.258 743.648 754.632 744.912 755.686L745.212 755.834C751.502 759.235 755.744 762.966 757.759 766.847L758.662 768.533C761.309 773.558 763.056 776.837 764.739 784.3C766.335 791.251 770.458 792.573 770.638 792.634C770.877 792.724 771.148 792.875 771.329 793.056C771.992 793.746 774.127 796.125 773.256 798.17C772.744 799.375 771.48 800.155 769.584 799.975C763.778 799.916 758.813 790.077 758.633 786.044C757.098 780.628 753.727 770.76 751.38 768.652C750.387 767.75 748.311 766.276 745.905 764.59C739.916 760.318 731.733 754.451 728.964 749.757C728.362 748.735 727.761 747.681 727.159 746.688C724.361 741.784 721.894 737.571 718.764 735.344C714.161 732.126 703.751 724.783 698.905 715.246C696.258 710.011 692.797 705.858 690.211 702.938C690.269 702.97 690.269 702.97 690.269 702.999L690.359 703.389C692.016 710.972 692.648 716.027 692.226 718.915C691.565 723.551 688.073 730.199 687.11 731.282C686.239 732.275 682.928 738.684 682.958 740.279L683.019 741.092C683.109 743.378 683.289 747.2 685.156 751.05C687.471 755.986 689.547 763.087 689.969 765.312C690.391 767.84 689.789 773.558 689.037 775.964C688.164 778.613 684.524 793.898 684.795 795.884C685.395 797.328 688.857 810.026 685.575 818.209C682.597 825.791 678.415 840.175 678.234 841.619C678.083 842.793 677.332 843.183 677 843.303C676.91 843.334 676.79 843.393 676.671 843.393C676.129 843.425 675.497 843.213 675.104 842.883C673.75 841.619 673.119 837.526 674.956 831.658C675.797 828.921 676.851 826.152 677.844 823.505C679.527 818.902 681.123 814.508 681.152 812.071C681.184 810.687 680.881 808.009 680.52 805.242C679.798 799.433 679.017 792.814 680.069 789.655C681.545 785.322 683.921 770.309 683.228 766.637C682.387 762.185 677.422 748.974 676.068 747.53C673.48 744.793 674.563 731.343 676.219 727.491C676.7 726.408 677.332 725.476 677.934 724.573C679.798 721.804 681.394 719.489 678.747 713.08C676.639 708.025 676.188 704.082 675.858 701.223C675.556 698.637 675.375 697.251 674.504 696.41C674.143 696.049 673.931 696.049 673.811 696.019C672.97 696.078 671.735 697.554 671.042 698.305C670.591 698.786 670.262 699.179 669.991 699.418C668.576 700.562 660.391 703.902 655.848 703.57C651.996 703.209 644.536 705.407 642.73 708.596C640.503 712.477 638.878 717.471 638.759 719.186C638.517 721.836 637.134 725.266 633.974 726.078C633.011 726.378 632.65 727.071 632.047 728.393C631.718 729.057 631.325 729.838 630.844 730.56C628.978 732.997 618.868 737.51 616.192 738.564C612.13 740.16 603.825 746.176 602.291 748.554C602.02 749.035 601.627 749.728 601.147 750.57C598.319 755.595 592.962 764.983 587.697 766.608C584.808 767.51 583.003 767.149 582.461 765.554C581.769 763.629 583.996 761.431 585.411 760.889C585.953 760.65 590.827 758.633 593.023 752.616C595.37 746.207 600.847 738.293 606.773 735.524L608.849 734.592C613.723 732.397 619.771 729.657 622.54 725.898C625.819 721.384 627.775 718.676 628.017 714.012C628.317 708.415 634.214 696.922 642.489 695.507C643.813 695.297 645.168 695.117 646.49 694.904C650.371 694.334 654.614 689.488 657.412 688.225C658.766 687.624 659.82 687.232 659.73 686.029C659.639 684.765 657.624 685.426 657.624 685.426C654.585 687.773 642.608 690.211 635.477 687.654C629.039 685.426 618.178 687.051 615.889 688.798C612.73 691.235 605.509 693.07 599.461 691.596C597.958 691.235 595.309 690.391 592.03 689.459C583.996 686.993 570.697 682.96 566.484 683.292H566.123C565.311 683.411 564.559 683.562 563.867 683.711C559.563 684.524 555.952 685.156 545.062 681.816C536.816 679.23 532.664 675.829 529.655 673.331C528.15 672.067 526.977 671.135 525.803 670.713C525.113 670.442 523.037 669.661 522.825 667.915C522.766 667.012 523.217 666.2 524.088 665.69C525.023 665.148 526.586 664.907 527.64 665.658C528.241 666.019 528.994 666.592 530.107 667.434C531.371 668.276 533.025 669.51 535.342 671.135C539.465 674.143 548.16 678.295 553.035 678.056L553.576 678.025C558.511 677.724 564.289 677.424 568.229 676.671C571.268 676.219 575.782 677.876 579.724 679.44C581.739 680.223 583.635 680.974 584.808 681.155C586.133 681.396 588.029 682.028 590.224 682.779C594.225 684.072 599.612 685.909 602.14 685.307C606.443 684.194 611.798 681.667 614.084 679.62C617.424 676.671 626.451 675.829 631.718 677.905C636.231 679.74 647.483 678.869 648.988 678.086C649.771 677.695 651.003 677.363 652.389 677.002C653.892 676.612 657.473 675.678 657.954 674.897C658.225 674.385 659.008 672.579 658.376 670.925C657.954 669.781 656.871 668.878 655.187 668.246C652.238 667.073 642.067 662.77 637.073 656.573C635.599 654.797 634.665 652.601 633.762 650.525C632.108 646.643 630.513 642.972 625.699 641.437C617.907 638.91 612.972 630.847 610.325 626.514C609.963 625.941 609.632 625.431 609.361 625.009C608.668 623.955 607.856 622.24 606.863 620.195C605.179 616.734 602.049 610.205 600.034 609.544C597.536 608.761 595.701 606.023 593.774 603.135C592.301 600.937 590.795 598.712 589.112 597.538C586.043 595.34 584.928 593.145 583.606 590.556C583.032 589.353 582.342 588.029 581.378 586.494C579.963 584.208 579.573 581.832 579.241 579.756C578.821 576.867 578.429 574.398 575.631 572.293C574.096 571.149 571.239 569.014 572.593 567.028C573.735 565.282 576.565 566.245 577.197 566.636C577.255 566.667 577.377 566.696 577.526 566.787C579.031 567.419 582.491 568.892 583.574 573.466C583.935 574.881 584.237 576.536 584.538 578.19C585.14 581.349 585.862 585.291 586.824 586.465C588.87 588.873 593.986 594.077 596.423 595.401C598.649 596.545 599.973 598.892 601.176 600.968C601.779 601.991 602.35 602.984 602.862 603.525L603.794 604.457C606.231 606.955 610.776 611.588 612.852 616.133C614.265 619.322 616.431 621.94 618.027 623.896C618.839 624.948 619.471 625.76 619.803 626.333C622.298 630.666 625.067 633.343 627.624 633.826C628.888 634.035 639.72 636.263 641.345 641.859C641.857 643.723 645.678 647.727 648.205 650.403C650.493 652.782 651.696 654.104 652.147 655.038C652.689 656.151 657.444 658.768 660.181 659.22C661.716 659.43 665.658 660.062 669.298 651.247C670.652 647.907 671.164 646.07 671.555 644.748C671.855 643.574 672.067 642.762 672.638 641.828C673.511 640.383 674.714 634.457 673.782 626.694C672.938 619.622 672.97 607.407 676.458 602.713C679.498 598.68 683.741 593.025 683.499 588.119C683.38 585.743 682.687 583.154 681.965 580.417C681.094 576.987 680.13 573.466 680.281 570.127C680.552 564.32 684.582 554.21 686.81 552.554C688.073 551.683 689.218 551.954 689.879 552.464C691.262 553.608 691.143 556.255 690.179 558.121C687.171 564.079 686.027 568.111 686.78 570.368L686.929 570.849C688.554 575.784 693.46 590.798 686.388 600.517C681.243 607.587 683.138 616.404 684.163 621.127C684.402 622.33 684.614 623.264 684.614 623.835C684.673 624.377 684.763 625.25 684.853 626.272C685.517 632.501 685.936 638.307 684.072 640.925C683.56 641.618 683.109 644.055 685.756 652.389C685.907 652.811 686.027 653.172 686.058 653.352C686.178 653.833 686.388 654.136 686.539 654.194C686.69 654.345 687.171 654.165 687.922 653.653C690.721 651.757 694.092 651.969 696.739 652.179L697.973 652.269C701.011 652.42 705.163 651.969 707.481 649.139C708.986 647.305 710.189 644.445 711.243 641.918C712.114 639.752 712.897 637.917 713.799 636.714C714.131 636.321 714.551 634.999 714.944 633.765C716.447 628.92 719.035 620.796 727.701 619.383C737.239 617.848 747.018 609.332 747.83 607.919C748.401 606.143 752.885 599.163 757.55 596.785C759.445 595.853 763.837 591.942 767.718 588.48C776.384 580.807 778.189 579.214 780.026 580.417C780.387 580.688 780.838 581.5 780.838 581.981C780.897 583.576 779.394 585.411 774.278 589.924C773.707 590.466 773.256 590.859 773.105 591.039C772.714 591.43 771.69 592.242 767.598 595.282C763.988 597.958 757.247 603.013 756.496 603.977C756.225 604.489 755.203 606.023 753.997 607.797C752.553 609.905 750.148 613.455 749.877 614.177C749.123 616.404 738.984 623.564 735.463 624.377C732.275 625.07 725.444 629.19 724.751 632.772C724.661 633.252 724.571 633.826 724.48 634.487C723.668 639.693 722.194 649.171 712.987 656.873C712.987 656.873 709.647 660.603 705.646 660.664C701.613 660.725 697.913 665.058 697.913 665.058C696.439 667.073 695.776 674.385 707.09 673.963C715.124 672.369 732.063 671.345 735.734 671.074C740.128 670.835 751.199 670.171 765.403 680.794C779.362 691.235 799.704 686.3 799.853 686.27C800.214 686.119 808.099 684.104 809.904 686.361C810.265 686.78 810.385 687.624 810.204 688.166C809.001 691.084 795.401 692.679 795.281 692.679ZM1327.82 838.158C1313.62 777.83 1235.54 733.448 1205.36 721.023C1175.21 708.596 1084.71 685.548 1024.38 680.223C964.019 674.897 928.544 664.245 878.836 660.693C829.16 657.144 756.405 644.716 749.304 642.942C742.204 641.196 813.183 600.366 843.362 591.49C873.542 582.613 894.813 561.31 903.691 550.69C912.567 540.038 976.446 518.735 997.749 513.41C1019.05 508.084 1029.7 502.758 1038.55 492.107C1047.43 481.455 1066.95 479.679 1081.16 465.478C1095.36 451.306 1095.36 444.205 1129.06 453.08C1162.79 461.958 1164.56 445.981 1182.31 454.856C1200.07 463.732 1226.67 453.08 1237.32 451.306C1247.97 449.53 1255.07 456.632 1260.39 472.609C1265.72 488.555 1271.04 500.982 1286.99 509.858C1302.97 518.735 1326.05 518.736 1327.82 486.781C1329.6 454.856 1326.05 410.474 1297.64 371.45C1269.24 332.394 1153.91 295.145 1054.53 337.719C955.143 380.325 740.638 574.972 722.285 590.256C706.878 603.103 719.728 579.966 719.728 579.966C723.277 571.09 742.804 547.711 759.565 507.962C771.058 480.763 775.603 440.714 791.58 414.085C807.557 387.456 822.632 335.553 815.53 314.282C808.428 292.979 818.509 241.888 827.384 227.684C836.262 213.513 845.137 188.659 846.913 174.458C848.687 160.255 862.891 153.155 875.316 140.728C887.714 128.331 914.343 138.983 923.218 140.728C932.094 142.503 942.745 140.728 953.367 133.627C964.019 126.556 974.67 130.106 987.098 124.751C999.523 119.455 1004.85 98.152 1004.85 98.152C1011.95 67.9729 972.894 25.3971 948.071 16.5209C923.218 7.64469 830.936 -22.5345 758.181 48.4753C685.426 119.455 660.571 264.964 653.472 327.068C646.37 389.203 640.864 488.465 641.074 563.086C641.225 629.912 620.525 577.589 620.525 577.589C604.728 552.044 569.885 466.53 567.628 418.84C565.791 380.506 503.749 332.906 503.749 306.306C503.749 279.678 485.515 256.421 474.141 245.318C468.755 240.082 456.388 234.666 459.94 218.718C463.49 202.741 447.513 174.337 443.992 167.236C440.443 160.135 442.307 135.402 444.083 124.751C445.859 114.129 454.734 98.152 468.906 92.8263C483.107 87.5005 497.311 66.2278 502.636 46.7002C507.962 27.1724 495.535 12.9705 481.333 4.09425C467.13 -4.78196 392.601 -3.00676 341.149 48.4753C289.697 99.9273 299.446 220.614 299.446 220.614C299.446 348.371 366.002 412.25 373.975 425.58C381.979 438.879 570.937 643.845 570.937 643.845C552.312 647.395 477.781 598.59 458.284 582.613C438.757 566.636 428.105 568.412 403.253 571.961C378.429 575.513 351.801 561.31 339.373 557.789C326.946 554.21 280.82 525.835 257.743 495.657C234.664 465.478 204.515 472.609 160.134 460.152C115.783 447.754 108.682 431.777 108.682 410.474C108.682 389.203 124.629 380.325 128.21 346.597C131.76 312.867 90.9294 314.672 83.8284 316.448C76.7273 318.222 21.7249 327.068 12.8487 469.028C3.97249 611.017 145.932 653.594 172.561 664.245C199.159 674.897 239.99 683.772 410.352 692.648C580.717 701.494 552.312 713.951 552.312 713.951L504.41 722.797C456.51 731.675 424.556 781.38 412.128 799.133C399.701 816.855 358.9 831.058 310.969 836.384C263.069 841.71 239.99 854.135 229.338 864.786C218.687 875.438 213.391 891.386 179.662 884.315C145.932 877.214 89.1541 866.562 74.9522 870.083C60.7501 873.664 39.4774 838.158 34.1517 832.832C28.826 827.506 -15.5552 843.483 5.74775 944.643C27.0507 1045.77 115.783 1054.65 183.212 1052.87C250.641 1051.1 307.419 1008.52 351.801 973.016C396.151 937.541 484.883 886.06 511.512 859.431C538.141 832.832 612.672 774.28 617.997 774.28C623.323 774.28 630.422 820.407 616.221 841.71C602.02 863.013 596.694 884.315 593.142 902.037C589.593 919.79 587.817 926.89 571.839 962.365C555.862 997.871 547.016 1038.7 538.141 1100.77C529.265 1162.91 436.981 1184.18 396.151 1185.99C355.351 1187.76 337.597 1207.29 323.396 1246.31C309.195 1285.34 350.025 1331.5 435.207 1343.92C520.387 1356.35 577.165 1281.82 578.941 1265.84C580.717 1249.86 609.119 1201.96 616.221 1191.31C623.323 1180.66 639.269 1154.03 646.37 1120.3C653.472 1086.6 669.449 974.792 671.223 955.294C672.999 935.767 697.852 809.755 703.148 816.855C708.474 823.956 715.605 859.431 729.777 882.54C743.978 905.587 783.034 946.419 806.081 973.016C829.16 999.645 838.036 1013.85 845.137 1036.92C852.239 1060 866.411 1081.28 861.115 1107.91C855.789 1134.53 861.115 1152.26 868.185 1177.11C875.316 1201.96 869.961 1217.91 861.115 1242.76C852.239 1267.59 818.509 1260.52 809.633 1290.66C800.756 1320.85 823.835 1342.12 834.486 1345.7C845.137 1349.25 898.366 1354.57 948.071 1338.6C997.749 1322.62 1027.9 1271.17 1029.7 1175.34C1031.48 1079.5 933.84 962.365 901.915 918.014C869.961 873.664 754.629 740.55 754.629 740.55C754.629 740.55 790.136 745.876 816.733 763.629C843.362 781.38 864.664 800.909 903.691 799.133C942.745 797.357 956.949 807.979 987.098 818.66C1017.28 829.282 1026.15 822.18 1047.43 820.407C1068.73 818.66 1065.18 822.18 1088.25 832.832C1111.3 843.483 1118.44 841.71 1127.31 847.035C1136.16 852.361 1166.34 875.438 1185.83 878.958C1205.36 882.54 1224.89 916.238 1221.34 933.991C1217.79 951.713 1221.34 949.969 1224.89 976.568C1228.44 1003.2 1226.67 1010.3 1235.54 1022.72C1244.42 1035.15 1272.82 1022.72 1302.97 992.545C1333.15 962.365 1342.03 898.487 1327.82 838.158Z" fill="black"/>
</svg>
