<svg width="60" height="60" viewBox="0 0 60 60" fill="none" xmlns="http://www.w3.org/2000/svg">
<path d="M35.2414 30.6948C34.9654 30.7254 34.532 30.7694 34.2387 30.6281C33.908 30.4721 33.364 30.2401 33.2 30.2174C32.904 30.1734 32.464 30.2161 32.3307 30.2454C32.3307 30.2454 31.7307 30.3281 31.4734 30.2868C31.2174 30.2468 30.9867 30.1148 30.9227 30.5281C30.9454 30.5974 30.9907 30.6974 31.0334 30.7681C31.0667 30.8241 31.12 30.9268 31.18 31.0454C31.2627 31.2081 31.364 31.4108 31.416 31.4774C31.508 31.5948 31.8014 31.8668 31.88 31.9068C31.9907 31.9628 32.372 32.3894 32.4654 32.6801C32.5467 32.9361 32.9534 33.4401 33.0094 33.4868L33.0227 33.4934C33.3014 33.6441 33.4894 33.8094 33.5787 33.9814L33.6187 34.0561C33.736 34.2788 33.8134 34.4241 33.888 34.7548C33.9587 35.0628 34.1414 35.1214 34.1494 35.1241C34.16 35.1281 34.172 35.1348 34.18 35.1428C34.2094 35.1734 34.304 35.2788 34.2654 35.3694C34.2427 35.4228 34.1867 35.4574 34.1027 35.4494C33.8454 35.4468 33.6254 35.0108 33.6174 34.8321C33.5494 34.5921 33.4 34.1548 33.296 34.0614C33.252 34.0214 33.16 33.9561 33.0534 33.8814C32.788 33.6921 32.4254 33.4321 32.3027 33.2241C32.276 33.1788 32.2494 33.1321 32.2227 33.0881C32.0987 32.8708 31.9894 32.6841 31.8507 32.5854C31.6467 32.4428 31.1854 32.1174 30.9707 31.6948C30.8534 31.4628 30.7 31.2788 30.5854 31.1494C30.588 31.1508 30.588 31.1508 30.588 31.1521L30.592 31.1694C30.6654 31.5054 30.6934 31.7294 30.6747 31.8574C30.6454 32.0628 30.4907 32.3574 30.448 32.4054C30.4094 32.4494 30.2627 32.7334 30.264 32.8041L30.2667 32.8401C30.2707 32.9414 30.2787 33.1108 30.3614 33.2814C30.464 33.5001 30.556 33.8148 30.5747 33.9134C30.5934 34.0254 30.5667 34.2788 30.5334 34.3854C30.4947 34.5028 30.3334 35.1801 30.3454 35.2681C30.372 35.3321 30.5254 35.8948 30.38 36.2574C30.248 36.5934 30.0627 37.2308 30.0547 37.2948C30.048 37.3468 30.0147 37.3641 30 37.3694C29.996 37.3708 29.9907 37.3734 29.9854 37.3734C29.9614 37.3748 29.9334 37.3654 29.916 37.3508C29.856 37.2948 29.828 37.1134 29.9094 36.8534C29.9467 36.7321 29.9934 36.6094 30.0374 36.4921C30.112 36.2881 30.1827 36.0934 30.184 35.9854C30.1854 35.9241 30.172 35.8054 30.156 35.6828C30.124 35.4254 30.0894 35.1321 30.136 34.9921C30.2014 34.8001 30.3067 34.1348 30.276 33.9721C30.2387 33.7748 30.0187 33.1894 29.9587 33.1254C29.844 33.0041 29.892 32.4081 29.9654 32.2374C29.9867 32.1894 30.0147 32.1481 30.0414 32.1081C30.124 31.9854 30.1947 31.8828 30.0774 31.5988C29.984 31.3748 29.964 31.2001 29.9494 31.0734C29.936 30.9588 29.928 30.8974 29.8894 30.8601C29.8734 30.8441 29.864 30.8441 29.8587 30.8428C29.8214 30.8454 29.7667 30.9108 29.736 30.9441C29.716 30.9654 29.7014 30.9828 29.6894 30.9934C29.6267 31.0441 29.264 31.1921 29.0627 31.1774C28.892 31.1614 28.5614 31.2588 28.4814 31.4001C28.3827 31.5721 28.3107 31.7934 28.3054 31.8694C28.2947 31.9868 28.2334 32.1388 28.0934 32.1748C28.0507 32.1881 28.0347 32.2188 28.008 32.2774C27.9934 32.3068 27.976 32.3414 27.9547 32.3734C27.872 32.4814 27.424 32.6814 27.3054 32.7281C27.1254 32.7988 26.7574 33.0654 26.6894 33.1708C26.6774 33.1921 26.66 33.2228 26.6387 33.2601C26.5134 33.4828 26.276 33.8988 26.0427 33.9708C25.9147 34.0108 25.8347 33.9948 25.8107 33.9241C25.78 33.8388 25.8787 33.7414 25.9414 33.7174C25.9654 33.7068 26.1814 33.6174 26.2787 33.3508C26.3827 33.0668 26.6254 32.7161 26.888 32.5934L26.98 32.5521C27.196 32.4548 27.464 32.3334 27.5867 32.1668C27.732 31.9668 27.8187 31.8468 27.8294 31.6401C27.8427 31.3921 28.104 30.8828 28.4707 30.8201C28.5294 30.8108 28.5894 30.8028 28.648 30.7934C28.82 30.7681 29.008 30.5534 29.132 30.4974C29.192 30.4708 29.2387 30.4534 29.2347 30.4001C29.2307 30.3441 29.1414 30.3734 29.1414 30.3734C29.0067 30.4774 28.476 30.5854 28.16 30.4721C27.8747 30.3734 27.3934 30.4454 27.292 30.5228C27.152 30.6308 26.832 30.7121 26.564 30.6468C26.4974 30.6308 26.38 30.5934 26.2347 30.5521C25.8787 30.4428 25.2894 30.2641 25.1027 30.2788H25.0867C25.0507 30.2841 25.0174 30.2908 24.9867 30.2974C24.796 30.3334 24.636 30.3614 24.1534 30.2134C23.788 30.0988 23.604 29.9481 23.4707 29.8374C23.404 29.7814 23.352 29.7401 23.3 29.7214C23.2694 29.7094 23.1774 29.6748 23.168 29.5974C23.1654 29.5574 23.1854 29.5214 23.224 29.4988C23.2654 29.4748 23.3347 29.4641 23.3814 29.4974C23.408 29.5134 23.4414 29.5388 23.4907 29.5761C23.5467 29.6134 23.62 29.6681 23.7227 29.7401C23.9054 29.8734 24.2907 30.0574 24.5067 30.0468L24.5307 30.0454C24.7494 30.0321 25.0054 30.0188 25.18 29.9854C25.3147 29.9654 25.5147 30.0388 25.6894 30.1081C25.7787 30.1428 25.8627 30.1761 25.9147 30.1841C25.9734 30.1948 26.0574 30.2228 26.1547 30.2561C26.332 30.3134 26.5707 30.3948 26.6827 30.3681C26.8734 30.3188 27.1107 30.2068 27.212 30.1161C27.36 29.9854 27.76 29.9481 27.9934 30.0401C28.1934 30.1214 28.692 30.0828 28.7587 30.0481C28.7934 30.0308 28.848 30.0161 28.9094 30.0001C28.976 29.9828 29.1347 29.9414 29.156 29.9068C29.168 29.8841 29.2027 29.8041 29.1747 29.7308C29.156 29.6801 29.108 29.6401 29.0334 29.6121C28.9027 29.5601 28.452 29.3694 28.2307 29.0948C28.1654 29.0161 28.124 28.9188 28.084 28.8268C28.0107 28.6548 27.94 28.4921 27.7267 28.4241C27.3814 28.3121 27.1627 27.9548 27.0454 27.7628C27.0294 27.7374 27.0147 27.7148 27.0027 27.6961C26.972 27.6494 26.936 27.5734 26.892 27.4828C26.8174 27.3294 26.6787 27.0401 26.5894 27.0108C26.4787 26.9761 26.3974 26.8548 26.312 26.7268C26.2467 26.6294 26.18 26.5308 26.1054 26.4788C25.9694 26.3814 25.92 26.2841 25.8614 26.1694C25.836 26.1161 25.8054 26.0574 25.7627 25.9894C25.7 25.8881 25.6827 25.7828 25.668 25.6908C25.6494 25.5628 25.632 25.4534 25.508 25.3601C25.44 25.3094 25.3134 25.2148 25.3734 25.1268C25.424 25.0494 25.5494 25.0921 25.5774 25.1094C25.58 25.1108 25.5854 25.1121 25.592 25.1161C25.6587 25.1441 25.812 25.2094 25.86 25.4121C25.876 25.4748 25.8894 25.5481 25.9027 25.6214C25.9294 25.7614 25.9614 25.9361 26.004 25.9881C26.0947 26.0948 26.3214 26.3254 26.4294 26.3841C26.528 26.4348 26.5867 26.5388 26.64 26.6308C26.6667 26.6761 26.692 26.7201 26.7147 26.7441L26.756 26.7854C26.864 26.8961 27.0654 27.1014 27.1574 27.3028C27.22 27.4441 27.316 27.5601 27.3867 27.6468C27.4227 27.6934 27.4507 27.7294 27.4654 27.7548C27.576 27.9468 27.6987 28.0654 27.812 28.0868C27.868 28.0961 28.348 28.1948 28.42 28.4428C28.4427 28.5254 28.612 28.7028 28.724 28.8214C28.8254 28.9268 28.8787 28.9854 28.8987 29.0268C28.9227 29.0761 29.1334 29.1921 29.2547 29.2121C29.3227 29.2214 29.4974 29.2494 29.6587 28.8588C29.7187 28.7108 29.7414 28.6294 29.7587 28.5708C29.772 28.5188 29.7814 28.4828 29.8067 28.4414C29.8454 28.3774 29.8987 28.1148 29.8574 27.7708C29.82 27.4574 29.8214 26.9161 29.976 26.7081C30.1107 26.5294 30.2987 26.2788 30.288 26.0614C30.2827 25.9561 30.252 25.8414 30.22 25.7201C30.1814 25.5681 30.1387 25.4121 30.1454 25.2641C30.1574 25.0068 30.336 24.5588 30.4347 24.4854C30.4907 24.4468 30.5414 24.4588 30.5707 24.4814C30.632 24.5321 30.6267 24.6494 30.584 24.7321C30.4507 24.9961 30.4 25.1748 30.4334 25.2748L30.44 25.2961C30.512 25.5148 30.7294 26.1801 30.416 26.6108C30.188 26.9241 30.272 27.3148 30.3174 27.5241C30.328 27.5774 30.3374 27.6188 30.3374 27.6441C30.34 27.6681 30.344 27.7068 30.348 27.7521C30.3774 28.0281 30.396 28.2854 30.3134 28.4014C30.2907 28.4321 30.2707 28.5401 30.388 28.9094C30.3947 28.9281 30.4 28.9441 30.4014 28.9521C30.4067 28.9734 30.416 28.9868 30.4227 28.9894C30.4294 28.9961 30.4507 28.9881 30.484 28.9654C30.608 28.8814 30.7574 28.8908 30.8747 28.9001L30.9294 28.9041C31.064 28.9108 31.248 28.8908 31.3507 28.7654C31.4174 28.6841 31.4707 28.5574 31.5174 28.4454C31.556 28.3494 31.5907 28.2681 31.6307 28.2148C31.6454 28.1974 31.664 28.1388 31.6814 28.0841C31.748 27.8694 31.8627 27.5094 32.2467 27.4468C32.6694 27.3788 33.1027 27.0014 33.1387 26.9388C33.164 26.8601 33.3627 26.5508 33.5694 26.4454C33.6534 26.4041 33.848 26.2308 34.02 26.0774C34.404 25.7374 34.484 25.6668 34.5654 25.7201C34.5814 25.7321 34.6014 25.7681 34.6014 25.7894C34.604 25.8601 34.5374 25.9414 34.3107 26.1414C34.2854 26.1654 34.2654 26.1828 34.2587 26.1908C34.2414 26.2081 34.196 26.2441 34.0147 26.3788C33.8547 26.4974 33.556 26.7214 33.5227 26.7641C33.5107 26.7868 33.4654 26.8548 33.412 26.9334C33.348 27.0268 33.2414 27.1841 33.2294 27.2161C33.196 27.3148 32.7467 27.6321 32.5907 27.6681C32.4494 27.6988 32.1467 27.8814 32.116 28.0401C32.112 28.0614 32.108 28.0868 32.104 28.1161C32.068 28.3468 32.0027 28.7668 31.5947 29.1081C31.5947 29.1081 31.4467 29.2734 31.2694 29.2761C31.0907 29.2788 30.9267 29.4708 30.9267 29.4708C30.8614 29.5601 30.832 29.8841 31.3334 29.8654C31.6894 29.7948 32.44 29.7494 32.6027 29.7374C32.7974 29.7268 33.288 29.6974 33.9174 30.1681C34.536 30.6308 35.4374 30.4121 35.444 30.4108C35.46 30.4041 35.8094 30.3148 35.8894 30.4148C35.9054 30.4334 35.9107 30.4708 35.9027 30.4948C35.8494 30.6241 35.2467 30.6948 35.2414 30.6948ZM58.84 37.1414C58.2107 34.4681 54.7507 32.5014 53.4134 31.9508C52.0774 31.4001 48.0667 30.3788 45.3934 30.1428C42.7187 29.9068 41.1467 29.4348 38.944 29.2774C36.7427 29.1201 33.5187 28.5694 33.204 28.4908C32.8894 28.4134 36.0347 26.6041 37.372 26.2108C38.7094 25.8174 39.652 24.8734 40.0454 24.4028C40.4387 23.9308 43.2694 22.9868 44.2134 22.7508C45.1574 22.5148 45.6294 22.2788 46.0214 21.8068C46.4147 21.3348 47.28 21.2561 47.9094 20.6268C48.5387 19.9988 48.5387 19.6841 50.032 20.0774C51.5267 20.4708 51.6054 19.7628 52.392 20.1561C53.1787 20.5494 54.3574 20.0774 54.8294 19.9988C55.3014 19.9201 55.616 20.2348 55.852 20.9428C56.088 21.6494 56.324 22.2001 57.0307 22.5934C57.7387 22.9868 58.7614 22.9868 58.84 21.5708C58.9187 20.1561 58.7614 18.1894 57.5027 16.4601C56.244 14.7294 51.1334 13.0788 46.7294 14.9654C42.3254 16.8534 32.82 25.4788 32.0067 26.1561C31.324 26.7254 31.8934 25.7001 31.8934 25.7001C32.0507 25.3068 32.916 24.2708 33.6587 22.5094C34.168 21.3041 34.3694 19.5294 35.0774 18.3494C35.7854 17.1694 36.4534 14.8694 36.1387 13.9268C35.824 12.9828 36.2707 10.7188 36.664 10.0894C37.0574 9.46143 37.4507 8.36009 37.5294 7.73076C37.608 7.10142 38.2374 6.78676 38.788 6.23609C39.3374 5.68676 40.5174 6.15876 40.9107 6.23609C41.304 6.31476 41.776 6.23609 42.2467 5.92143C42.7187 5.60809 43.1907 5.76542 43.7414 5.52809C44.292 5.29342 44.528 4.34942 44.528 4.34942C44.8427 3.01209 43.112 1.12542 42.012 0.73209C40.9107 0.338756 36.8214 -0.998577 33.5974 2.14809C30.3734 5.29342 29.272 11.7414 28.9574 14.4934C28.6427 17.2468 28.3987 21.6454 28.408 24.9521C28.4147 27.9134 27.4974 25.5948 27.4974 25.5948C26.7974 24.4628 25.2534 20.6734 25.1534 18.5601C25.072 16.8614 22.3227 14.7521 22.3227 13.5734C22.3227 12.3934 21.5147 11.3628 21.0107 10.8708C20.772 10.6388 20.224 10.3988 20.3814 9.69209C20.5387 8.98409 19.8307 7.72543 19.6747 7.41076C19.5174 7.09609 19.6 6.00009 19.6787 5.52809C19.7574 5.05742 20.1507 4.34942 20.7787 4.11342C21.408 3.87742 22.0374 2.93476 22.2734 2.06943C22.5094 1.20409 21.9587 0.574759 21.3294 0.181425C20.7 -0.211908 17.3974 -0.133243 15.1174 2.14809C12.8374 4.42809 13.2694 9.77609 13.2694 9.77609C13.2694 15.4374 16.2187 18.2681 16.572 18.8588C16.9267 19.4481 25.3 28.5308 25.3 28.5308C24.4747 28.6881 21.172 26.5254 20.308 25.8174C19.4427 25.1094 18.9707 25.1881 17.8694 25.3454C16.7694 25.5028 15.5894 24.8734 15.0387 24.7174C14.488 24.5588 12.444 23.3014 11.4214 21.9641C10.3987 20.6268 9.0627 20.9428 7.09604 20.3908C5.1307 19.8414 4.81603 19.1334 4.81603 18.1894C4.81603 17.2468 5.5227 16.8534 5.68137 15.3588C5.8387 13.8641 4.02937 13.9441 3.7147 14.0228C3.40003 14.1014 0.962701 14.4934 0.569368 20.7841C0.176034 27.0761 6.4667 28.9628 7.6467 29.4348C8.82537 29.9068 10.6347 30.3001 18.184 30.6934C25.7334 31.0854 24.4747 31.6374 24.4747 31.6374L22.352 32.0294C20.2294 32.4228 18.8134 34.6254 18.2627 35.4121C17.712 36.1974 15.904 36.8268 13.78 37.0628C11.6574 37.2988 10.6347 37.8494 10.1627 38.3214C9.6907 38.7934 9.45604 39.5001 7.96137 39.1868C6.4667 38.8721 3.9507 38.4001 3.32137 38.5561C2.69203 38.7148 1.74937 37.1414 1.51337 36.9054C1.27737 36.6694 -0.689299 37.3774 0.254701 41.8601C1.1987 46.3414 5.1307 46.7348 8.1187 46.6561C11.1067 46.5774 13.6227 44.6908 15.5894 43.1174C17.5547 41.5454 21.4867 39.2641 22.6667 38.0841C23.8467 36.9054 27.1494 34.3108 27.3854 34.3108C27.6214 34.3108 27.936 36.3548 27.3067 37.2988C26.6774 38.2428 26.4414 39.1868 26.284 39.9721C26.1267 40.7588 26.048 41.0734 25.34 42.6454C24.632 44.2188 24.24 46.0281 23.8467 48.7788C23.4534 51.5321 19.364 52.4748 17.5547 52.5548C15.7467 52.6334 14.96 53.4988 14.3307 55.2281C13.7014 56.9574 15.5107 59.0028 19.2854 59.5534C23.06 60.1041 25.576 56.8014 25.6547 56.0934C25.7334 55.3854 26.992 53.2628 27.3067 52.7908C27.6214 52.3188 28.328 51.1388 28.6427 49.6441C28.9574 48.1508 29.6654 43.1961 29.744 42.3321C29.8227 41.4668 30.924 35.8828 31.1587 36.1974C31.3947 36.5121 31.7107 38.0841 32.3387 39.1081C32.968 40.1294 34.6987 41.9388 35.72 43.1174C36.7427 44.2974 37.136 44.9268 37.4507 45.9494C37.7654 46.9721 38.3934 47.9148 38.1587 49.0948C37.9227 50.2748 38.1587 51.0601 38.472 52.1614C38.788 53.2628 38.5507 53.9694 38.1587 55.0708C37.7654 56.1708 36.2707 55.8574 35.8774 57.1934C35.484 58.5308 36.5067 59.4734 36.9787 59.6321C37.4507 59.7894 39.8094 60.0254 42.012 59.3174C44.2134 58.6094 45.5494 56.3294 45.6294 52.0828C45.708 47.8361 41.3814 42.6454 39.9667 40.6801C38.5507 38.7148 33.44 32.8161 33.44 32.8161C33.44 32.8161 35.0134 33.0521 36.192 33.8388C37.372 34.6254 38.316 35.4908 40.0454 35.4121C41.776 35.3334 42.4054 35.8041 43.7414 36.2774C45.0787 36.7481 45.472 36.4334 46.4147 36.3548C47.3587 36.2774 47.2014 36.4334 48.224 36.9054C49.2454 37.3774 49.5614 37.2988 49.9547 37.5348C50.3467 37.7708 51.684 38.7934 52.548 38.9494C53.4134 39.1081 54.2787 40.6014 54.1214 41.3881C53.964 42.1734 54.1214 42.0961 54.2787 43.2748C54.436 44.4548 54.3574 44.7694 54.7507 45.3201C55.144 45.8708 56.4027 45.3201 57.7387 43.9828C59.076 42.6454 59.4694 39.8148 58.84 37.1414" fill="white"/>
</svg>
