<?xml version="1.0" encoding="UTF-8"?>
<svg width="44px" height="44px" viewBox="0 0 44 44" version="1.1" xmlns="http://www.w3.org/2000/svg" xmlns:xlink="http://www.w3.org/1999/xlink">
    <title>Shape</title>
    <g id="Website" stroke="none" stroke-width="1" fill="none" fill-rule="evenodd">
        <g id="Artboard" transform="translate(-660.000000, -712.000000)" fill="#EFB8A9" fill-rule="nonzero">
            <g id="WF-LOGOS-_in-main-colours" transform="translate(132.000000, 123.000000)">
                <path d="M571.54,616.017437 C571.08,614.077437 568.54,612.647437 567.6,612.247437 C565.716773,611.600652 563.768566,611.161383 561.79,610.937437 C559.85,610.767437 558.71,610.427437 557.11,610.317437 C555.51,610.207437 553.18,609.797437 552.95,609.747437 C553.846071,609.024173 554.861231,608.462451 555.95,608.087437 C556.708975,607.845977 557.382437,607.391217 557.89,606.777437 C558.829464,606.240149 559.839155,605.836272 560.89,605.577437 C561.392966,605.511622 561.856725,605.270892 562.2,604.897437 C562.49,604.557437 563.12,604.497437 563.57,604.037437 C564.02,603.577437 564.03,603.357437 565.11,603.637437 C566.19,603.917437 566.25,603.417437 566.82,603.697437 C567.39,603.977437 568.25,603.637437 568.59,603.587437 C568.93,603.537437 569.16,603.757437 569.33,604.267437 C569.433092,604.771483 569.745815,605.20784 570.19,605.467437 C570.7,605.747437 571.44,605.747437 571.5,604.727437 C571.606937,603.412228 571.253436,602.100739 570.5,601.017437 C569.59,599.767437 565.88,598.567437 562.69,599.937437 C559.5,601.307437 552.6,607.557437 552.01,608.047437 C551.42,608.537437 551.93,607.717437 551.93,607.717437 C552.408616,606.97739 552.836272,606.205604 553.21,605.407437 C553.478248,604.386906 553.81228,603.38481 554.21,602.407437 C554.792782,601.446628 555.061907,600.328186 554.98,599.207437 C554.832742,598.260271 554.964796,597.290719 555.36,596.417437 C555.666972,595.888 555.88011,595.309482 555.99,594.707437 C555.99,594.257437 556.5,594.027437 556.9,593.627437 C557.3,593.227437 558.15,593.567437 558.44,593.627437 C558.790846,593.694837 559.153855,593.611345 559.44,593.397437 C559.78,593.167437 560.12,593.287437 560.52,593.117437 C560.92,592.947437 561.09,592.257437 561.09,592.257437 C561.32,591.257437 560.09,589.917437 559.27,589.637437 C557.215168,588.756535 554.836016,589.14656 553.17,590.637437 C550.83,592.927437 550.03,597.637437 549.8,599.637437 C549.57,601.637437 549.4,604.817437 549.4,607.217437 C549.4,609.367437 548.74,607.687437 548.74,607.687437 C547.874683,606.098439 547.299042,604.368131 547.04,602.577437 C546.98,601.347437 545.04,599.817437 545.04,598.967437 C544.976857,598.196813 544.618614,597.480325 544.04,596.967437 C543.87,596.797437 543.47,596.627437 543.58,596.107437 C543.69,595.587437 543.18,594.687437 543.07,594.457437 C542.98972,594.007658 542.98972,593.547216 543.07,593.097437 C543.161182,592.655245 543.458609,592.283461 543.87,592.097437 C544.417802,591.773167 544.808294,591.238047 544.95,590.617437 C545.077286,590.05725 544.793142,589.484783 544.27,589.247437 C543.81,588.957437 541.42,589.017437 539.77,590.667437 C538.12,592.317437 538.43,596.207437 538.43,596.207437 C538.395003,598.619273 539.245306,600.960276 540.82,602.787437 C541.08,603.217437 547.15,609.787437 547.15,609.787437 C546.55,609.907437 544.15,608.337437 543.53,607.787437 C542.91,607.237437 542.53,607.327437 541.76,607.447437 C541.051265,607.44573 540.351515,607.288713 539.71,606.987437 C538.700196,606.521586 537.805603,605.838691 537.09,604.987437 C536.34,603.987437 535.38,604.247437 533.95,603.847437 C532.52,603.447437 532.3,602.937437 532.3,602.257437 C532.3,601.577437 532.81,601.257437 532.92,600.197437 C533.03,599.137437 531.73,599.197437 531.5,599.197437 C531.27,599.197437 529.5,599.547437 529.22,604.107437 C528.94,608.667437 533.49,610.037437 534.35,610.377437 C535.21,610.717437 536.52,611.007437 541.99,611.287437 C547.46,611.567437 546.55,611.977437 546.55,611.977437 L545.01,612.257437 C543.47,612.547437 542.45,614.137437 542.01,614.707437 C541.57,615.277437 540.3,615.707437 538.76,615.907437 C537.808342,615.920378 536.886153,616.239463 536.13,616.817437 C535.79,617.167437 535.62,617.677437 534.54,617.447437 C533.43774,617.16683 532.307141,617.012504 531.17,616.987437 C530.72,617.107437 530.03,615.987437 529.86,615.797437 C529.69,615.607437 528.26,616.137437 528.95,619.387437 C529.64,622.637437 532.48,622.917437 534.65,622.867437 C536.82,622.817437 538.65,621.437437 540.07,620.297437 C541.49,619.157437 544.34,617.507437 545.2,616.647437 C546.260471,615.642043 547.404602,614.728746 548.62,613.917437 C548.92394,614.610197 548.901928,615.402618 548.56,616.077437 C548.190615,616.670371 547.939339,617.329124 547.82,618.017437 C547.690041,618.694044 547.460904,619.347758 547.14,619.957437 C546.567172,621.381476 546.200151,622.879865 546.05,624.407437 C545.77,626.407437 542.8,627.087437 541.49,627.137437 C540.18,627.187437 539.61,627.827437 539.16,629.077437 C538.71,630.327437 540.01,631.817437 542.75,632.217437 C544.665884,632.442193 546.515924,631.437085 547.37,629.707437 C547.665048,628.860949 548.064818,628.054691 548.56,627.307437 C549.032231,626.616243 549.371366,625.843015 549.56,625.027437 C549.79,623.947437 550.3,620.357437 550.36,619.727437 C550.42,619.097437 551.22,615.057437 551.36,615.277437 C551.5,615.497437 551.76,616.647437 552.21,617.387437 C552.971024,618.402952 553.789003,619.37451 554.66,620.297437 C555.231421,620.855753 555.663106,621.540969 555.92,622.297437 C556.288216,622.999117 556.464173,623.785748 556.43,624.577437 C556.304209,625.327911 556.38368,626.098435 556.66,626.807437 C556.843011,627.515299 556.761222,628.265629 556.43,628.917437 C556.15,629.717437 555.06,629.487437 554.78,630.457437 C554.568043,631.164377 554.909311,631.919432 555.58,632.227437 C556.797701,632.441118 558.048754,632.362284 559.23,631.997437 C560.82,631.477437 561.79,629.827437 561.85,626.747437 C561.91,623.667437 558.77,619.907437 557.74,618.477437 C556.71,617.047437 553.01,612.777437 553.01,612.777437 C553.71747,612.895387 554.396138,613.146494 555.01,613.517437 C555.770015,614.224716 556.762156,614.630107 557.8,614.657437 C558.731257,614.64652 559.65114,614.862762 560.48,615.287437 C561.106362,615.499633 561.781722,615.52052 562.42,615.347437 C563.1,615.287437 562.99,615.397437 563.73,615.747437 C564.47,616.097437 564.73,616.027437 564.99,616.197437 C565.561233,616.625906 566.195428,616.963244 566.87,617.197437 C567.57758,617.497163 568.02977,618.199248 568.01,618.967437 C567.89,619.537437 568.01,619.477437 568.12,620.337437 C568.23,621.197437 568.18,621.417437 568.46,621.817437 C568.74,622.217437 569.66,621.817437 570.63,620.817437 C571.6,619.817437 571.99,617.957437 571.54,616.017437 Z M555.72,611.567437 C555.377708,611.595006 555.033954,611.536567 554.72,611.397437 C554.402533,611.197973 554.067867,611.027293 553.72,610.887437 C553.434913,610.822122 553.141354,610.801876 552.85,610.827437 C552.564057,610.856243 552.275943,610.856243 551.99,610.827437 C551.74,610.767437 551.53,610.607437 551.42,611.017437 C551.442645,611.103237 551.47276,611.18689 551.51,611.267437 C551.51,611.327437 551.58,611.427437 551.63,611.557437 C551.679236,611.713006 551.742844,611.863656 551.82,612.007437 C551.939526,612.184256 552.080612,612.345497 552.24,612.487437 C552.470795,612.716102 552.64241,612.997549 552.74,613.307437 C552.849619,613.615425 553.004666,613.905296 553.2,614.167437 L553.2,614.167437 C553.4152,614.295519 553.588825,614.483034 553.7,614.707437 L553.7,614.787437 C553.807237,615.014276 553.874879,615.257788 553.9,615.507437 C553.904634,615.66842 553.986526,615.817316 554.12,615.907437 C554.12,615.907437 554.12,615.907437 554.12,615.907437 C554.12,615.907437 554.23,616.057437 554.19,616.137437 C554.153733,616.194247 554.085754,616.222238 554.02,616.207437 C553.76,616.207437 553.59,615.717437 553.59,615.537437 C553.556379,615.258999 553.4752,614.988401 553.35,614.737437 C553.280467,614.666706 553.207018,614.599934 553.13,614.537437 C552.864178,614.333762 552.634334,614.087018 552.45,613.807437 C552.45,613.807437 552.4,613.707437 552.38,613.667437 C552.312336,613.467009 552.203314,613.283035 552.06,613.127437 C551.722525,612.860033 551.452033,612.517639 551.27,612.127437 C551.189851,611.918581 551.078595,611.723039 550.94,611.547437 L550.94,611.547437 C550.975404,611.779427 550.975404,612.015446 550.94,612.247437 C550.882049,612.437613 550.786871,612.614372 550.66,612.767437 C550.565651,612.880713 550.491257,613.009212 550.44,613.147437 L550.44,613.147437 C550.403566,613.295224 550.403566,613.449649 550.44,613.597437 C550.509365,613.809174 550.559567,614.026715 550.59,614.247437 C550.581292,614.40744 550.551019,614.565535 550.5,614.717437 C550.387112,614.997364 550.293559,615.284705 550.22,615.577437 C550.297875,615.909495 550.277021,616.257072 550.16,616.577437 C549.999933,616.903323 549.856417,617.237081 549.73,617.577437 C549.724377,617.61002 549.70134,617.636897 549.67,617.647437 L549.67,617.647437 C549.647905,617.658187 549.622095,617.658187 549.6,617.647437 C549.6,617.587437 549.54,617.407437 549.6,617.147437 L549.76,616.807437 C549.849806,616.654533 549.917162,616.489511 549.96,616.317437 C549.970293,616.21436 549.970293,616.110514 549.96,616.007437 C549.925456,615.778734 549.925456,615.54614 549.96,615.317437 C550.090389,614.998248 550.17132,614.661036 550.2,614.317437 C550.163419,614.018295 550.086033,613.725574 549.97,613.447437 C549.910617,613.147562 549.945551,612.836656 550.07,612.557437 C550.096756,612.515103 550.126851,612.474975 550.16,612.437437 C550.289505,612.30435 550.321515,612.104287 550.24,611.937437 C550.188142,611.762295 550.164512,611.580012 550.17,611.397437 C550.191495,611.329087 550.191495,611.255787 550.17,611.187437 C550.17,611.187437 550.17,611.187437 550.17,611.187437 C550.117011,611.20029 550.070683,611.232363 550.04,611.277437 L550.04,611.277437 C549.83757,611.362302 549.619424,611.403204 549.4,611.397437 C549.183336,611.364996 548.962848,611.422829 548.79,611.557437 C548.698098,611.697625 548.624186,611.84881 548.57,612.007437 C548.555692,612.143611 548.461096,612.257915 548.33,612.297437 C548.33,612.297437 548.27,612.297437 548.23,612.387437 C548.217109,612.421612 548.196588,612.452393 548.17,612.477437 C547.95753,612.604488 547.728767,612.702049 547.49,612.767437 C547.247692,612.850661 547.02363,612.979666 546.83,613.147437 C546.81418,613.176996 546.793948,613.203973 546.77,613.227437 C546.63,613.437437 546.35,613.827437 546.11,613.877437 C545.87,613.927437 545.9,613.877437 545.88,613.807437 C545.86,613.737437 545.97,613.627437 546.03,613.617437 C546.194738,613.560999 546.331031,613.442639 546.41,613.287437 C546.548978,612.982543 546.789262,612.735192 547.09,612.587437 L547.18,612.587437 C547.416929,612.52813 547.638511,612.419043 547.83,612.267437 C547.973777,612.13295 548.074659,611.959016 548.12,611.767437 C548.12,611.517437 548.47,611.037437 548.84,611.017437 L549.02,611.017437 C549.19,611.017437 549.4,610.807437 549.53,610.767437 C549.66,610.727437 549.64,610.767437 549.64,610.677437 C549.64,610.587437 549.55,610.677437 549.55,610.677437 C549.227693,610.79869 548.872307,610.79869 548.55,610.677437 C548.268332,610.579123 547.961668,610.579123 547.68,610.677437 C547.442408,610.772061 547.177592,610.772061 546.94,610.677437 L546.62,610.547437 C546.268242,610.381148 545.899394,610.253727 545.52,610.167437 L545.41,610.167437 C545.122746,610.191704 544.834583,610.132683 544.58,609.997437 C544.337937,609.897707 544.119797,609.747736 543.94,609.557437 C543.892133,609.50487 543.838456,609.457903 543.78,609.417437 C543.719995,609.398107 543.674475,609.348794 543.66,609.287437 C543.666808,609.245151 543.692598,609.208308 543.73,609.187437 C543.780733,609.163886 543.839267,609.163886 543.89,609.187437 L543.99,609.277437 L544.2,609.467437 C544.413501,609.655993 544.671684,609.786805 544.95,609.847437 L544.95,609.847437 C545.17,609.847437 545.42,609.847437 545.6,609.847437 C545.774803,609.863061 545.94308,609.921443 546.09,610.017437 L546.31,610.117437 C546.389604,610.139309 546.466693,610.169474 546.54,610.207437 C546.700676,610.297273 546.877286,610.355011 547.06,610.377437 C547.254432,610.346539 547.441136,610.278646 547.61,610.177437 C547.857135,610.061766 548.142865,610.061766 548.39,610.177437 C548.634483,610.259228 548.893175,610.289863 549.15,610.267437 L549.31,610.267437 C549.38,610.267437 549.54,610.267437 549.56,610.197437 C549.585282,610.14359 549.585282,610.081284 549.56,610.027437 C549.538945,609.966429 549.491007,609.918492 549.43,609.897437 C549.141202,609.751447 548.885823,609.547144 548.68,609.297437 C548.631437,609.209226 548.594465,609.115115 548.57,609.017437 C548.51,608.837437 548.46,608.667437 548.25,608.587437 C547.971871,608.417864 547.757457,608.161269 547.64,607.857437 L547.64,607.787437 L547.55,607.567437 C547.49,607.397437 547.38,607.097437 547.3,607.067437 C547.186735,606.99231 547.099426,606.884047 547.05,606.757437 C547.009075,606.656085 546.947815,606.564195 546.87,606.487437 C546.770144,606.395507 546.697494,606.277884 546.66,606.147437 L546.58,605.957437 C546.539007,605.862397 546.515302,605.760805 546.51,605.657437 C546.524805,605.528646 546.480715,605.400049 546.39,605.307437 C546.32,605.307437 546.21,605.147437 546.28,605.067437 C546.35,604.987437 546.46,605.067437 546.48,605.067437 L546.48,605.067437 C546.607537,605.126318 546.694841,605.247784 546.71,605.387437 C546.715412,605.457332 546.715412,605.527541 546.71,605.597437 C546.716034,605.726687 546.739582,605.85452 546.78,605.977437 C546.888136,606.136136 547.015805,606.280604 547.16,606.407437 C547.245857,606.479271 547.31137,606.572369 547.35,606.677437 L547.41,606.797437 L547.41,606.797437 C547.550266,606.964639 547.667941,607.149557 547.76,607.347437 C547.804829,607.479427 547.868849,607.604098 547.95,607.717437 C547.969959,607.756145 547.993388,607.792963 548.02,607.827437 C548.070113,607.987035 548.181642,608.120151 548.33,608.197437 C548.33,608.197437 548.85,608.357437 548.9,608.607437 C548.962664,608.757924 549.050598,608.896588 549.16,609.017437 C549.217519,609.087633 549.270941,609.161088 549.32,609.237437 C549.407589,609.339819 549.521805,609.415963 549.65,609.457437 C549.72,609.457437 549.89,609.517437 550.09,609.147437 C550.138862,609.056771 550.182272,608.963272 550.22,608.867437 C550.233891,608.824663 550.254116,608.784214 550.28,608.747437 C550.367698,608.538834 550.408657,608.313559 550.4,608.087437 C550.367408,607.723354 550.443997,607.357814 550.62,607.037437 C550.807526,606.879005 550.940466,606.665601 551,606.427437 C551.0087,606.310932 551.0087,606.193941 551,606.077437 C550.980104,605.924749 550.980104,605.770125 551,605.617437 C551.056447,605.339663 551.183925,605.081261 551.37,604.867437 C551.408698,604.839092 551.461302,604.839092 551.5,604.867437 C551.553684,604.94579 551.553684,605.049084 551.5,605.127437 C551.376119,605.272971 551.305569,605.456398 551.3,605.647437 L551.3,605.647437 C551.443303,606.085097 551.388524,606.563497 551.15,606.957437 C550.956986,607.214712 550.887449,607.544098 550.96,607.857437 C550.96,607.857437 550.96,607.947437 550.96,607.977437 L550.96,608.087437 C550.985965,608.305903 550.951371,608.527304 550.86,608.727437 C550.86,608.727437 550.8,608.857437 550.86,609.237437 C550.863838,609.253882 550.863838,609.270991 550.86,609.287437 L550.92,609.287437 C551.049672,609.243245 551.190328,609.243245 551.32,609.287437 L551.32,609.287437 C551.469571,609.323873 551.627596,609.290797 551.75,609.197437 C551.830241,609.10352 551.897508,608.999256 551.95,608.887437 C551.98761,608.811805 552.034652,608.741243 552.09,608.677437 L552.15,608.547437 C552.227917,608.247184 552.474342,608.020316 552.78,607.967437 C553.126615,607.925373 553.45336,607.782857 553.72,607.557437 C553.829156,607.364599 553.9926,607.20811 554.19,607.107437 C554.361296,607.013491 554.525113,606.906509 554.68,606.787437 C555.09,606.487437 555.18,606.427437 555.26,606.487437 C555.265521,606.510444 555.265521,606.53443 555.26,606.557437 C555.26,606.627437 555.18,606.697437 554.93,606.877437 L554.93,606.877437 L554.66,607.047437 C554.48005,607.146647 554.306388,607.256856 554.14,607.377437 L554.01,607.537437 C553.933969,607.619054 553.863794,607.705936 553.8,607.797437 C553.607487,607.979548 553.374399,608.11323 553.12,608.187437 C552.97,608.187437 552.65,608.357437 552.61,608.507437 C552.57,608.657437 552.61,608.507437 552.61,608.587437 C552.532398,608.963757 552.314252,609.296339 552,609.517437 C551.907004,609.603181 551.786409,609.652838 551.66,609.657437 C551.524133,609.663533 551.39557,609.720672 551.3,609.817437 C551.23,609.897437 551.17,610.217437 551.67,610.247437 C552.17,610.277437 552.78,610.247437 552.94,610.247437 C553.419266,610.265278 553.873593,610.465612 554.21,610.807437 C554.634688,611.131133 555.171185,611.271559 555.7,611.197437 C555.7,611.197437 556.08,611.137437 556.15,611.247437 C556.160041,611.273158 556.160041,611.301715 556.15,611.327437 C556.35,611.557437 555.72,611.567437 555.72,611.567437 Z" id="Shape"></path>
            </g>
        </g>
    </g>
</svg>