<?xml version="1.0" encoding="UTF-8"?>
<svg width="509px" height="67px" viewBox="0 0 509 67" version="1.1" xmlns="http://www.w3.org/2000/svg" xmlns:xlink="http://www.w3.org/1999/xlink">
    <title>Group</title>
    <g id="Website" stroke="none" stroke-width="1" fill="none" fill-rule="evenodd">
        <g id="Artboard" transform="translate(-132.000000, -704.000000)" fill="#EFB8A9" fill-rule="nonzero">
            <g id="WF-LOGOS-_in-main-colours" transform="translate(132.000000, 123.000000)">
                <g id="Group" transform="translate(0.000000, 581.607473)">
                    <path d="M36.05,8.51996336 C38.66,16.3399634 48.05,44.0499634 50.66,51.8199634 L52.14,51.8199634 C52.14,51.8199634 67.72,6.69996336 68.87,3.72996336 C69.39,2.32996336 69.87,0.989963364 69.87,0.989963364 L64.33,0.989963364 C64.33,3.68996336 63.24,10.1499634 59.67,21.2099634 C55.6,33.8599634 54.99,35.9299634 53.77,38.9699634 C53.45,38.4999634 41.17,3.35996336 41.17,1.15996336 C41.17,1.15996336 32.8,1.15996336 32.92,1.15996336 C28.39,17.4099634 24.29,30.1599634 20.72,38.9299634 C20.32,38.3799634 9.16,7.08996336 7.84,0.929963364 L0,0.929963364 C0.644433418,1.91157001 1.17137473,2.96545264 1.57,4.06996336 C1.91,4.97996336 2.93,7.86996336 4.57,12.6599634 C5.74,15.9599634 8.44,23.8899634 12.82,36.9099634 C15.89,46.0599634 18.26,51.7699634 18.26,51.7699634 L19.72,51.7699634 C19.72,51.7699634 34.25,10.0499634 36.05,8.51996336 Z" id="Path"></path>
                    <path d="M77.53,1.16996336 L86.8,1.16996336 C86.9553706,2.33303916 87.3213464,3.45807599 87.88,4.48996336 C88.96,6.85996336 100.58,33.1799634 105.28,38.7899634 C105.28,38.7899634 111.28,25.0599634 114.13,15.4499634 C116.98,5.83996336 118.13,1.98996336 117.79,1.16996336 L124.79,1.23996336 C123.91514,2.31867295 123.176261,3.50087944 122.59,4.75996336 C120.78,8.36996336 110.15,38.2499634 107.4,44.6799634 C104.4,51.6199634 100.8,60.1099634 97.03,63.1499634 C87.28,71.0299634 79.24,61.1499634 78.76,60.8899634 L82.47,60.8899634 C82.47,60.8899634 89.69,67.6499634 96.29,58.8899634 C98.747394,55.4808382 100.610346,51.6805517 101.8,47.6499634 C101.6,47.2399634 90.37,26.1299634 85.8,16.5299634 C81.4,7.30996336 78.41,1.50996336 77.53,1.16996336 Z" id="Path"></path>
                    <path d="M156.81,49.0499634 L150.63,49.0499634 C146.73,49.0499634 144.44,49.4599634 143.17,48.5499634 C142.376588,47.8003026 141.952468,46.7400016 142.01,45.6499634 L142.01,3.13996336 C141.989394,2.3023272 142.200484,1.47526708 142.62,0.749963364 L133.08,0.749963364 C133.84,1.20996336 133.84,3.33996336 133.84,3.33996336 C133.84,3.33996336 134.39,46.3399634 134.39,48.5099634 C134.420672,49.6435393 134.268729,50.7746652 133.94,51.8599634 L158.07,51.8599634 C165.63,51.8599634 168.61,45.1299634 168.61,45.1299634 C168.71,44.4199634 168.61,41.0599634 168.61,41.0599634 C166.750236,45.9412941 162.032911,49.1354828 156.81,49.0499634 Z" id="Path"></path>
                    <path d="M186.28,0.0499633637 C186.28,0.0499633637 182.96,0.0499633637 180.46,0.189963364 C180.46,0.189963364 178.46,0.259963364 175.98,0.429963364 C176.116012,0.671190361 176.226605,0.925889728 176.31,1.18996336 C176.422862,1.67131314 176.466634,2.16627721 176.44,2.65996336 C176.44,3.31996336 177.35,40.9899634 176.94,45.8599634 C176.853161,47.8329301 176.609053,49.795824 176.21,51.7299634 C176.21,51.7299634 178.14,51.6299634 179.46,51.6299634 C180.78,51.6299634 183.27,51.6799634 184.69,51.7299634 C186.11,51.7799634 196.56,52.3899634 201.49,50.4599634 C206.42,48.5299634 214.56,44.3699634 216.32,30.4599634 C218.08,16.5499634 211.18,-1.06003664 186.28,0.0499633637 Z M208.88,27.7299634 C208.47,40.3799634 203.26,45.0499634 200.28,47.0799634 C197.084755,49.2560151 193.325118,50.4547901 189.46,50.5299634 C187.762007,50.5911465 186.061941,50.5007886 184.38,50.2599634 C183.91,46.9499634 183.57,32.8699634 183.64,24.6199634 C183.71,16.3699634 184.18,1.53996336 184.18,1.53996336 C191.18,1.33996336 194.47,1.26996336 199.07,4.37996336 C203.67,7.48996336 209.28,15.0499634 208.88,27.6999634 L208.88,27.7299634 Z" id="Shape"></path>
                    <path d="M420.11,8.51996336 C422.72,16.3399634 432.11,44.0499634 434.72,51.8199634 L436.2,51.8199634 C436.2,51.8199634 451.82,6.69996336 452.93,3.72996336 C453.45,2.32996336 453.98,0.989963364 453.98,0.989963364 L448.39,0.989963364 C448.39,3.68996336 447.3,10.1499634 443.73,21.2099634 C439.66,33.8599634 439.05,35.9299634 437.83,38.9699634 C437.51,38.4999634 425.23,3.35996336 425.23,1.15996336 C425.23,1.15996336 416.86,1.15996336 416.98,1.15996336 C412.45,17.4099634 408.35,30.1599634 404.78,38.9299634 C404.38,38.3799634 393.21,7.08996336 391.9,0.929963364 L384.06,0.929963364 C384.704433,1.91157001 385.231375,2.96545264 385.63,4.06996336 C385.97,4.97996336 386.99,7.86996336 388.63,12.6599634 C389.8,15.9599634 392.5,23.8899634 396.88,36.9099634 C399.95,46.0599634 402.32,51.7699634 402.32,51.7699634 L403.72,51.7699634 C403.72,51.7699634 418.31,10.0499634 420.11,8.51996336 Z" id="Path"></path>
                    <path d="M329.22,2.62996336 C329.22,2.62996336 333.54,2.62996336 335.11,4.04996336 C336.68,5.46996336 336.63,5.82996336 336.63,5.82996336 C337.432949,4.16514986 338.030661,2.40894999 338.41,0.599963364 C338.41,0.599963364 308.97,0.499963364 304.15,0.449963364 C304.609468,1.12872947 304.888252,1.91345437 304.96,2.72996336 C304.96,2.72996336 305.01,8.61996336 305.12,14.4999634 C305.23,20.3799634 305.47,48.6099634 305.47,48.6099634 C305.47,48.6099634 305.62,51.4499634 304.3,52.6099634 L313.39,52.6099634 C313.39,52.6099634 312.17,51.7399634 312.22,48.5499634 C312.27,45.3599634 312.37,24.6899634 312.37,24.6899634 L334.04,24.6899634 C334.04,24.6899634 335.04,24.6899634 335.16,22.2599634 L312.27,22.2599634 L312.27,3.67996336 C312.27,3.67996336 312.34,2.52996336 314.06,2.52996336 C315.78,2.52996336 329.22,2.62996336 329.22,2.62996336 Z" id="Path"></path>
                    <path d="M507.42,51.1099634 C507.42,51.1099634 506.11,51.5499634 503.83,50.1099634 C501.55,48.6699634 488.72,34.1399634 486.02,30.6399634 C483.32,27.1399634 482.67,26.1299634 482.67,26.1299634 C482.67,26.1299634 495.1,25.1299634 495.67,13.7899634 C496.14,5.13996336 489.55,1.49996336 484.81,0.499963364 C482.490543,0.185584958 480.150171,0.0518493777 477.81,0.0999633637 C471.95,0.299963364 462.81,0.599963364 461.64,0.499963364 C462.241444,1.1102336 462.560484,1.94408586 462.52,2.79996336 C462.52,4.34996336 462.94,48.4499634 462.94,48.4499634 C462.984755,49.7760891 462.795183,51.0997111 462.38,52.3599634 L470.09,52.3599634 C470.09,52.3599634 469.23,51.6999634 469.28,48.3599634 C469.33,45.0199634 469.28,25.5299634 469.28,25.5299634 C469.28,25.5299634 471.87,25.1199634 474.46,28.0099634 C477.05,30.8999634 490.04,46.6899634 491.26,48.0099634 C492.48,49.3299634 494.76,51.7099634 497.55,52.3699634 C500.34,53.0299634 507.69,52.3699634 508.3,52.2399634 L507.42,51.1099634 Z M473.42,24.5899634 C472.053235,24.5318064 470.69445,24.3510812 469.36,24.0499634 L469.36,2.11996336 C484.99,0.0199633637 489.36,5.11996336 488.44,15.3799634 C487.52,25.6399634 476.36,24.7899634 473.45,24.5899634 L473.42,24.5899634 Z" id="Shape"></path>
                    <path d="M371,49.0499634 L364.83,49.0499634 C360.92,49.0499634 358.63,49.4599634 357.37,48.5499634 C356.570593,47.803705 356.142264,46.7420347 356.2,45.6499634 L356.2,3.13996336 C356.179394,2.3023272 356.390484,1.47526708 356.81,0.749963364 L347.27,0.749963364 C348.03,1.20996336 348.03,3.33996336 348.03,3.33996336 C348.03,3.33996336 348.59,46.3399634 348.59,48.5099634 C348.621168,49.6442866 348.465765,50.7760248 348.13,51.8599634 L372.26,51.8599634 C379.82,51.8599634 382.8,45.1299634 382.8,45.1299634 C382.9,44.4199634 382.8,41.0599634 382.8,41.0599634 C380.942666,45.9432177 376.223795,49.1384529 371,49.0499634 L371,49.0499634 Z" id="Path"></path>
                    <path d="M281.56,32.6799634 C281.09,30.6799634 278.49,29.1999634 277.49,28.7899634 C275.545738,28.1186296 273.533707,27.6625694 271.49,27.4299634 C269.49,27.2599634 268.31,26.8999634 266.66,26.7899634 C265.01,26.6799634 262.59,26.2499634 262.35,26.1999634 C262.11,26.1499634 264.47,24.7799634 265.48,24.4899634 C266.261097,24.2333268 266.954191,23.7620233 267.48,23.1299634 C268.461126,22.5741994 269.514453,22.1569067 270.61,21.8899634 C271.129203,21.8185151 271.606917,21.5672732 271.96,21.1799634 C272.26,20.8299634 272.91,20.7699634 273.38,20.2999634 C273.85,19.8299634 273.85,19.5899634 274.97,19.8899634 C276.09,20.1899634 276.15,19.6499634 276.74,19.8899634 C277.33,20.1299634 278.22,19.8899634 278.57,19.7799634 C278.92,19.6699634 279.16,19.9499634 279.34,20.4799634 C279.443274,20.9997936 279.7634,21.4508809 280.22,21.7199634 C280.75,22.0199634 281.52,22.0199634 281.58,20.9599634 C281.704218,19.6025505 281.350525,18.2443703 280.58,17.1199634 C279.64,15.8199634 275.81,14.5899634 272.5,15.9999634 C269.19,17.4099634 262.07,23.8899634 261.5,24.3899634 C260.93,24.8899634 261.42,24.0499634 261.42,24.0499634 C261.909846,23.2818621 262.350722,22.4836085 262.74,21.6599634 C263.021539,20.5956962 263.379125,19.5530158 263.81,18.5399634 C264.412964,17.5426994 264.689173,16.3819227 264.6,15.2199634 C264.454506,14.2414679 264.593353,13.2417726 265,12.3399634 C265.317687,11.7966748 265.534509,11.2004142 265.64,10.5799634 C265.7,10.0999634 266.17,9.86996336 266.59,9.44996336 C267.01,9.02996336 267.89,9.39996336 268.18,9.44996336 C268.530647,9.5090141 268.890386,9.426274 269.18,9.21996336 C269.54,8.97996336 269.89,9.09996336 270.3,8.91996336 C270.71,8.73996336 270.89,8.03996336 270.89,8.03996336 C271.13,7.03996336 269.83,5.61996336 269.01,5.32996336 C268.19,5.03996336 265.11,4.02996336 262.7,6.38996336 C260.29,8.74996336 259.45,13.5799634 259.22,15.6499634 C258.949018,18.2546317 258.808842,20.8712519 258.8,23.4899634 C258.8,25.7099634 258.12,23.9699634 258.12,23.9699634 C257.228575,22.3302093 256.632815,20.5463122 256.36,18.6999634 C256.3,17.4199634 254.24,15.8399634 254.24,14.9599634 C254.167084,14.1921066 253.810536,13.4790101 253.24,12.9599634 C253.06,12.7899634 252.65,12.6099634 252.76,12.0799634 C252.739752,11.4727696 252.556702,10.8821744 252.23,10.3699634 C252.140053,9.90090317 252.140053,9.41902355 252.23,8.94996336 C252.31386,8.48393518 252.619986,8.08821167 253.05,7.88996336 C253.620804,7.5589595 254.02697,7.00410889 254.17,6.35996336 C254.298795,5.77830169 254.002606,5.18592447 253.46,4.93996336 C252.99,4.64996336 250.52,4.70996336 248.81,6.41996336 C247.1,8.12996336 247.42,12.1399634 247.42,12.1399634 C247.380447,14.6378078 248.26345,17.0625062 249.9,18.9499634 C250.16,19.3899634 256.44,26.2099634 256.44,26.2099634 C255.82,26.3199634 253.35,24.6999634 252.7,24.2099634 C252.05,23.7199634 251.7,23.7399634 250.87,23.8599634 C250.136684,23.8573632 249.412917,23.6934913 248.75,23.3799634 C247.699633,22.9071251 246.76978,22.2028981 246.03,21.3199634 C245.27,20.3199634 244.26,20.5499634 242.79,20.1399634 C241.32,19.7299634 241.08,19.1999634 241.08,18.4899634 C241.08,17.7799634 241.61,17.4899634 241.73,16.3699634 C241.85,15.2499634 240.49,15.2999634 240.25,15.3699634 C240.01,15.4399634 238.19,15.7299634 237.89,20.4499634 C237.59,25.1699634 242.32,26.5799634 243.2,26.9299634 C244.08,27.2799634 245.44,27.5799634 251.11,27.8799634 C256.78,28.1799634 255.82,28.5799634 255.82,28.5799634 L254.23,28.8799634 C252.64,29.1699634 251.58,30.8799634 251.16,31.4199634 C250.74,31.9599634 249.39,32.4799634 247.8,32.6499634 C246.816766,32.6599459 245.864258,32.993851 245.09,33.5999634 C244.74,33.9499634 244.56,34.4799634 243.44,34.2499634 C242.302402,33.9575871 241.134401,33.7998397 239.96,33.7799634 C239.49,33.8899634 238.78,32.7099634 238.6,32.5399634 C238.42,32.3699634 236.95,32.8899634 237.66,36.2499634 C238.37,39.6099634 241.31,39.9099634 243.56,39.8499634 C245.81,39.7899634 247.68,38.3799634 249.16,37.1999634 C250.64,36.0199634 253.58,34.3099634 254.47,33.4199634 C255.567052,32.3773079 256.751379,31.4305155 258.01,30.5899634 C258.319448,31.3093015 258.297513,32.1282224 257.95,32.8299634 C257.559312,33.4369834 257.297248,34.1176692 257.18,34.8299634 C257.0392,35.5268779 256.800147,36.2002668 256.47,36.8299634 C255.885307,38.3039874 255.508366,39.8521378 255.35,41.4299634 C255.06,43.4999634 251.99,44.1999634 250.63,44.2599634 C249.27,44.3199634 248.69,44.9699634 248.22,46.2599634 C247.75,47.5499634 249.1,49.0899634 251.93,49.4999634 C253.912251,49.742346 255.830578,48.7029174 256.71,46.9099634 C257.013496,46.0327933 257.430362,45.1990625 257.95,44.4299634 C258.420848,43.7089298 258.759472,42.9097769 258.95,42.0699634 C259.19,40.9499634 259.72,37.2299634 259.78,36.5899634 C259.84,35.9499634 260.66,31.7499634 260.84,31.9899634 C261.09648,32.7309689 261.390186,33.4585606 261.72,34.1699634 C262.510562,35.2161453 263.358531,36.2176828 264.26,37.1699634 C264.853838,37.7647088 265.299202,38.490995 265.56,39.2899634 C265.936925,40.0178723 266.119486,40.8307842 266.09,41.6499634 C265.959829,42.4234106 266.039249,43.2176083 266.32,43.9499634 C266.50771,44.6806646 266.426064,45.4545226 266.09,46.1299634 C265.79,46.9599634 264.67,46.7199634 264.38,47.7199634 C264.164318,48.4487342 264.512545,49.2258769 265.2,49.5499634 C266.46006,49.7800948 267.757138,49.7011721 268.98,49.3199634 C270.63,48.7799634 271.63,47.0699634 271.69,43.8899634 C271.75,40.7099634 268.5,36.8099634 267.44,35.3399634 C266.38,33.8699634 262.55,29.4399634 262.55,29.4399634 C263.279234,29.5638561 263.978293,29.825155 264.61,30.2099634 C265.400713,30.9370507 266.426353,31.3558242 267.5,31.3899634 C268.461956,31.3718642 269.413483,31.5917116 270.27,32.0299634 C270.914633,32.2551612 271.613026,32.276113 272.27,32.0899634 C272.98,32.0299634 272.86,32.1499634 273.63,32.5099634 C274.4,32.8699634 274.63,32.7999634 274.92,32.9799634 C275.513345,33.4288078 276.170657,33.786116 276.87,34.0399634 C277.604645,34.346388 278.074033,35.074337 278.05,35.8699634 C277.93,36.4599634 278.05,36.3999634 278.17,37.2799634 C278.29,38.1599634 278.23,38.3999634 278.52,38.8199634 C278.81,39.2399634 279.76,38.8199634 280.76,37.8199634 C281.76,36.8199634 282.03,34.6899634 281.56,32.6799634 Z M263.86,27.8499634 C263.613531,27.9093847 263.356469,27.9093847 263.11,27.8499634 C262.858904,27.7254978 262.598031,27.6218176 262.33,27.5399634 C262.110828,27.5129733 261.889172,27.5129733 261.67,27.5399634 C261.457171,27.5606991 261.242829,27.5606991 261.03,27.5399634 C260.84,27.5399634 260.67,27.4099634 260.62,27.7199634 C260.640678,27.7824499 260.667475,27.8427423 260.7,27.8999634 C260.741002,27.9676054 260.77774,28.0377419 260.81,28.1099634 C260.862775,28.223753 260.922902,28.3339861 260.99,28.4399634 C261.096177,28.5575655 261.213379,28.664722 261.34,28.7599634 C261.531775,28.9145182 261.682831,29.1136384 261.78,29.3399634 C261.88181,29.5592731 262.016718,29.7616349 262.18,29.9399634 L262.18,29.9399634 C262.351066,30.0180837 262.496636,30.1428582 262.6,30.2999634 L262.6,30.3599634 C262.695486,30.5207916 262.763105,30.6966005 262.8,30.8799634 C262.86,31.1099634 262.99,31.1599634 263,31.1599634 L263,31.1599634 C263,31.1599634 263.09,31.2699634 263.07,31.3299634 C263.047395,31.3792876 262.992201,31.4047617 262.94,31.3899634 C262.75,31.3899634 262.59,31.0699634 262.58,30.9299634 C262.533251,30.7244885 262.452108,30.5283932 262.34,30.3499634 L262.16,30.2199634 C261.947184,30.0852164 261.755162,29.9201451 261.59,29.7299634 L261.53,29.6199634 C261.466967,29.4763828 261.371052,29.3496378 261.25,29.2499634 C260.985369,29.0787617 260.763106,28.8496593 260.6,28.5799634 C260.519375,28.4326287 260.422068,28.2950578 260.31,28.1699634 L260.31,28.1699634 L260.31,28.1699634 C260.362205,28.3346108 260.382567,28.5076957 260.37,28.6799634 C260.340251,28.8262982 260.282528,28.9655128 260.2,29.0899634 C260.136725,29.1800871 260.092491,29.2821663 260.07,29.3899634 L260.07,29.3899634 C260.069915,29.503657 260.093765,29.6160951 260.14,29.7199634 C260.206717,29.8717503 260.260248,30.0289971 260.3,30.1899634 C260.315273,30.3094774 260.315273,30.4304493 260.3,30.5499634 C260.235281,30.7657436 260.188455,30.9864908 260.16,31.2099634 C260.231117,31.4515041 260.231117,31.7084227 260.16,31.9499634 C260.061785,32.2040057 259.981586,32.4646507 259.92,32.7299634 C259.92,32.7299634 259.92,32.7299634 259.92,32.7299634 L259.92,32.7299634 L259.86,32.7299634 C259.805624,32.6126234 259.805624,32.4773033 259.86,32.3599634 L259.95,32.0899634 C260.001518,31.9672259 260.041685,31.840028 260.07,31.7099634 C260.077364,31.6334735 260.077364,31.5564532 260.07,31.4799634 C260.040329,31.3078998 260.040329,31.1320269 260.07,30.9599634 C260.141139,30.7130536 260.174847,30.4568713 260.17,30.1999634 C260.118611,29.9783739 260.041417,29.7635741 259.94,29.5599634 C259.85,29.4699634 259.89,29.0199634 259.94,28.8999634 L260,28.7999634 C260.07739,28.6851175 260.07739,28.5348092 260,28.4199634 C259.941753,28.2941248 259.907823,28.1584078 259.9,28.0199634 C259.900731,27.962676 259.88322,27.9066411 259.85,27.8599634 L259.85,27.8599634 C259.85,27.8599634 259.78,27.9099634 259.76,27.9399634 L259.76,27.9399634 C259.617382,28.0249174 259.455858,28.0730308 259.29,28.0799634 C259.128871,28.0720482 258.972156,28.1340054 258.86,28.2499634 C258.792678,28.3562602 258.748391,28.4754921 258.73,28.5999634 C258.726069,28.7012672 258.663613,28.7910473 258.57,28.8299634 C258.57,28.8299634 258.57,28.8299634 258.5,28.9099634 L258.5,28.9799634 C258.354861,29.0916297 258.192821,29.1794016 258.02,29.2399634 C257.844265,29.3242835 257.685078,29.43944 257.55,29.5799634 C257.546216,29.5997844 257.546216,29.6201423 257.55,29.6399634 C257.45,29.8099634 257.27,30.1199634 257.1,30.1699634 C256.93,30.2199634 256.94,30.1699634 256.93,30.1699634 C256.92,30.1699634 256.98,30.0299634 257.02,30.0199634 C257.13906,29.9630075 257.232007,29.8629101 257.28,29.7399634 C257.358964,29.5033132 257.518137,29.3016934 257.73,29.1699634 L257.8,29.1699634 C257.97335,29.1094496 258.130655,29.0102788 258.26,28.8799634 C258.359966,28.7724255 258.423022,28.6358034 258.44,28.4899634 C258.468364,28.2085473 258.65466,27.9679144 258.92,27.8699634 L259.05,27.8699634 C259.18,27.8699634 259.32,27.6899634 259.42,27.6499634 C259.52,27.6099634 259.5,27.6499634 259.49,27.5799634 C259.48,27.5099634 259.42,27.5799634 259.42,27.5799634 C259.194311,27.6948982 258.933418,27.7199154 258.69,27.6499634 C258.479378,27.5775821 258.250622,27.5775821 258.04,27.6499634 C257.875032,27.7494945 257.678088,27.7817218 257.49,27.7399634 L257.24,27.6699634 C256.964426,27.5738038 256.679539,27.5067715 256.39,27.4699634 L256.31,27.4699634 C256.098754,27.5139436 255.879146,27.4930286 255.68,27.4099634 C255.493355,27.3508096 255.320097,27.2556873 255.17,27.1299634 C255.135174,27.0892309 255.090384,27.0582223 255.04,27.0399634 C255.04,27.0399634 254.95,27.0399634 254.94,26.9499634 C254.928869,26.9244583 254.928869,26.8954684 254.94,26.8699634 C254.974034,26.8503138 255.015966,26.8503138 255.05,26.8699634 L255.14,26.9299634 L255.31,27.0499634 C255.482526,27.1780741 255.686287,27.2575066 255.9,27.2799634 L255.9,27.2799634 L256.38,27.2799634 C256.511978,27.2796945 256.642162,27.3105277 256.76,27.3699634 L256.93,27.4299634 C256.992651,27.4349323 257.053762,27.4519074 257.11,27.4799634 C257.23762,27.529847 257.373011,27.5569251 257.51,27.5599634 C257.655223,27.525498 257.79153,27.460752 257.91,27.3699634 C258.087676,27.272396 258.298248,27.2542432 258.49,27.3199634 C258.680615,27.3658142 258.879385,27.3658142 259.07,27.3199634 L259.18,27.3199634 C259.242492,27.3036282 259.302891,27.2801396 259.36,27.2499634 C259.388318,27.2107649 259.394402,27.1597279 259.376092,27.114971 C259.357783,27.0702142 259.317672,27.038075 259.27,27.0299634 C259.045403,26.9424239 258.841182,26.8096804 258.67,26.6399634 C258.623724,26.5790514 258.586661,26.5116633 258.56,26.4399634 C258.525437,26.3013132 258.424256,26.1888899 258.29,26.1399634 C258.069991,26.0334188 257.89088,25.8578201 257.78,25.6399634 L257.78,25.5899634 L257.7,25.4299634 C257.64,25.3099634 257.54,25.0999634 257.47,25.0799634 C257.4,25.0599634 257.33,24.9599634 257.26,24.8599634 C257.217226,24.7942927 257.166881,24.7338781 257.11,24.6799634 C257.026655,24.618072 256.961116,24.5352857 256.92,24.4399634 L256.85,24.3099634 C256.811365,24.2424082 256.787506,24.1674232 256.78,24.0899634 C256.776127,23.9936624 256.732715,23.9032202 256.66,23.8399634 C256.66,23.8399634 256.51,23.7299634 256.56,23.6599634 C256.61,23.5899634 256.69,23.6599634 256.71,23.6599634 L256.71,23.6599634 C256.811242,23.6979183 256.886471,23.7844317 256.91,23.8899634 L256.91,24.0399634 C256.922861,24.1367002 256.949814,24.2310335 256.99,24.3199634 C257.086595,24.4301914 257.193776,24.530673 257.31,24.6199634 C257.380558,24.662102 257.436424,24.7249514 257.47,24.7999634 L257.52,24.8899634 L257.52,24.8899634 C257.642968,24.9992582 257.747628,25.1275511 257.83,25.2699634 C257.867357,25.3678229 257.925336,25.456497 258,25.5299634 C258.018333,25.5578403 258.038371,25.5845579 258.06,25.6099634 C258.14,25.7599634 258.23,25.8499634 258.32,25.8599634 C258.41,25.8699634 258.72,25.9399634 258.77,26.1299634 C258.835675,26.2318082 258.912849,26.3257592 259,26.4099634 C259.052698,26.4549519 259.096752,26.5091719 259.13,26.5699634 C259.209336,26.634821 259.301277,26.6824944 259.4,26.7099634 C259.45,26.7099634 259.58,26.7099634 259.7,26.4399634 C259.75,26.3299634 259.76,26.2699634 259.78,26.2299634 C259.77421,26.1968815 259.77421,26.1630452 259.78,26.1299634 C259.822339,25.9659856 259.822339,25.7939412 259.78,25.6299634 C259.729822,25.3602786 259.761156,25.0817582 259.87,24.8299634 C259.99741,24.6956442 260.078074,24.5237954 260.1,24.3399634 C260.096979,24.2544726 260.080092,24.17004 260.05,24.0899634 C260.013838,23.9803644 259.996922,23.8653328 260,23.7499634 C260.019231,23.5387575 260.091462,23.3358227 260.21,23.1599634 C260.26,23.1599634 260.29,23.1599634 260.31,23.1599634 C260.351675,23.216441 260.351675,23.2934858 260.31,23.3499634 C260.224948,23.4654083 260.182541,23.6067651 260.19,23.7499634 L260.19,23.7499634 C260.334184,24.0677049 260.334184,24.4322218 260.19,24.7499634 C260.069184,24.9553918 260.040159,25.2021046 260.11,25.4299634 C260.112652,25.4599047 260.112652,25.490022 260.11,25.5199634 C260.105706,25.5464571 260.105706,25.5734696 260.11,25.5999634 C260.154801,25.7602245 260.154801,25.9297022 260.11,26.0899634 C260.11,26.0899634 260.11,26.1899634 260.17,26.4699634 L260.17,26.4699634 L260.22,26.4699634 C260.314544,26.4413145 260.415456,26.4413145 260.51,26.4699634 L260.51,26.4699634 C260.627687,26.4824408 260.744858,26.4421633 260.83,26.3599634 C260.883738,26.2876032 260.924355,26.2063701 260.95,26.1199634 C260.973624,26.0601443 261.003809,26.0031292 261.04,25.9499634 C261.04,25.9499634 261.04,25.8899634 261.04,25.8499634 C261.04,25.8099634 261.17,25.4199634 261.46,25.3699634 C261.715926,25.3121561 261.949038,25.1799438 262.13,24.9899634 C262.201737,24.8402837 262.312226,24.7125307 262.45,24.6199634 C262.571194,24.5403321 262.684985,24.4499685 262.79,24.3499634 C263.08,24.0899634 263.14,24.0399634 263.2,24.0799634 C263.2,24.0799634 263.15,24.1899634 262.98,24.3399634 L262.98,24.3399634 L262.8,24.4799634 C262.68,24.5699634 262.45,24.7399634 262.43,24.7699634 L262.35,24.8999634 L262.21,25.1099634 C262.076504,25.2567135 261.91273,25.3727204 261.73,25.4499634 C261.576263,25.4891303 261.445805,25.5905977 261.37,25.7299634 L261.37,25.7799634 C261.341929,26.0710051 261.202137,26.3398358 260.98,26.5299634 C260.917254,26.5978173 260.831931,26.6404791 260.74,26.6499634 C260.640016,26.6721549 260.549259,26.724515 260.48,26.7999634 C260.48,26.8699634 260.41,27.1099634 260.79,27.0999634 C261.12109,27.0470972 261.454998,27.0137065 261.79,26.9999634 C262.152476,26.9707045 262.51185,27.0857042 262.79,27.3199634 C263.134385,27.5295051 263.546516,27.5975963 263.94,27.5099634 C263.94,27.5099634 264.21,27.4299634 264.27,27.5099634 C264.33,27.5899634 264.27,27.5099634 264.27,27.5699634 C264.27,27.6299634 263.86,27.8499634 263.86,27.8499634 Z" id="Shape"></path>
                </g>
            </g>
        </g>
    </g>
</svg>