<?xml version="1.0" encoding="UTF-8"?>
<svg width="1390px" height="494px" viewBox="0 0 1390 494" version="1.1" xmlns="http://www.w3.org/2000/svg" xmlns:xlink="http://www.w3.org/1999/xlink">
    <title>Combined Shape Copy</title>
    <g id="Zed-Logo" stroke="none" stroke-width="1" fill="none" fill-rule="evenodd">
        <path d="M672.828406,78 C790.186313,78 885.323693,171.124772 885.323693,286 C885.323693,340.82083 708.236746,335.593218 672.828406,372.750067 C634.03975,413.45416 734.180699,494 672.828406,494 C555.4705,494 460.333121,400.875228 460.333121,286 C460.333121,171.124772 555.4705,78 672.828406,78 Z M1349.18752,0 C1371.72763,0 1390,17.885822 1390,39.9491017 L1390,39.9491017 L1390,285.566656 C1390,400.441884 1294.86262,493.566656 1177.50471,493.566656 C1060.14681,493.566656 965.009426,400.441884 965.009426,285.566656 C965.009426,170.691428 1063.34325,77.5666559 1177.50471,77.5666559 L1177.50471,77.5666559 L1180.80081,77.5661262 C1234.049,77.5401722 1258.93017,76.2424692 1320.68398,11.357321 C1328.30711,4.07585465 1338.53631,0 1349.18752,0 Z M293.539796,78 C337.54901,78 373.225528,112.92179 373.225528,156 C373.225528,168.573406 370.120266,180.960463 364.174331,192.105703 L293.874261,323.878301 C278.444594,352.800141 283.035947,388.066534 305.382824,412.276106 L324.146912,432.604251 C337.871202,447.472512 336.68334,470.415992 321.493747,483.849948 C314.680834,489.875414 305.825675,493.211262 296.643721,493.211262 L79.6857326,493.211262 C35.6765177,493.211262 0,458.289473 0,415.211262 C0,402.769802 3.04045718,390.508835 8.86756066,379.451881 L78.6928781,246.958038 C93.8659708,218.167029 89.278443,183.192578 67.1670605,159.087371 L48.3424868,138.565351 C34.6560602,123.644793 35.9179283,100.688963 51.1609481,87.2920703 C57.9681352,81.3093211 66.7939225,78 75.9424156,78 L293.539796,78 Z" id="Combined-Shape-Copy" fill="#000000" fill-rule="nonzero"></path>
    </g>
</svg>